<svg xmlns="http://www.w3.org/2000/svg" xmlns:xlink="http://www.w3.org/1999/xlink" width="640" height="463" viewBox="0 0 640 463"><metadata><rdf:RDF xmlns:rdf="http://www.w3.org/1999/02/22-rdf-syntax-ns#" xmlns:schema="http://schema.org/"><rdf:Description rdf:about="homepage_slider-image.svg"><schema:license rdf:resource="https://www.hightechict.nl/svg-licence.txt"/></rdf:Description></rdf:RDF></metadata><defs><clipPath id="t"><path fill="none" d="M537.7 180.6l.49-170.29 35.09 20.26-.48 170.3-35.1-20.27z" /></clipPath><linearGradient id="e" x1="568.65" y1="417.77" x2="575.55" y2="429.73" gradientUnits="userSpaceOnUse"><stop offset="0" stop-color="#2f6b6a" stop-opacity=".4" /><stop offset="1" stop-color="#255266" stop-opacity="0" /></linearGradient><linearGradient id="a" x1="463.62" y1="405.47" x2="470.53" y2="393.51" gradientUnits="userSpaceOnUse"><stop offset="0" stop-color="#9bc7c3" stop-opacity="0" /><stop offset="1" stop-color="#9bc7c3" stop-opacity=".3" /></linearGradient><linearGradient id="b" x1="393.56" y1="365.02" x2="603.61" y2="365.02" gradientUnits="userSpaceOnUse"><stop offset="0" stop-color="#caded5" /><stop offset="1" stop-color="#88bebf" /></linearGradient><linearGradient id="d" x1="572.1" y1="433.74" x2="572.1" y2="389.28" gradientUnits="userSpaceOnUse"><stop offset="0" stop-color="#255266" /><stop offset="1" stop-color="#5c9997" /></linearGradient><linearGradient id="c" x1="467.08" y1="433.74" x2="467.08" y2="340.77" gradientUnits="userSpaceOnUse"><stop offset="0" stop-color="#439fb8" /><stop offset="1" stop-color="#9bc7c3" /></linearGradient><linearGradient id="u" x1="407.44" y1="243.72" x2="414.55" y2="231.4" xlink:href="#a" /><linearGradient id="v" x1="351.48" y1="179.14" x2="589.54" y2="179.14" xlink:href="#b" /><linearGradient id="w" x1="411" y1="263.87" x2="411" y2="179.14" xlink:href="#c" /><linearGradient id="x" x1="530.03" y1="263.87" x2="530.03" y2="146.69" xlink:href="#d" /><linearGradient id="y" x1="533.53" y1="191.26" x2="533.53" y2="118.39" xlink:href="#c" /><linearGradient id="z" x1="498.52" y1="132.54" x2="589.54" y2="132.54" xlink:href="#b" /><linearGradient id="A" x1="526.5" y1="231.54" x2="533.55" y2="243.74" xlink:href="#e" /><linearGradient id="B" x1="36.29" y1="360.68" x2="274.34" y2="360.68" xlink:href="#b" /><linearGradient id="C" x1="-6918.15" y1="-8019.42" x2="-6918.15" y2="-8104.34" gradientTransform="rotate(.01 -48505965.282 40183700.672)" xlink:href="#c" /><linearGradient id="D" x1="-6799.13" y1="-8019.42" x2="-6799.13" y2="-8104.34" gradientTransform="rotate(.01 -48505965.282 40183700.672)" xlink:href="#d" /><linearGradient id="E" x1="211.31" y1="413.63" x2="218.34" y2="425.8" xlink:href="#e" /><linearGradient id="F" x1="92.28" y1="425.79" x2="99.31" y2="413.61" xlink:href="#a" /><linearGradient id="G" x1="295.03" y1="292.59" x2="309.04" y2="316.85" gradientUnits="userSpaceOnUse"><stop offset="0" stop-color="#5c9997" stop-opacity=".6" /><stop offset="1" stop-color="#255266" stop-opacity="0" /></linearGradient><linearGradient id="H" x1="239.02" y1="316.85" x2="253.02" y2="292.59" xlink:href="#a" /><linearGradient id="I" x1="302.03" y1="304.72" x2="302.03" y2="207.7" xlink:href="#d" /><linearGradient id="J" x1="246.02" y1="304.72" x2="246.02" y2="207.7" xlink:href="#c" /><linearGradient id="K" x1="218.02" y1="207.7" x2="330.04" y2="207.7" xlink:href="#b" /><linearGradient id="r" x1="285.95" y1="-15936.06" x2="285.95" y2="-15963.61" gradientTransform="matrix(1 0 0 -1 0 -15742)" gradientUnits="userSpaceOnUse"><stop offset="0" stop-color="#004ab8" /><stop offset="1" stop-color="#008dc7" /></linearGradient><linearGradient id="s" x1="262.09" y1="-15936.06" x2="262.09" y2="-15963.61" gradientTransform="matrix(1 0 0 -1 0 -15742)" gradientUnits="userSpaceOnUse"><stop offset="0" stop-color="#002066" /><stop offset="1" stop-color="#006399" /></linearGradient><linearGradient id="f" x1="274.03" y1="226.96" x2="274.03" y2="162.28" gradientUnits="userSpaceOnUse"><stop offset="0" stop-color="#fff" stop-opacity=".3" /><stop offset="1" stop-color="#fff" stop-opacity="0" /></linearGradient><linearGradient id="L" x1="274.03" y1="213.6" x2="274.03" y2="148.92" xlink:href="#f" /><linearGradient id="M" x1="274.03" y1="199.99" x2="274.03" y2="135.31" xlink:href="#f" /><linearGradient id="N" x1="274.02" y1="221.61" x2="274.02" y2="125.17" gradientUnits="userSpaceOnUse"><stop offset="0" stop-color="#fff" stop-opacity=".5" /><stop offset="0" stop-color="#fff" stop-opacity=".5" /><stop offset=".23" stop-color="#fff" stop-opacity=".32" /><stop offset=".46" stop-color="#fff" stop-opacity=".18" /><stop offset=".66" stop-color="#fff" stop-opacity=".08" /><stop offset=".85" stop-color="#fff" stop-opacity=".02" /><stop offset="1" stop-color="#fff" stop-opacity="0" /></linearGradient><linearGradient id="O" x1="277.32" y1="-15708.01" x2="324.93" y2="-15708.01" gradientTransform="scale(1 -1) rotate(28.1 -30874.478 -8107.496)" gradientUnits="userSpaceOnUse"><stop offset=".38" stop-color="#ff7373" /><stop offset="1" stop-color="#e84118" /></linearGradient><linearGradient id="P" x1="266.8" y1="167.88" x2="266.8" y2="142.89" gradientUnits="userSpaceOnUse"><stop offset="0" stop-color="#9f1700" /><stop offset=".03" stop-color="#a31901" /><stop offset=".28" stop-color="#c12a0b" /><stop offset=".53" stop-color="#d73712" /><stop offset=".78" stop-color="#e43e17" /><stop offset="1" stop-color="#e84118" /></linearGradient><linearGradient id="Q" x1="313.03" y1="-15749.2" x2="313.03" y2="-15708.01" gradientTransform="scale(1 -1) rotate(28.1 -30874.478 -8107.496)" gradientUnits="userSpaceOnUse"><stop offset="0" stop-color="#9f1700" /><stop offset=".48" stop-color="#aa1700" /><stop offset="1" stop-color="#ae1700" /></linearGradient><linearGradient id="g" x1="110.34" y1="358.86" x2="257.11" y2="358.86" gradientUnits="userSpaceOnUse"><stop offset="0" stop-opacity=".4" /><stop offset="1" stop-opacity="0" /></linearGradient><linearGradient id="R" x1="-666.3" y1="373.41" x2="-666.3" y2="343.03" gradientTransform="matrix(-1 0 0 1 -538.61 -.1)" gradientUnits="userSpaceOnUse"><stop offset="0" stop-color="#737373" /><stop offset="1" stop-color="#8e8e8e" /></linearGradient><linearGradient id="S" x1="-722.31" y1="373.41" x2="-722.31" y2="334.99" gradientTransform="matrix(-1 0 0 1 -538.61 -.1)" gradientUnits="userSpaceOnUse"><stop offset="0" stop-color="#b3b3b3" /><stop offset="1" stop-color="#c7c7c7" /></linearGradient><linearGradient id="T" x1="-753.76" y1="339.02" x2="-641.73" y2="339.02" gradientTransform="matrix(-1 0 0 1 -538.61 -.1)" gradientUnits="userSpaceOnUse"><stop offset="0" stop-color="#e6e6e6" /><stop offset="1" stop-color="#ccc" /></linearGradient><linearGradient id="U" x1="-727.15" y1="338.58" x2="-666.43" y2="338.58" gradientTransform="matrix(-1 0 0 1 -538.61 -.1)" gradientUnits="userSpaceOnUse"><stop offset="0" stop-color="#00decf" /><stop offset="1" stop-color="#0072bf" /></linearGradient><linearGradient id="V" x1="316.35" y1="385.26" x2="414.37" y2="385.26" xlink:href="#b" /><linearGradient id="W" x1="-6673.1" y1="-8043.67" x2="-6673.1" y2="-8080.22" gradientTransform="rotate(.01 -48505965.282 40183700.672)" xlink:href="#c" /><linearGradient id="X" x1="-6624.09" y1="-8043.67" x2="-6624.09" y2="-8080.14" gradientTransform="rotate(.01 -48505965.282 40183700.672)" xlink:href="#d" /><linearGradient id="Y" x1="386.37" y1="409.57" x2="393.36" y2="421.69" xlink:href="#e" /><linearGradient id="Z" x1="337.33" y1="421.68" x2="344.37" y2="409.48" xlink:href="#a" /><linearGradient id="aa" x1="364.9" y1="385.96" x2="414.37" y2="385.96" xlink:href="#g" /><linearGradient id="ab" x1="348.13" y1="380.23" x2="382.58" y2="380.23" gradientUnits="userSpaceOnUse"><stop offset="0" stop-color="#6a6a6a" /><stop offset="1" stop-color="#424242" /></linearGradient><linearGradient id="h" x1="155.65" y1="101.55" x2="255.86" y2="101.55" gradientUnits="userSpaceOnUse"><stop offset="0" stop-color="#e2e7f0" /><stop offset="1" stop-color="#a7b4cc" /></linearGradient><linearGradient id="ac" x1="339.68" y1="66.38" x2="380.4" y2="66.38" xlink:href="#h" /><linearGradient id="ad" x1="390.15" y1="68.9" x2="439.48" y2="68.9" xlink:href="#h" /><linearGradient id="ae" x1="482.03" y1="135.09" x2="528.02" y2="135.09" gradientUnits="userSpaceOnUse"><stop offset="0" stop-opacity=".42" /><stop offset="1" stop-opacity="0" /></linearGradient><linearGradient id="j" x1="527.37" y1="132.91" x2="528.99" y2="132.91" gradientUnits="userSpaceOnUse"><stop offset="0" stop-color="#606060" /><stop offset="1" stop-color="#212121" /></linearGradient><linearGradient id="k" x1="526.09" y1="132.36" x2="527.38" y2="132.36" gradientUnits="userSpaceOnUse"><stop offset="0" stop-color="#888" /><stop offset="1" stop-color="#606060" /></linearGradient><linearGradient id="i" x1="528.99" y1="131.83" x2="531.36" y2="131.83" gradientUnits="userSpaceOnUse"><stop offset="0" stop-color="#212121" /><stop offset="1" stop-color="#606060" /></linearGradient><linearGradient id="af" x1="526.73" y1="130.96" x2="526.73" y2="126.63" xlink:href="#i" /><linearGradient id="l" x1="515.32" y1="130.95" x2="515.32" y2="120.86" gradientUnits="userSpaceOnUse"><stop offset="0" stop-color="#606060" /><stop offset="1" stop-color="#888" /></linearGradient><linearGradient id="m" x1="521.79" y1="117.96" x2="537.51" y2="117.96" gradientUnits="userSpaceOnUse"><stop offset="0" stop-color="#929292" /><stop offset="1" stop-color="#585858" /></linearGradient><linearGradient id="n" x1="525.87" y1="123.69" x2="525.87" y2="117.76" gradientUnits="userSpaceOnUse"><stop offset="0" stop-color="#424242" /><stop offset="1" stop-color="#757575" /></linearGradient><linearGradient id="o" x1="533.72" y1="123.69" x2="533.72" y2="118.13" gradientUnits="userSpaceOnUse"><stop offset="0" stop-color="#2b2b2b" /><stop offset="1" stop-color="#6a6a6a" /></linearGradient><linearGradient id="p" x1="516.12" y1="106.14" x2="544.26" y2="106.14" gradientUnits="userSpaceOnUse"><stop offset="0" stop-color="#457794" /><stop offset="1" stop-color="#34596e" /></linearGradient><linearGradient id="q" x1="542.75" y1="123.69" x2="542.75" y2="104.44" gradientUnits="userSpaceOnUse"><stop offset="0" stop-color="#474747" /><stop offset="1" stop-color="#868686" /></linearGradient><linearGradient id="ag" x1="561.89" y1="152.84" x2="563.5" y2="152.84" xlink:href="#j" /><linearGradient id="ah" x1="560.6" y1="152.29" x2="561.89" y2="152.29" xlink:href="#k" /><linearGradient id="ai" x1="563.5" y1="151.76" x2="565.88" y2="151.76" xlink:href="#i" /><linearGradient id="aj" x1="561.25" y1="150.89" x2="561.25" y2="146.55" xlink:href="#i" /><linearGradient id="ak" x1="549.84" y1="150.88" x2="549.84" y2="140.79" xlink:href="#l" /><linearGradient id="al" x1="556.31" y1="137.89" x2="572.02" y2="137.89" xlink:href="#m" /><linearGradient id="am" x1="560.38" y1="143.62" x2="560.38" y2="137.69" xlink:href="#n" /><linearGradient id="an" x1="568.24" y1="143.62" x2="568.24" y2="138.06" xlink:href="#o" /><linearGradient id="ao" x1="550.63" y1="126.06" x2="578.77" y2="126.06" xlink:href="#p" /><linearGradient id="ap" x1="577.27" y1="143.62" x2="577.27" y2="124.37" xlink:href="#q" /><clipPath id="aq"><path fill="none" d="M558.58 91.81l.02-8.83 22.95 13.25-.02 8.83-22.95-13.25z" /></clipPath><clipPath id="ar"><path fill="none" d="M515.95 47.1l.02-8.83 25.42 14.68-.02 8.83-25.42-14.68z" /></clipPath><linearGradient id="as" x1="519.59" y1="393.17" x2="519.59" y2="312.33" xlink:href="#r" /><linearGradient id="at" x1="453.08" y1="320.41" x2="453.08" y2="312.33" xlink:href="#s" /><linearGradient id="au" x1="506.52" y1="349.25" x2="529.15" y2="310.05" gradientUnits="userSpaceOnUse"><stop offset="0" stop-color="#fff" stop-opacity=".5" /><stop offset=".34" stop-color="#fff" stop-opacity=".29" /><stop offset=".63" stop-color="#fff" stop-opacity=".13" /><stop offset=".86" stop-color="#fff" stop-opacity=".04" /><stop offset="1" stop-color="#fff" stop-opacity="0" /></linearGradient><linearGradient id="av" data-name="glass-back" x1="-116.74" y1="276.99" x2="20.96" y2="276.99" gradientTransform="matrix(-1 0 0 1 472.68 0)" gradientUnits="userSpaceOnUse"><stop offset="0" stop-color="#96bdcc" /><stop offset="1" stop-color="#5591b2" /></linearGradient><linearGradient id="aw" x1="461.59" y1="278.03" x2="574.98" y2="278.03" gradientUnits="userSpaceOnUse"><stop offset="0" stop-color="#225370" /><stop offset="1" stop-color="#17374a" /></linearGradient><linearGradient id="ax" x1="567.01" y1="273.26" x2="567.01" y2="259.21" xlink:href="#d" /><linearGradient id="ay" x1="585.13" y1="358.13" x2="585.13" y2="288.95" xlink:href="#r" /><linearGradient id="az" x1="561.72" y1="299.44" x2="608.68" y2="299.44" xlink:href="#b" /><linearGradient id="aA" x1="605.58" y1="313.85" x2="605.58" y2="308.89" xlink:href="#o" /></defs><g fill="none" stroke="#fff" stroke-linecap="round" stroke-linejoin="round" stroke-dasharray="2,4"><path d="M379.37 211.44L183.32 324.62m118.72-36.07l49.32 27.99 35.01-20.21 49.01 28.29m-196.05 72.77l63.02 36.38 119.03-68.72" /><path d="M337.11 308.45l-55.77 32.34 63.02 36.39" /></g><path fill="#dc4326" opacity=".5" d="M470.39 174.53l-98.02 56.6 44.16 25.3 98.02-56.59-44.16-25.31z" /><path fill="#dc4326" opacity=".6" d="M98.02 324.7L0 381.29l70.02 40.42 98.02-56.59-70.02-40.42z" /><path fill="#dc4326" opacity=".5" d="M466.78 355.28l-73.51 42.08 70.02 40.42 73.51-42.07-70.02-40.43z" /><path fill="#dc4326" opacity=".3" d="M569.98 141.93L496.48 184l70.01 40.43L640 182.36l-70.02-40.43z" /><g fill="#fff" clip-path="url(#t)" opacity=".2"><path d="M541.35 26.53c-1.08-.62-1.56-1.7-1.56-3.46v-8.1c0-2.09.66-2.23 1.55-1.72s1.54 1.5 1.53 3.51v8c0 2.07-.6 2.27-1.53 1.73m.07-14.36c-1.31-.75-2.59-.73-2.6 2.28v8.05c0 2.77 1.09 4.28 2.5 5.1s2.58.57 2.59-2.21v-8.06c0-2.95-1.23-4.43-2.49-5.16m10.06 5.93l-.7-.4a3.1 3.1 0 0 1-1.94.16v.95a4.33 4.33 0 0 0 1.65.22v13.7l1 .57v-15.2m8.58 19.28c-1.07-.63-1.56-1.71-1.55-3.47v-8.1c0-2.09.67-2.23 1.55-1.72s1.55 1.5 1.54 3.51v8.05c0 2.07-.61 2.26-1.54 1.73m.07-14.34c-1.3-.75-2.59-.73-2.6 2.27v8.06c0 2.77 1.1 4.28 2.51 5.09s2.57.57 2.58-2.2v-8.06c0-3-1.23-4.43-2.49-5.16m10.59 20.49c-1.08-.62-1.56-1.7-1.56-3.46v-8.1c0-2.1.66-2.24 1.55-1.72s1.54 1.49 1.53 3.5v8c0 2.08-.6 2.27-1.53 1.74m.06-14.36c-1.3-.75-2.59-.73-2.6 2.27v8.05c0 2.78 1.1 4.29 2.51 5.1s2.57.57 2.58-2.2v-8.07c0-3-1.23-4.43-2.49-5.15m-30.03 13.79l-.71-.41a3 3 0 0 1-1.94.16v1a4.34 4.34 0 0 0 1.65.21v13.71l1 .57v-15.2m8.58 19.23c-1.08-.62-1.55-1.7-1.55-3.46v-8.1c0-2.1.66-2.23 1.55-1.72s1.54 1.49 1.54 3.51v8c0 2.08-.6 2.27-1.53 1.73m.07-14.36c-1.31-.75-2.59-.73-2.6 2.27v8.06c0 2.77 1.1 4.29 2.5 5.1s2.58.57 2.59-2.21v-8.06c0-3-1.24-4.43-2.49-5.16M560 68.3c-1.08-.62-1.57-1.7-1.56-3.46v-8.1c0-2.1.67-2.23 1.56-1.72s1.54 1.49 1.53 3.51v8c0 2.08-.61 2.27-1.53 1.73M560 54c-1.3-.76-2.59-.74-2.59 2.27v8c0 2.78 1.1 4.29 2.51 5.1s2.57.57 2.58-2.2V59.1c0-3-1.24-4.43-2.5-5.15m10.63 20.51c-1.08-.63-1.56-1.71-1.55-3.47v-8.1c0-2.1.66-2.23 1.55-1.72s1.54 1.49 1.53 3.51v8c0 2.08-.6 2.27-1.53 1.74m.06-14.37c-1.29-.74-2.59-.73-2.59 2.28v8.05c0 2.77 1.1 4.29 2.51 5.1s2.57.57 2.58-2.21v-8.06c0-3-1.23-4.43-2.49-5.16m-29.52 28.41c-1.08-.62-1.57-1.7-1.56-3.46v-8.1c0-2.09.67-2.24 1.55-1.72s1.54 1.49 1.54 3.51v8c0 2.08-.6 2.26-1.52 1.73m.06-14.35c-1.3-.75-2.59-.74-2.59 2.27v8.05c0 2.77 1.1 4.29 2.5 5.1s2.58.57 2.59-2.2v-8.06c0-3-1.23-4.43-2.49-5.16M551.3 80l-.71-.41a3 3 0 0 1-1.93.17v1a4.35 4.35 0 0 0 1.65.22v13.71l1 .57V80.05m8.58 19.21c-1.08-.62-1.56-1.69-1.56-3.45V87.7c0-2.09.67-2.23 1.56-1.72s1.54 1.5 1.53 3.52v8c0 2.08-.61 2.26-1.53 1.72m.11-14.31c-1.31-.75-2.59-.73-2.6 2.27v8c0 2.78 1.09 4.29 2.5 5.11s2.58.56 2.58-2.21v-8.06c0-3-1.24-4.43-2.49-5.16m10.55 20.56c-1.07-.63-1.56-1.7-1.55-3.46v-8.11c0-2.09.67-2.23 1.55-1.72s1.54 1.5 1.53 3.52v8c0 2.07-.6 2.26-1.53 1.73m.06-14.36c-1.29-.75-2.58-.74-2.59 2.27v8c0 2.77 1.1 4.3 2.5 5.11s2.58.56 2.58-2.21v-8.06c0-3-1.24-4.43-2.5-5.16m-30.03 13.84l-.71-.41a3 3 0 0 1-1.93.16v1a4.28 4.28 0 0 0 1.64.22v13.69l1 .58v-15.2m8.59 19.23c-1.08-.62-1.56-1.69-1.56-3.46v-8.1c0-2.09.66-2.24 1.54-1.72s1.55 1.5 1.54 3.51v8c0 2.07-.61 2.26-1.53 1.73m.06-14.35c-1.3-.75-2.59-.74-2.6 2.26v8.06c0 2.77 1.1 4.29 2.51 5.1s2.57.56 2.58-2.2v-8.06c0-3-1.23-4.44-2.49-5.16m10.6 20.54c-1.08-.62-1.56-1.69-1.56-3.46v-8.1c0-2.09.66-2.23 1.55-1.72s1.54 1.5 1.54 3.51v8c0 2.07-.6 2.26-1.53 1.72m.07-14.35c-1.31-.75-2.59-.74-2.6 2.26v8.06c0 2.77 1.09 4.29 2.5 5.11s2.58.56 2.59-2.21v-8.06c0-3-1.23-4.43-2.49-5.16m10.05 5.93l-.7-.41a2.9 2.9 0 0 1-1.94.16v1a4.14 4.14 0 0 0 1.65.22v13.7l1 .57v-15.2M541 150.39c-1.08-.62-1.56-1.7-1.56-3.46v-8.1c0-2.09.66-2.23 1.55-1.72s1.54 1.5 1.53 3.51v8c0 2.08-.6 2.27-1.53 1.73m.07-14.35c-1.31-.76-2.59-.73-2.6 2.27v8.05c0 2.78 1.09 4.29 2.5 5.1s2.58.57 2.59-2.2v-8.07c0-2.95-1.24-4.43-2.49-5.15m10.06 5.92l-.7-.4a3.11 3.11 0 0 1-1.94.16v.95a4.54 4.54 0 0 0 1.65.23v13.69l1 .57v-15.2m8.58 19.28c-1.08-.63-1.56-1.7-1.55-3.47v-8.1c0-2.09.66-2.23 1.55-1.71s1.55 1.5 1.54 3.51v8c0 2.07-.61 2.26-1.54 1.73m.07-14.36c-1.3-.75-2.59-.73-2.6 2.27v8.06c0 2.77 1.09 4.28 2.51 5.1s2.57.56 2.58-2.21v-8.06c0-3-1.23-4.43-2.49-5.16m10.59 20.55c-1.08-.62-1.56-1.7-1.56-3.46v-8.1c0-2.09.66-2.24 1.55-1.72s1.53 1.49 1.53 3.5v8.05c0 2.07-.6 2.26-1.53 1.73m.06-14.36c-1.3-.75-2.59-.73-2.6 2.27v8.06c0 2.77 1.1 4.28 2.51 5.09s2.57.57 2.58-2.2v-8.06c0-3-1.23-4.43-2.49-5.16m-29.51 28.37c-1.08-.62-1.56-1.7-1.55-3.46v-8.1c0-2.1.66-2.23 1.55-1.72s1.54 1.5 1.53 3.51v8c0 2.07-.6 2.27-1.53 1.73M541 167c-1.3-.75-2.59-.73-2.6 2.27v8.06c0 2.77 1.09 4.28 2.5 5.09s2.58.58 2.59-2.2v-8.06c0-3-1.23-4.43-2.49-5.16m10 5.89l-.7-.41a3 3 0 0 1-1.94.16v1a4.56 4.56 0 0 0 1.65.22v13.7l1 .57v-15.2m8.09 4.62l-.71-.41a3.07 3.07 0 0 1-1.93.16v.95a4.35 4.35 0 0 0 1.65.22v13.71l1 .57.05-15.2m8 4.65l-.71-.41a3 3 0 0 1-1.94.16v1a4.54 4.54 0 0 0 1.65.21v13.71l1 .57v-15.2" /></g><path fill="url(#e)" d="M603.61 397.58v15.95l-63.02 36.38v-15.95l63.02-36.38z" /><path fill="url(#a)" d="M540.59 449.91l-147.03-84.89v-15.95l147.03 84.89v15.95z" /><path fill="url(#b)" d="M456.57 304.38l147.04 84.89-63.02 36.39-147.03-84.89 63.01-36.39z" /><path fill="url(#d)" d="M603.61 389.27v8.09l-63.02 36.38v-8.08l63.02-36.39z" /><path fill="url(#c)" d="M540.59 433.74l-147.03-84.89v-8.08l147.03 84.89v8.08z" /><path fill="url(#u)" d="M351.48 194.99v16.43l119.03 68.72v-16.43l-119.03-68.72z" /><path fill="url(#v)" d="M470.51 110.42l-119.03 68.72 119.03 68.72 119.03-68.72-119.03-68.72z" /><path fill="url(#w)" d="M351.48 179.14v16.01l119.03 68.72v-16.01l-119.03-68.72z" /><path fill="url(#x)" d="M470.51 263.87l119.03-68.72v-48.46l-21.01 12.13v32.44l-98.02 56.6v16.01z" /><path fill="url(#y)" d="M568.53 158.82l-70.01-40.43v32.45l70.01 40.42v-32.44z" /><path fill="url(#z)" d="M498.52 118.39l21-12.12 70.02 40.42-21.01 12.13-70.01-40.43z" /><path fill="url(#A)" d="M470.51 280.14v-16.27l119.03-68.72v16.26l-119.03 68.73" /><path d="M379.37 199.18c-1.63-1-3-.19-3 1.7a6.51 6.51 0 0 0 3 5.12c1.64.95 3 .19 3-1.7a6.48 6.48 0 0 0-3-5.12" fill="#fff" /><g fill="none" stroke="#fff" stroke-linecap="round" stroke-linejoin="round"><path d="M379.37 211.79v-1" /><path stroke-dasharray="1.1566048860549927,2.3132097721099854" d="M379.37 208.47v-2.31" /><path d="M379.37 205v-1" /></g><path d="M579.44 180.41c1.64-.94 3-.18 3 1.7a6.53 6.53 0 0 1-2.95 5.12c-1.65 1-3 .19-3-1.69a6.51 6.51 0 0 1 3-5.13" fill="#fff" /><g fill="none" stroke="#fff" stroke-linecap="round" stroke-linejoin="round"><path d="M407.37 308.12l.87-.49" /><path stroke-dasharray="1.9532350301742554,3.9064700603485107" d="M411.63 305.69l49.19-28.1" /><path d="M462.51 276.62l.87-.5.87.5" /><path stroke-dasharray="2.022181749343872,4.044363498687744" d="M467.75 278.64l35.03 20.22" /><path d="M504.53 299.87l.87.5.86-.5" /><path stroke-dasharray="1.9692305326461792,3.9384610652923584" d="M509.67 297.9l115.97-66.95" /><path d="M627.35 229.96l.86-.5-.86-.5" /><path stroke-dasharray="2.092482089996338,4.184964179992676" d="M623.73 226.86l-41.61-24.19" /><path d="M580.31 201.62l-.86-.5v-1" /><path stroke-dasharray="1.7356457710266113,3.4712915420532227" d="M579.44 196.65v-8.68" /><path d="M579.44 186.23v-1" /></g><g><path fill="url(#B)" d="M155.33 291.96l-119.04 68.7 119.02 68.74 119.03-68.7-119.01-68.74z" /><path fill="url(#C)" d="M36.29 361.02v16.21l119.01 68.73.01-16.2-119.02-68.74z" /><path fill="url(#D)" d="M155.3 445.96l119.04-68.7v-16.2l-119.03 68.7-.01 16.2z" /><path fill="url(#E)" d="M155.3 462.17l119.04-68.7v-16.21l-119.03 68.71-.01 16.2z" /><path fill="url(#F)" d="M36.29 377.23v16.2l119.01 68.74.01-16.2-119.02-68.74z" /></g><g><path fill="url(#G)" d="M274.03 304.72v32.34l56.01-32.34v-32.34l-56.01 32.34z" /><path fill="url(#H)" d="M274.03 304.72l-56.01-32.34v32.34l56.01 32.34v-32.34z" /><path fill="url(#I)" d="M274.03 240.04v64.68l56.01-32.34V207.7l-56.01 32.34z" /><path fill="url(#J)" d="M274.03 240.04l-56.02-32.34.01 64.68 56.01 32.34v-64.68z" /><path fill="url(#K)" d="M274.03 175.36l-56.02 32.34 56.02 32.34 56.01-32.34-56.01-32.34z" /><path fill="url(#r)" d="M274.02 221.61v-27.55l23.86 13.79-23.86 13.76z" /><path fill="url(#s)" d="M274.02 194.06v27.55l-23.86-13.79 23.86-13.76z" /><path fill="url(#f)" d="M274.03 162.28l-56.02 32.34 56.02 32.34 56.01-32.34-56.01-32.34z" /><path fill="url(#L)" d="M274.03 148.92l-56.02 32.34 56.02 32.34 56.01-32.34-56.01-32.34z" /><path fill="url(#M)" d="M274.03 135.31l-56.02 32.34 56.02 32.34 56.01-32.34-56.01-32.34z" /><path fill="url(#N)" d="M297.88 125.17h-47.72v82.65l23.86 13.79 23.86-13.76v-82.68z" /><path fill="url(#O)" d="M246.55 142.89L261 119.51l27.48.82-14.45 23.38-27.48-.82z" /><path fill="url(#P)" d="M274.03 143.71l-27.48-.82 13.01 24.17 27.48.82-13.01-24.17z" /><path fill="url(#Q)" d="M288.48 120.33l-14.45 23.38 13.01 24.17 14.46-23.35-13.02-24.2z" /><g><path d="M246 267.84c-1.64-.94-3-.18-3 1.7a6.54 6.54 0 0 0 3 5.12c1.64.95 3 .19 3-1.69a6.51 6.51 0 0 0-3-5.13" fill="#fff" /><g fill="none" stroke="#fff" stroke-linecap="round" stroke-linejoin="round"><path d="M246.02 288.55v-1" /><path stroke-dasharray="1.735646367073059,3.471292734146118" d="M246.02 284.08v-8.68" /><path d="M246.02 273.66v-1" /></g></g><g><path d="M302 267.84c1.64-.94 3-.18 3 1.7a6.53 6.53 0 0 1-2.95 5.12c-1.65.95-3 .19-3-1.69a6.51 6.51 0 0 1 3-5.13" fill="#fff" /><g fill="none" stroke="#fff" stroke-linecap="round" stroke-linejoin="round"><path d="M302.03 288.55v-1" /><path stroke-dasharray="1.735646367073059,3.471292734146118" d="M302.03 284.08v-8.68" /><path d="M302.03 273.66v-1" /></g></g></g><g><path fill="#fff" opacity=".3" d="M24.53 261.72l.2 66.86 79.92-46.03-.2-66.87-79.92 46.04z" /><path fill="#fff" d="M93.88 255.04l.12 41.52 45.59-26.19-.12-41.52-45.59 26.19zm-61.33 56.94l.11 38.7 35.73-20.89-.11-38.7-35.73 20.89z" opacity=".4" /><path d="M62.12 323v2.18l-2.07 1.19a29.66 29.66 0 0 1-3.72 6.25l5.8-3.35v2.17l3.65-6.34-3.66-2.1m-20.47-11.71a9.25 9.25 0 0 0-1.42 1 12.39 12.39 0 0 0-3.23 4.83 8.26 8.26 0 0 0-.5 5 2.81 2.81 0 0 0 2.5 2.26 4.14 4.14 0 0 0 1.73-.27 18.53 18.53 0 0 0-1.17 6.19v.6l-1.84 1.57 4.44.56 2.7-6.66-1.75 1.5A15.16 15.16 0 0 1 50 316.43c3.78-2.18 6.86-.42 6.87 3.92A15.07 15.07 0 0 1 50 332.16l-11 6.37v4.08l11-6.36c5.73-3.31 10.38-11.36 10.36-18s-4.69-9.25-10.43-5.94a20.26 20.26 0 0 0-6.47 6.35c-.12.15-.24.29-.34.43a4.87 4.87 0 0 1-1.46 1.36 2.3 2.3 0 0 1-1.3.36 1.37 1.37 0 0 1-1.23-1.12 4 4 0 0 1 .24-2.43A6.22 6.22 0 0 1 41 315a4.28 4.28 0 0 1 .69-.5 2.32 2.32 0 0 1 1.3-.36 1.52 1.52 0 0 1 .61.2l-1.18 1.63 4-1.49.58-4.98-1.21 1.68a2.57 2.57 0 0 0-1.51-.6 4.66 4.66 0 0 0-2.66.71" fill="#fff" /><path opacity=".1" d="M113.93 224.59L73.77 247.5l.06 46.28 40.16-22.92-.06-46.27z" /><path fill="#fff" d="M120.22 234.69l.08 27.28 23.74-13.71-.07-27.28-23.75 13.71z" /><path d="M129 247l-2.43 4.21c1.37.87 3.29.81 5.42-.34v-4a2.88 2.88 0 0 1-2.99.13z" fill="#002d42" /><path d="M132.2 232.81a17.17 17.17 0 0 0-7.79 13.48c0 2.39.83 4.09 2.17 4.93L129 247a3.11 3.11 0 0 1-1.15-2.71 9.57 9.57 0 0 1 4.35-7.53c2.28-1.32 4.15-.39 4.35 2.06l3.45-2c-.21-4.61-3.62-6.43-7.8-4.01z" fill="#517fa2" /><path d="M136.58 239.26a9.54 9.54 0 0 1-4.35 7.53l-.24.13v4l.25-.13a17.16 17.16 0 0 0 7.76-13.52v-.43l-3.45 2c.02.16.03.27.03.42z" fill="#ff836e" /><path d="M66.7 247.24v10.18l11.53-6.26-.55-1-9.83 5.33v-9a6.43 6.43 0 0 0 2.15-4.44c0-1.84-1.31-2.58-2.9-1.65a6.34 6.34 0 0 0-2.88 5c.05 1.6 1.11 2.38 2.48 1.84z" fill="#fff" opacity=".6" /><path d="M35.45 270.65a6.45 6.45 0 0 0 2.79-4.16l21.1-12.26v16l20.56-11.05-.56-1-18.84 10.11v-16l-22.22 12.87c-.23-1.45-1.42-2-2.85-1.15a6.33 6.33 0 0 0-2.88 5c0 1.82 1.3 2.56 2.9 1.64zM50.76 279v15.29l27.34-16.18-.58-1-25.6 15.09v-13.91a6.46 6.46 0 0 0 2.31-4.59c0-1.83-1.3-2.57-2.9-1.65a6.37 6.37 0 0 0-2.88 5c.01 1.58 1 2.35 2.31 1.95zm72.74-13.2a6.36 6.36 0 0 0-2.82 4.29l-18.6 10.73.28-29.71h-1.16l-.29 31.73 19.77-11.41c.27 1.36 1.43 1.84 2.82 1a6.32 6.32 0 0 0 2.87-5c0-1.79-1.28-2.55-2.87-1.63z" fill="#fff" opacity=".6" /><path d="M62.54 274a6.34 6.34 0 0 0-2.88 5c0 1.83 1.3 2.57 2.9 1.65a6.45 6.45 0 0 0 2.79-4.16l14.32-7.53-.53-1-13.75 7.23c-.23-1.52-1.39-2.04-2.85-1.19z" fill="#fff" opacity=".6" /><path fill="#fff" d="M75.86 240.72l.06 46.28 40.16-22.92-.06-46.28-40.16 22.92z" /><path fill="#517fa2" d="M79.62 242.2l.05 26.73 32.64-18.64-.04-26.72-32.65 18.63z" /><g fill="#92b3cb"><g style="isolation:isolate"><path d="M101.31 241.26c-1.19 3.63-2.41 7.39-4.46 8.57-2.21 1.28-2.84-.3-3.5-2s-1.28-3.24-3.44-2c-2 1.16-3 4.24-3.84 7-.58 1.85-1.14 3.6-1.91 4.38l-.24.2-.1.06c-.72.42-1.63.07-2.76-1.06l-.24.34a3.42 3.42 0 0 0 2.25 1.25 1.55 1.55 0 0 0 .79-.23l.09-.06.21-.16a3 3 0 0 0 .34-.37 15.07 15.07 0 0 0 1.84-4.39c.83-2.6 1.76-5.55 3.58-6.59s2.53.35 3.15 1.92 1.17 3 2.88 2.45a4.92 4.92 0 0 0 .9-.41 4.37 4.37 0 0 0 .72-.52c1.8-1.64 2.92-5.07 4-8.4.18-.53.35-1.07.53-1.59h-.27c-.17.54-.35 1.07-.52 1.61z" /><path d="M97.57 249.65a4.37 4.37 0 0 1-.72.52 4.92 4.92 0 0 1-.9.41l-11.45 6.61a3 3 0 0 1-.34.37v.17l18-10.41V247z" /><path d="M84.16 257.56l-.21.16-.09.06v5.17l.29-.17v-5.22zm-.34.25a1.56 1.56 0 0 1-.75.2l-1.43.83v.34l2.22-1.28v-.12z" /></g><path d="M83.83 245v12.42h.06l.24-.2v-12.35z" /></g><path d="M103.24 259.42L99 261.89a1.81 1.81 0 0 0-.83 1.43v4.9c0 .53.38.74.83.48l4.27-2.47a1.81 1.81 0 0 0 .83-1.43v-4.9c-.03-.53-.4-.74-.86-.48z" fill="#ff836e" /><path d="M94.17 264.79l-4.27 2.46a1.82 1.82 0 0 0-.83 1.43v4.91c0 .52.37.73.83.47l4.27-2.46a1.8 1.8 0 0 0 .82-1.44v-4.9c.01-.53-.36-.74-.82-.47z" fill="#d5e0ee" /><path d="M85.09 270.15l-4.26 2.46A1.84 1.84 0 0 0 80 274v5c0 .52.38.74.84.47l4.27-2.47a1.84 1.84 0 0 0 .83-1.43v-4.91c-.02-.56-.39-.78-.85-.51z" fill="#ffec83" /><g><path d="M113.31 311.23l13.36-7.53 1.34.43 2.3 19.77 14.92 8.65a1.79 1.79 0 0 1 .27.8c.08 1.42-.37 1.8-.37 1.8a56.33 56.33 0 0 1-7 4.58c-3.6 2.12-7.07 3.79-8.4 4.42a1.25 1.25 0 0 1-1.13 0l-14.67-8.19-2.25-1.38z" fill="#0071bc" /><path d="M151.41 359.63c-.31-.42-1.55-1-2.64-2.1a23.09 23.09 0 0 1-2.48-3s-1.54-20.58-1.74-21.06a4.14 4.14 0 0 0-2.65-3.63 90.15 90.15 0 0 1-9.78-5.86L122 323s-4.26 5.53-2.63 7.92 13.92 7.58 13.92 7.58a35.17 35.17 0 0 0-.18 7c.1 1.71.68 4.19 1 6.52.45 3.06.88 6 1 6.89a11.1 11.1 0 0 0-.41 1.68c-.1.73 1 1.46 1.36 1.71s1.23 2.17 2.19 2.63c1.86.87 2.61.12 2.47-.6a31.33 31.33 0 0 0-1.93-2.76c-.22-.4-.91-1.86-1.26-2.61.1-2.54.77-21.34.66-21.81s.15-1.47-2.13-3.39c2.15 1.15 3.8 2 3.8 2a30.8 30.8 0 0 0 .83 6.93c.31 1.45.85 3.74 1.36 5.5 1 3.45 1.8 6.82 1.8 6.82.1.49-.58 2.14-.48 2.44s.83.73 2.48 1c1 .18 1.17 1.56 2.92 1.85s2.86-.38 2.64-.67z" fill="#ffac84" /><path d="M132.89 324.37l8.14 4.87a85.43 85.43 0 0 0-8.43 4.53c-3.14 2.31-1.9 4.14-1.9 4.14s-9.89-4-10.81-7.3a9.65 9.65 0 0 1 .86-6.52z" fill="#e84118" /><path d="M146.24 357.7c.08 0 .81.41 1.1.55a6.13 6.13 0 0 0 2.73.34 4.71 4.71 0 0 1 1.34 1c.22.29-.83.92-2.59.63s-1.89-1.67-2.92-1.85c-1.65-.29-2.39-.73-2.48-1a3.8 3.8 0 0 1 .25-1.17s.14 1.04 2.57 1.5zm-11.31 2c0 .57 1.15 1.66 1.82 2.36 1.53 1.62 1.95 1.6 3.31 1.18a3.44 3.44 0 0 1 .76 1.2c.24.72-.52 1.54-2.37.66-1-.45-2.17-2.43-2.5-2.75-.83-.79-1.34-1.05-1.24-1.78a2.82 2.82 0 0 1 .22-.87z" fill="#d95e62" /><path fill="url(#g)" d="M257.11 351.17l-49.22-28.49-72.36 41.61h-25.19v4.34h24.96l33.79 19.63h-16.64v4.34h24.11l4.22 2.45 76.33-43.88z" /><path d="M149.41 368.47l.09 22.59a1.31 1.31 0 0 0 .77 1.09 4.14 4.14 0 0 0 3.77 0 1.32 1.32 0 0 0 .78-1.09l-.09-22.59zM203.9 334l.08 22.59a1.34 1.34 0 0 0 .78 1.09 4.14 4.14 0 0 0 3.77 0 1.32 1.32 0 0 0 .78-1.09l-.09-22.6zM108 344.51l.09 22.59a1.32 1.32 0 0 0 .77 1.08 4.11 4.11 0 0 0 3.77 0 1.32 1.32 0 0 0 .79-1.09l-.09-22.6z" fill="#002d42" /><path fill="url(#R)" d="M148.82 369.17l-45.64-26.34v2.02l49.14 28.36v-2.02l-3.5-2.02z" /><path fill="url(#S)" d="M215.2 334.77v2.03l-62.88 36.41v-2.02l62.88-36.42z" /><path fill="url(#T)" d="M215.2 334.77l-49.01-28.33-63.01 36.39 49.14 28.36 62.88-36.42z" /><path d="M149.38 319.83l-.68-.65a.61.61 0 0 0 .38-.22l-.85-.9-1.17-.86-3.55-.28-8.71-2.29s-2.38-5.28-4-9.31a8.82 8.82 0 0 1-3 1.95 33.06 33.06 0 0 0 5.39 9.74 10.6 10.6 0 0 0 3.22 1c1.66.26 7 .64 7 .64s.54.94 1 1.1 1.82 1 1.82 1 .32-.33-.13-.65-1.08-.88-1.08-1 1.24.1 1.24.1l.73.4.39 1s.23.32.53.19l-.27-1.17.24.16.65.7s.33.35.62.07l-.39-.65a.44.44 0 0 0 .62-.07z" fill="#ffac84" /><path d="M129 302.28a1.82 1.82 0 0 1 .76.17s.67.14 1 1.25c.12.48-.1 1.19.07 1.91l.95 2.42.95 2.74a3.19 3.19 0 0 1-.95 3.37l-.57 4.23 1.68 6s-7.8 4.44-12.67.63l1.44-5a121.55 121.55 0 0 0-.67-12.43s-2.28-.43-1.76-1.29c2.77-4.61 7.77-4.17 9.77-4z" fill="#d1e7f4" /><path d="M127.82 302.9a8.39 8.39 0 0 0-.09-2.85l-3.8.41a5 5 0 0 1-.68 2.57s0 1.2 2.27 1.91c1.9.6 2.58-.21 2.79-.59a1.63 1.63 0 0 0-.49-1.45z" fill="#e89d78" /><path d="M129.51 298.82c0 2.09-.87 4.11-2.89 3.57 0 0-3.45-1-3.89-3.22l-.57-3.86 7.13-1.28z" fill="#ffac84" /><path d="M125.57 291.19c5.1 0 4.28 4.23 4.28 4.23a8.66 8.66 0 0 1-6.09 1.58l.16 4.13a4.56 4.56 0 0 1-.53 1.64l-3.09 2s.2-7.28.25-8.27.45-5.31 5.02-5.31z" fill="#ffd22e" /><path d="M119.09 306.69a.83.83 0 0 1 .41-.74c2.09-1.18 3.65 1.45 3.78 2s1.42 10.83 1.42 10.83c.71 2.56 2.84 7.78 2.84 7.78l2 2 1 2.49s-.15.22-.75-.45l-.54-1.07.17 1.47.44.85.19.32c.2.29-.13.49-.41.3-.09-.06-.62-.34-.62-.34l-1-.26-.86-.94-1.06-2.87c-1.16-2.29-3.62-6.61-3.89-7.23l-.66-1.5s-1.36-5.07-2-8.44a27.11 27.11 0 0 1-.46-4.2z" fill="#ffac84" /><path fill="url(#U)" d="M188.6 335.12l-36.07 20.83-24.65-14.32 36.06-20.83 24.66 14.32z" /><g opacity=".4"><path d="M174.9 328.82c-8.56-4.94-22.38-4.94-30.89 0s-8.44 12.94.11 17.88 22.38 5 30.88 0 8.46-13-.1-17.9" fill="#ff9" /></g><g opacity=".3"><path d="M166.25 333.85a14.9 14.9 0 0 0-13.53 0c-3.72 2.16-3.7 5.67.05 7.84a14.94 14.94 0 0 0 13.53 0c3.73-2.17 3.7-5.68-.05-7.84" /></g><g><path d="M176.94 330.54s-1.75-.37-2.32 0-1.88.9-1.87.93c.14.63 1.14.08 1.6.09s.49.62.32 1.09l-1 .26c-.7.19-1.47 0-1.94.1s-.05.38.4.54a9.73 9.73 0 0 0 1.19.22l.33.15a13.58 13.58 0 0 0 1.93.16 7.11 7.11 0 0 0 2.29-1.54c.13-.19 1.59.26 2-.16s-.85-1.69-.85-1.69z" fill="#fcb698" /><path d="M206.44 326.33c-.67 4.23-9.68 3.06-9.68 3.06l8.62-12.59s1.74 5.31 1.06 9.53z" fill="#57547f" /><path d="M188.27 375.24l3.16.11 5.08 1.08.08 2.42c-.72 1.6-2.74 1-2.74 1l-6.73-2.25a1.37 1.37 0 0 1 1.15-2.36zm7.24-3.37l3.54.12 4.64 1.08.07 2.36c-.68 1.52-2.93.81-2.93.81l-6.41-2.14c-1.1-.48-.11-2.27 1.09-2.23z" fill="#512b00" /><path d="M192.44 335.72l11.78-2.81a68.27 68.27 0 0 1 1.25 6.83 75.25 75.25 0 0 1-.88 8.51c-.45 4.05-1.1 10.25-1.1 10.25l.34 14.72a3.45 3.45 0 0 1-3 .59c-.77-.15-1.56-.6-1.58-1.38l-1.34-13.33.92-9.87-2.35 12.37.08 15.33a4.84 4.84 0 0 1-3.33.19 1.65 1.65 0 0 1-1.33-1.68l-.5-13.2 1.36-21z" fill="#ceab8b" /><path d="M195.74 315.17c2.14-1.76 7.3-.61 7.3-.61s1.55-.23 2.32 2.07c.71 2.13-.27 13.32-.1 15.25s.22 7.46.22 7.46-1.93 1.38-9.38 1.39c-2.86 0-3.55-1.06-3.55-1.06l-.55-11.89-.86-7.84a33 33 0 0 1 4.6-4.77z" fill="#57547f" /><path d="M200.9 307.55l-.67 3.59a2.16 2.16 0 0 1-.87 1.46l.28 2.65c-.22 1.28-4.66 1-4.44-.26l-.08-1.36a2.56 2.56 0 0 1-1.68-2.81l-.09-4.65z" fill="#fcb698" /><path d="M195.65 303.45c1.13-.4 5-.24 5.49 2.54a8 8 0 0 1-1.69 7s-1.58 1-2.4.27c-1.13-1-2.62-2.69-2.51-4.21s-.83-1.84-.83-1.84c-2.24-1.81.29-3.21 1.94-3.76z" fill="#81524f" /><path d="M195.32 309.16c.05.87-.27 1.59-.95 1.22l.13-1.66s.77-.72.82.44z" fill="#fcb698" /><path d="M199.59 313.56l.59.52c.24.39.1.56-.16.93-1.11 1.6-4.13 2.09-5.2.95l.18-.96c1.5.38 4.38-.09 4.59-1.44z" fill="#fff" /><path d="M187.2 327.71l3.92-7.77c4.42-3.14 3.58 3.88 3.58 3.88s-4.47 7.56-5.6 8.14-11 .77-11 .77l.29-2.34a59.8 59.8 0 0 0 8.81-2.68z" fill="#57547f" /></g><g><path d="M119.26 380.31v2a.37.37 0 0 1-.2.29 1.12 1.12 0 0 1-1 0 .36.36 0 0 1-.21-.29v-17.67a7.9 7.9 0 0 0 1.42-.86z" fill="#002d42" /><path d="M131.14 385.17a25 25 0 0 0 4 .46c1.23 0 2.58 1.19 1.36 1.85-1.57.85-6.86 2-6.86 2s-1.65.45-2.43-.66a1.06 1.06 0 0 1-.18-.71l.13-2zm-12.56-2.62l3.7-.69a35.69 35.69 0 0 0 3.79.28c1.19 0 2.15 1.37 1 1.82l-6.07 1.92s-1.93.54-2.73-.59a.83.83 0 0 1-.11-.6z" fill="#1b1464" /><path d="M128.06 373.22l6.23-3-2.88 15.16c0 .61-.31 1.21-1.47 1.52a2.85 2.85 0 0 1-2.8-.48zm1.02-5.29l-6.77 14c0 .81-.89 1.34-1.69 1.45-1.74.23-2.17-.72-2.17-.72l5.55-14.09c.22.05 3.6-.47 5.08-.64z" fill="#233554" /><path d="M108.05 386.55v2a.35.35 0 0 1-.2.29 1.12 1.12 0 0 1-1 0 .35.35 0 0 1-.21-.29v-17.68A8.89 8.89 0 0 0 108 370z" fill="#002d42" /><path d="M106.67 368.6l10.26-5.92a7.14 7.14 0 0 1 6.49 0l10.19 5.92c1.79 1 1.78 2.72 0 3.76l-10.26 5.92a7.14 7.14 0 0 1-6.49 0l-10.19-5.92c-1.81-1.04-1.8-2.72 0-3.76z" fill="#0071bc" /><path d="M125.4 360.52c1.84.77 2.14 1.24 2.07 2 0 .55.24-.35 3.62.36 3 .62 4.21 2.14 4.12 3.44l-.59 3.05c-1.21-1.1-2.62-1.45-3.6-.84-2.59 1.6-7.79 4.29-8.93 5a3.25 3.25 0 0 1-3.45.23c-2.73-1.06-5.06-3.07-7.54-4.58-.89-.54-1.75-1.12-2.66-1.62l8.49-4.9c1.12-.66 3.84-4.08 8.47-2.14z" fill="#233554" /><path d="M111.84 335.25s4.41-1.75 7.42-.75c1.23.42.66.62 3 1.78a15.43 15.43 0 0 1 2.94 1.8s-.88 9.41-1.34 12.8a51.86 51.86 0 0 0-.26 12.14 3.58 3.58 0 0 1-3.79 2.64c-3.81 0-9.66-2.43-9.66-2.43a66.67 66.67 0 0 0-1-6.89c-1.1-4.42-.76-15.44-.29-18a3.8 3.8 0 0 1 2.98-3.09z" fill="#3a8c8a" /><path d="M120.23 330.84l-.16 4c0 1.48-5.07.93-5.07-.56l.25-3.46z" fill="#8f644d" /><path d="M115 333.38c.46 1.51 3.38 1.59 5 1l.77.81c-1 1.46-4.08 1.38-5.71.36-.44-.27-1-.7-.78-1.18z" fill="#fff" /><path d="M121.4 330.23c-.4 2.46-1.12 3-3.29 3.17 0 0-4.24-.18-4.38-2.43l-.71-4.13 8.85-1.72z" fill="#8f644d" /><path d="M119.1 322.23c1.83.67 4.76 2.31 2.16 4.36 0 0-.55.55-.44 2.31s-1.66 3.36-3 4.53c-1 .85-3.27-.31-3.27-.31s-2.83-2.85-1.82-8.07c.65-3.17 5.08-3.3 6.37-2.82z" fill="#002d42" /><path d="M121 329l-.35 1.65c-.65.42-.58-.77-.53-1.76.08-1.34.88.11.88.11z" fill="#8f644d" /><path d="M110 348.46l6.87 4.08a5.2 5.2 0 0 1 2.55 4.16l2.05 22.3-16.19-8.46.23-19.7a3 3 0 0 1 4.49-2.38z" fill="#0071bc" /><path d="M118 377a4 4 0 0 0 3.69.06l13.21-6.6a2.28 2.28 0 0 1-1.35 1.9l-10.26 5.92a7.14 7.14 0 0 1-6.49 0l-10.19-5.92a2.1 2.1 0 0 1-1.29-2.24s8.83 4.77 12.68 6.88z" fill="#002d42" /><path d="M141.39 334.4s.92-1.53 1.58-1.7 1.94-.76 2-.73c.36.53-.72.89-1 1.23s.12.78.57 1l.89-.57c.61-.38 1-1.11 1.39-1.35s.32.22.12.66a8.11 8.11 0 0 1-.65 1 2.68 2.68 0 0 1-.11.35 14.2 14.2 0 0 1-1.2 1.51 7.14 7.14 0 0 1-2.69.63c-.23 0-.9 1.34-1.48 1.34s-.65-1.77-.65-1.77z" fill="#8f644d" /><path d="M142.28 337s-.48-3-2.3-1.87c-2.74 1.68-6.25 4-6.43 4.14-1.59-.21-6-.81-7.79-1.22-1.51-.33-5.47-1.58-6.16.6-.85 2.75 2.44 5.05 2.44 5.05s8 .8 12 0a5 5 0 0 0 1.25-.59c1.71-1.44 6.99-6.11 6.99-6.11z" fill="#3a8c8a" /><path d="M133 388.68v2a.37.37 0 0 1-.2.29 1.12 1.12 0 0 1-1 0 .37.37 0 0 1-.21-.3V373a10.32 10.32 0 0 0 1.42-.86zm-11.53 5.58v2a.36.36 0 0 1-.21.29 1.1 1.1 0 0 1-1 0 .36.36 0 0 1-.21-.3v-17.67a9 9 0 0 0 1.43-.86z" fill="#002d42" /></g><g><path d="M158.43 274.14h1.08c9.12 0 16.53 7 16.53 15.69a15.08 15.08 0 0 1-2.12 7.7 41.22 41.22 0 0 0-4.64 10.74c-.33 1.25-.67 2.52-1 3.78.13 1.7-.93 3.33-2.89 4.41a12.37 12.37 0 0 1-5.84 1.36 12.37 12.37 0 0 1-5.86-1.36 5.07 5.07 0 0 1-2.9-3.78v-.08c-.35-1.38-.69-2.75-1-4.08a41.3 41.3 0 0 0-4.66-11.06 15.08 15.08 0 0 1-2.07-8.34c.31-7.92 7.09-14.48 15.37-14.98z" fill="#fff" opacity=".4" /><path d="M161.93 322.13a2.21 2.21 0 0 1-2.2 2.2h-.58a2.2 2.2 0 0 1-2.2-2.2v-.51h5z" fill="#4d4d4d" /><path d="M166.19 314.21a3.5 3.5 0 0 0-2-2.54 10.44 10.44 0 0 0-9.46 0 3.45 3.45 0 0 0-1.93 2.54h-.05v4.61a3.41 3.41 0 0 0 2 2.64 10.38 10.38 0 0 0 9.46 0 3.36 3.36 0 0 0 1.94-2.64v-4.61z" fill="#4d4d4d" /><path d="M158.62 276.93a13.69 13.69 0 0 1 12.82 20.37 43.12 43.12 0 0 0-4.44 10.83c-.32 1.29-.65 2.62-1 3.94.19 1.08-.43 2.21-1.86 3a10.13 10.13 0 0 1-9.22 0 3.21 3.21 0 0 1-1.92-2.77c-.32-1.33-.64-2.66-.94-3.95a42.86 42.86 0 0 0-4.46-11.15 13.69 13.69 0 0 1 11.07-20.31z" fill="#ffe745" opacity=".8" /><path d="M158.7 278.29a11.5 11.5 0 0 1 8.43 2.89 19.94 19.94 0 0 0-8.62 9.24c-2.1 4.56-2.44 9.92-2.41 14.92a14.38 14.38 0 0 0 2.28 8.43 7.45 7.45 0 0 1-2.89-.93 2.93 2.93 0 0 1-1.66-2.51c-.28-1.21-.56-2.41-.82-3.58a40.08 40.08 0 0 0-3.86-10.09 12.8 12.8 0 0 1-1.48-6.58 12.19 12.19 0 0 1 11.03-11.79z" fill="#fff" opacity=".5" /><circle cx="159.51" cy="289.12" r="22" transform="rotate(-45 159.52 289.125)" fill="#fff" opacity=".3" /></g></g></g><g><path fill="url(#V)" d="M365.36 356.89l-49.01 28.3 49 28.44 49.03-28.34-49.02-28.4z" /><path fill="url(#W)" d="M316.35 385.19v8.12l49 28.43v-8.11l-49-28.44z" /><path fill="url(#X)" d="M365.35 421.74l49.02-28.34.01-8.11-49.03 28.34v8.11z" /><path fill="url(#Y)" d="M365.35 437.85l49.02-28.29.01-16.16-49.03 28.35v16.1z" /><path fill="url(#Z)" d="M316.35 393.31v16.13l49 28.41v-16.1l-49-28.44z" /><path fill="url(#aa)" d="M364.9 393.48h35.32l14.16-8.19-11.49-6.85H364.9v15.04z" /><path d="M382.58 367c-.54 2-2.16 4-4.86 5.54-6.79 3.92-17.83 3.9-24.65 0-2.7-1.56-4.33-3.49-4.91-5.5l5.27 20.53a6.79 6.79 0 0 0 3.43 3.9c4.73 2.73 12.38 2.74 17.08 0a6.49 6.49 0 0 0 3.43-4.11z" fill="url(#ab)" /><path d="M377.64 358.3c-6.83-3.94-17.87-4-24.65-.05-3.38 2-5.07 4.52-5.07 7.09 0 2.57 1.74 5.14 5.15 7.11 6.82 3.94 17.86 4 24.65 0 3.36-1.94 5-4.49 5.06-7v-.12c-.04-2.52-1.78-5.08-5.14-7.03z" fill="gray" /><path d="M379.81 365.47c0 2.12-1.41 4.23-4.2 5.85-5.63 3.25-14.79 3.23-20.45 0-2.83-1.63-4.25-3.77-4.27-5.9 0-2.13 1.4-4.26 4.2-5.88 5.63-3.25 14.79-3.24 20.46 0 2.81 1.62 4.23 3.74 4.26 5.86z" fill="#603813" /><path d="M386.93 357.19c-3.37-2-7.64-3.54-11.59-3-4.3.58-7.09 4-8.44 7.92 0-.26-.08-.52-.13-.78a35.9 35.9 0 0 1 2-6.73c.41-1 .9-2 1.4-2.93a22.71 22.71 0 0 1 8.2-8.65 23.08 23.08 0 0 1 5.45-2.35l-.72-2.38A24.78 24.78 0 0 0 373 345a29 29 0 0 0-4.7 7.63 29.51 29.51 0 0 0-2 7c-.14-.53-.36-1.06-.45-1.61a5.31 5.31 0 0 1 0-1.38c.1-1 .21-2 .37-3a50.22 50.22 0 0 1 1.44-6.08 47.19 47.19 0 0 1 4.71-10.17l-2.19-1.17a67.69 67.69 0 0 0-3.13 7.34 43.65 43.65 0 0 0-2 9.72 15.83 15.83 0 0 0-4.84-8.24 17.68 17.68 0 0 0-7.89-3.48l-.42 2.44a13.15 13.15 0 0 1 12.27 10.62 10.4 10.4 0 0 0-6.87-4.81c-2.76-.46-5.36.52-7.75 1.78l1.24 2.15c2.35-1.49 5-2.62 7.79-1.78s5 3.55 6.3 6.21c0 2.7.26 5.39.55 8.07h1.68a18.17 18.17 0 0 0 0-2.66c1.53-4.13 4.51-8.08 9.37-7.86 3.88.18 7.32 2.24 10.47 4.33l1.3-2.12z" fill="#16a542" /><g><path d="M368.91 350.45c6.83-2.45 1.79-23.57-10.88-25.06 3 7.94-2.6 27.08 4.26 30.93 5.77 3.24 6.62-5.87 6.62-5.87z" fill="#16a542" /><path d="M368.91 350.45c6.83-2.45 1.79-23.57-10.88-25.06 7.62 6.88 10.61 15.79 10.88 25.06z" fill="#007a3a" /><path d="M367.66 337.6c2.72-11.06 17.13-11.43 19.6-11.05-7.67 2.74-10.17 12.22-13.48 14.4-2.18 1.43-6.58 2.49-6.12-3.35z" fill="#16a542" /><path d="M368 340.57c-.23-7.66 9.61-13.47 19.24-14-7.67 2.74-10.17 12.22-13.48 14.4-1.67 1.09-4.68 1.97-5.76-.4z" fill="#007a3a" /><path d="M358.84 342.61c1.91-3.17-8.42-17.31-33.37.41 11.4-1.23 18.55 5.24 26.59 7.2 6.1 1.48 10.79-.22 6.78-7.61z" fill="#16a542" /><path d="M358.84 342.61c1.91-3.17-8.42-17.31-33.37.41 7.81-3.46 23.34-8.02 33.37-.41z" fill="#007a3a" /><path d="M373.8 344.74c-2.89-2.31 1.88-19.16 31.43-11.22-11.11 2.81-15.57 11.37-22.43 16-5.2 3.48-10.2 3.48-9-4.78z" fill="#16a542" /><path d="M405.23 333.52c-16-2.06-27.45 5.51-31.43 11.22-1.2 8.3 3.8 8.28 9 4.78 6.86-4.63 11.32-13.19 22.43-16z" fill="#007a3a" /><path d="M366.39 358.61c-5.76-4.95-13.71 1.14-11.84 9.52 1.66 7.42 9.42 10.32 9.31 14.6.8-4.34 8.55-8.28 11.25-15.16 2.89-7.38-2.41-13.28-8.72-8.96z" fill="#16a542" /><path d="M354.55 368.13c1.58 7.05 8.66 10 9.27 14-.4-6.37.41-19.12 2.57-23.5-5.76-4.97-13.71 1.12-11.84 9.5z" fill="#007a3a" /><path d="M356.06 349.42c-4.63-8.94-23.52 2.95-20.78 20.95 6.73-6.05 27.21-2.62 28.69-13.06 1.24-8.8-7.91-7.89-7.91-7.89z" fill="#16a542" /><path d="M356.06 349.42c-4.63-8.94-23.52 2.95-20.78 20.95 4.17-12.21 11.86-18.43 20.78-20.95z" fill="#007a3a" /><g><path d="M381 352.7c3.58-9.22 23.28.39 22.52 18.25-7.21-5.19-26.85.33-29.4-9.71-2.2-8.47 6.88-8.54 6.88-8.54z" fill="#16a542" /><path d="M374.07 361.24c2.55 10 22.19 4.52 29.4 9.71-2-6.3-13-16.78-22.52-18.25.05 0-9.03.07-6.88 8.54z" fill="#007a3a" /></g></g></g><g><path d="M197.75 61.94c-12.88 7.44-23.32 25.3-23.61 40.2-10.25 5.91-18.52 20.24-18.49 32s8.37 16.5 18.6 10.59l65.68-37.92c8.83-5.09 16-17.44 15.93-27.58 0-9.88-6.85-14-15.36-9.5a22.11 22.11 0 0 0 .35-3.84c0-9-6.42-12.68-14.29-8.13a26.56 26.56 0 0 0-7.56 6.95c-4-6.64-12-8.11-21.25-2.77z" fill="url(#h)" /><path d="M356.78 50.29c-5.23 3-9.47 10.27-9.59 16.33a16.54 16.54 0 0 0-7.51 13c0 4.78 3.4 6.7 7.56 4.3l26.69-15.41a14.28 14.28 0 0 0 6.47-11.21c0-4-2.78-5.69-6.24-3.86a9.3 9.3 0 0 0 .14-1.55c0-3.68-2.61-5.16-5.81-3.31a10.65 10.65 0 0 0-3.09 2.82c-1.59-2.69-4.86-3.29-8.62-1.11z" fill="url(#ac)" /><path d="M410.88 49.4c-6.34 3.66-11.48 12.45-11.62 19.79-5.05 2.91-9.12 10-9.11 15.76s4.12 8.12 9.16 5.21l32.33-18.67c4.35-2.5 7.86-8.58 7.84-13.57s-3.37-6.9-7.56-4.68a11.16 11.16 0 0 0 .17-1.89c0-4.45-3.16-6.24-7-4a13.21 13.21 0 0 0-3.75 3.41c-1.96-3.26-5.91-3.99-10.46-1.36z" fill="url(#ad)" /><path fill="url(#ae)" d="M482.03 143.23h45.99l-29.17-16.28-16.82 16.28z" /><path fill="#1d78a3" d="M470.03 43.06L448.8 54.98l33.23 19.19 21.22-12.19-33.22-18.92z" /><path fill="#002d42" d="M482.03 74.17v69.06l21.22-12.19V61.98l-21.22 12.19z" /><path fill="#186285" d="M482.03 74.17L448.8 54.98v69.07l33.23 19.18V74.17z" /><path d="M478.85 83.78l-26.58-15.35c-1-.61-1.9-.12-1.9 1.08l-.14 50.29a4.13 4.13 0 0 0 1.88 3.27l26.59 15.35c1 .61 1.89.12 1.9-1.08l.14-50.29a4.14 4.14 0 0 0-1.89-3.27z" fill="#002d42" /><path d="M479.32 74.81L451.85 59c-.8-.46-1.45-.09-1.45.83v3.74a3.15 3.15 0 0 0 1.44 2.5l27.46 15.81c.8.47 1.45.09 1.46-.83v-3.73a3.22 3.22 0 0 0-1.44-2.51z" fill="#12161e" /><path d="M453.39 62.34c-.5-.29-.9-.06-.9.52a2 2 0 0 0 .9 1.55c.49.29.9.06.9-.51a2 2 0 0 0-.9-1.56m3.49 2.01c-.5-.28-.9 0-.91.52a2 2 0 0 0 .9 1.55c.5.29.9.06.91-.51a2 2 0 0 0-.9-1.56m3.48 2.02c-.5-.29-.9-.06-.9.51a2 2 0 0 0 .9 1.56c.49.28.9 0 .9-.52a2 2 0 0 0-.9-1.55m3.48 2.01c-.49-.29-.89-.06-.9.52a2 2 0 0 0 .9 1.55c.5.29.9.06.91-.51a2 2 0 0 0-.91-1.56m3.49 2.01c-.5-.29-.9-.06-.9.52a2 2 0 0 0 .9 1.55c.49.29.9.06.9-.51a2 2 0 0 0-.9-1.56m3.48 2.01c-.49-.28-.89-.05-.9.52a2 2 0 0 0 .9 1.55c.5.29.9.06.9-.51a1.94 1.94 0 0 0-.9-1.56m6.97 4.02c-.49-.28-.9 0-.9.52a2 2 0 0 0 .9 1.55c.5.29.9.06.9-.51a2 2 0 0 0-.9-1.56m-3.48-2.01c-.5-.28-.9 0-.9.52a1.94 1.94 0 0 0 .9 1.55c.49.29.9.06.9-.51a2 2 0 0 0-.9-1.56" fill="#fff" /><path d="M477.79 86l-24.47-14.12c-.35-.21-.64 0-.64.36v2.09a1.41 1.41 0 0 0 .64 1.1l24.47 14.12c.35.21.64 0 .64-.36v-2.08a1.42 1.42 0 0 0-.64-1.11z" fill="#4092ba" /><path d="M453.28 76.37a.37.37 0 0 0-.61.35 1.34 1.34 0 0 0 .61 1.06c.33.2.61 0 .61-.35a1.35 1.35 0 0 0-.61-1.06" fill="#39b54a" /><path d="M477.76 95.13L453.29 81c-.35-.2-.64 0-.64.37v2.08a1.39 1.39 0 0 0 .63 1.1l24.47 14.12c.35.21.64 0 .64-.36v-2.08a1.4 1.4 0 0 0-.63-1.1z" fill="#4092ba" /><path d="M453.26 85.49c-.34-.19-.62 0-.62.36a1.36 1.36 0 0 0 .61 1.05c.34.2.62 0 .62-.35a1.38 1.38 0 0 0-.61-1.06" fill="#39b54a" /><path d="M477.73 104.25l-24.46-14.13c-.35-.2-.64 0-.64.37v2.07a1.42 1.42 0 0 0 .64 1.11l24.46 14.13c.35.2.64 0 .64-.37v-2.08a1.41 1.41 0 0 0-.64-1.1z" fill="#4092ba" /><path d="M453.23 94.62c-.34-.2-.61 0-.61.35a1.29 1.29 0 0 0 .61 1c.33.19.61 0 .61-.35a1.32 1.32 0 0 0-.61-1" fill="#39b54a" /><path d="M477.71 113.37l-24.47-14.13c-.35-.2-.64 0-.64.37v2.08a1.38 1.38 0 0 0 .63 1.1l24.47 14.13c.35.2.64 0 .64-.37v-2.08a1.38 1.38 0 0 0-.63-1.1z" fill="#4092ba" /><path d="M453.21 103.74c-.34-.2-.62 0-.62.34a1.36 1.36 0 0 0 .61 1.07c.34.19.61 0 .62-.36a1.36 1.36 0 0 0-.61-1.05" fill="#39b54a" /><path d="M477.68 122.49l-24.46-14.12c-.35-.2-.64-.05-.64.36v2.08a1.4 1.4 0 0 0 .64 1.1L477.67 126c.35.2.64 0 .64-.37v-2.03a1.43 1.43 0 0 0-.63-1.11z" fill="#4092ba" /><path d="M453.18 112.86c-.34-.2-.62 0-.62.35a1.38 1.38 0 0 0 .62 1.06.37.37 0 0 0 .61-.35 1.36 1.36 0 0 0-.61-1.06" fill="#39b54a" /><path d="M477.66 131.61l-24.47-14.12c-.35-.2-.64 0-.64.36v2.09a1.41 1.41 0 0 0 .64 1.1l24.47 14.12c.35.21.64 0 .64-.36v-2.08a1.42 1.42 0 0 0-.64-1.11z" fill="#4092ba" /><path d="M405.17 133.45l.32 1.24a20.69 20.69 0 0 1 1.57 2.43c.06.35-.51 3.94-1.38 4.13s-.93-.16-.62-.55l-.54.28a.54.54 0 0 1-.12-.71l.47-.07-.95.1s-.16-.3.22-.58l.08-2.17-.38-.71s-.48-.75-.43-1.06l-.84-1.28s.16-1.74 2.6-1.05z" fill="#f7b7a9" /><path d="M405.41 133.74l.24.95a4 4 0 0 0-2.52.94l-.58-1a2.74 2.74 0 0 1 2.86-.89z" fill="#fce6e2" /><path d="M393.88 110a4.77 4.77 0 0 1 4 2.3c1.19 1.92 4.23 10.15 4.23 10.15l3.56 11.47a4.41 4.41 0 0 0-3.06 1.11l-3.48-8-2.63-5.66z" fill="#002d42" /><path d="M383.52 112.82l4-2.58 2.45-.43H392a1.58 1.58 0 0 0 .59.79 12 12 0 0 0 3.33 1.52c.84 4.39.56 8.58.42 13.09a63 63 0 0 0 .53 10.73c-1 .79-3 1.81-6.63 2.3-6.58.89-6.93-2.1-6.93-2.1l-2.54-18.57a4.79 4.79 0 0 1 2.75-4.75z" fill="#fff" /><path d="M394.07 118.6a22.52 22.52 0 0 0-1.2-3.24l.2-1.15-1.23-1.35-.57.22-.34 1.4.86 1.06.37 2.73 2.08 4.56a33 33 0 0 0-.17-4.23z" fill="#ff836e" /><path d="M416.36 194.6c1.83 0 5.11.35 5.11.35l3.45.62.16 2.45c-.66 1.61-3 .95-3 .95l-6.75-2a1.36 1.36 0 0 1 1.03-2.37zm-23.97-17.95c.6.61 1.95 1.5 2.1 2.34v.13c-.9 1.9-3.41 1.21-3.41 1.21l-5.58-3.1a1.46 1.46 0 0 1-.74-1.27v-1.83l4.42-.67zm8.27-4.82c2.62 1.39 1.71 2.51.64 2.88-1.23.41-4-1.49-4-1.49l-2.61-.89a1.27 1.27 0 0 1-.65-1.11v-1.59l3.86-.58z" fill="#002d42" /><path d="M397.8 134.91s0 6.48.09 8.22c.32 6.89.3 26.28.3 26.28s.33 2-4.17.58l-2.15-23.06-1.29.54-.93 26.25s-1.64 2.54-4.87.92l-.78-16.32-1.21-21.9c.04.01 15.01-1.51 15.01-1.51z" fill="#09425e" /><path d="M396.72 113.49c.64 2 .54 12.53.54 12.53l.93 11.18s-1.31 2.93-2.93 1.21c-.87-.92-1.19-3.43-2.08-3.87q.06-5 0-10c0-2.49.91 1.26 1-1.23s.43-9.68-1.73-13.49c2.93-.01 3.61 1.6 4.27 3.67z" fill="#002d42" /><path d="M383.52 112.82l3.39-2.22c.73 1.18 7 12.05 7 12.05s.63 11 1.3 15.76c-.13 1.56-4.18 3.66-6.68 3.41-5.35-.53-6-2.22-6-2.22l-1.78-22a4.79 4.79 0 0 1 2.77-4.78z" fill="#002d42" /><path d="M383.74 139.92l-.07 4.59a4.69 4.69 0 0 0-1.06-.07 3.1 3.1 0 0 1-.43 0 11.07 11.07 0 0 0-1.4-.24l.08-3.43z" fill="#f7b7a9" /><path d="M383.62 139.6l1 3.39-.16 3.66s-.78.08-.78-1l.05-1.27-.74-.53z" fill="#f7b7a9" /><path d="M380.92 139.32a3.24 3.24 0 0 0 3-.28l-.06 1.55c-2.15 1.63-3.13-.06-3.13-.06l-.13-1.24z" fill="#fff" /><path d="M383.43 113.49c2.38 0 2.11 6 2.11 6l-1 9.13-.43 11a3.22 3.22 0 0 1-3.89.32l-.65-10.94.54-10.55s.22-4.96 3.32-4.96z" fill="#002d42" /><path d="M392.73 106.24v4.3a2.63 2.63 0 1 1-5.26 0l.39-4.3z" fill="#e3a89b" /><path d="M383.69 144.35l-.39 1.65.09 1.36.08.44a.4.4 0 0 1-.71.32l-.68-1-1.08-.78-.51-1.46.28-3z" fill="#f7b7a9" /><path d="M391.47 112.78l-.65 2a6.22 6.22 0 0 1-4.38-3.9l1.16-1.79a5.47 5.47 0 0 0 3.87 3.69zm1.26-2.78c1 1 .34 4.24.34 4.24a7.79 7.79 0 0 0-1.6-1.43 3.13 3.13 0 0 0 1.26-2.81z" fill="#fff" /><path d="M385.55 111.49l1.67-1.79c2.23 3.58 5.91 9.87 7.07 13.26a5.87 5.87 0 0 1-.11 2c-.61-1.66-1.62-2.61-3.25-4.49a37.16 37.16 0 0 0-4.58-4.29l1.12-.48h-.92z" fill="#002d42" /><path d="M395.1 113.17l-.75.32h1s0 9-1.17 11.48c0 0 .57-8.23-1.57-13.6v-1.88a6.21 6.21 0 0 1 2.49 3.68z" fill="#002d42" /><path d="M394.07 107.15c0 1.68-.64 2.65-1.85 3a3.41 3.41 0 0 1-2.43-.22c-1.16-.52-2.9-1.55-2.9-3l-.45-4.07 7.63-1.36z" fill="#f7b7a9" /><path d="M393.11 99.24c3.29 2.07 1 3.16 1 3.16s-5.36.13-5.4 1c0 .26.26 1.85.26 1.85l-.63.46-.44-.74-.23 3.75a8 8 0 0 1-2-3.66c-.27-1-.87-3.28 0-4.39 1.81-2.23 4.42-3.33 7.44-1.43z" fill="#ce994a" /><path d="M387.86 105v1.86c-.78.36-1.42-.7-1.3-1.67.16-1.3 1.3-.19 1.3-.19z" fill="#f7b7a9" /><path d="M403.41 135.78a.55.55 0 0 0 .26.47 12 12 0 0 0 2.27 1.17c.67 0 .24-1.13.38-1.62a.64.64 0 0 1 .63-.47 10.55 10.55 0 0 0 .29 1.08c.13.38.58 1.29.58 1.29l.12 1.83 1.08 1.11-2.18 1.87-.73-1.16s-2.22-1.2-2.42-1.76-1.58-3.67-.28-3.81z" fill="#f8c4b8" /><path d="M434.26 134.72a76.7 76.7 0 0 1 .34 17.28c-.22 2.09-4.58 1.12-4.58 1.12l1.36-4.61z" fill="#ff836e" /><path d="M424.81 190.76h3.49l4.59.92.11 2.32c-.62 1.52-2.86.9-2.86.9l-6.37-1.9c-1.06-.45-.14-2.24 1.04-2.24z" fill="#002d42" /><path d="M431.79 154a57.44 57.44 0 0 1 1.11 6.26c.32 6.89 0 31.62 0 31.62s-.75 1.41-4.08.75c-.8-.16-.71-.22-.76-1L426.47 170l-1.57 26.07s-4.5-.86-4.53-1.48l-1.8-39.13c.93 1.13 11.79-.61 13.22-1.46z" fill="#002d42" /><path d="M424.44 132.85a33.7 33.7 0 0 1 5.14-1.14s3.78 0 4.68 3c.69 2.26-2 15.61-2.1 17.64a26.24 26.24 0 0 0 .1 3.88s-8 3.13-10.17 2.93c-3-.29-3.41-1.54-3.41-1.54l-.75-12.95 1.42-9.05a17.06 17.06 0 0 1 5.09-2.77z" fill="#ff836e" /><path d="M408 139l5.73 4.57s3.18-6 5.58-8c3.16-2.56 5.27 3.45 3.62 5.6-2.24 2.9-7.6 8.58-9.31 8.58s-7.54-7.82-7.54-7.82c-.28-3 1.92-2.93 1.92-2.93z" fill="#ff836e" /><path d="M408 139l.59.47a4.06 4.06 0 0 0-1.67 3.58l-.84-1.1C405.8 138.93 408 139 408 139z" fill="#fff" /><path d="M428.49 132.62c0 1.45-4.95 2-4.95.54l-.3-4.84h4.86z" fill="#f7b7a9" /><path d="M428.49 131.71l.19.42a1.21 1.21 0 0 1-.18 1.3c-1.39 1.5-4.59 1.29-5.53 0l.55-.58c1.53.53 4.55.25 4.97-1.14z" fill="#fff" /><path d="M429.07 128.72c0 2.2-3.93 3.42-3.93 3.42-2.12 0-3.67-1-3.67-3.22v-5.63l8 1.36z" fill="#f7b7a9" /><path d="M423.32 120.51c1.23-.53 5.55-.68 6.34 2.38 1.3 5-1.3 8-1.3 8s-1.68 1.28-2.65.51c-1.35-1.06-3.15-2.77-3.15-4.49s-1.09-2-1.09-2c-2.65-1.86.1-3.63 1.85-4.4z" fill="#81524f" /><path d="M423.61 127.16c.12 1-.52 2-1.3 1.67V127s1.14-1.15 1.3.16zm-17.56 10.57l-.24 1.3a.76.76 0 0 1-.82-.86l.08-.77a.36.36 0 0 0-.25-.32c-1.27-.49-1.41-1.3-1.41-1.3a8.14 8.14 0 0 1 2.68.84c.16.13-.04 1.04-.04 1.11z" fill="#f7b7a9" /><g><path d="M529 132.63v.37a1.78 1.78 0 0 1-1.62 0v-.16a1.8 1.8 0 0 0 1.62-.21z" fill="url(#j)" /><path d="M526.43 132.29a.67.67 0 0 1-.34-.55v.26a.57.57 0 0 0 .34.47l.94.55v-.16z" fill="url(#k)" /><path d="M530.84 131.22l-1.84 1.41v.37l1.85-1.07a.92.92 0 0 0 .52-.74v-.5c-.01.16-.18.31-.53.53z" fill="url(#i)" /><path d="M530.83 130.14c.71.41.71.67 0 1.08l-1.83 1.41a1.8 1.8 0 0 1-1.61.2l-1-.54a.65.65 0 0 1 0-1.14l1.85-1.41a2.92 2.92 0 0 1 2.59.4z" fill="#e6e6e6" /><path fill="url(#af)" d="M523.51 130.32v.64l6.45-3.72v-.61l-6.45 3.69z" /><path fill="url(#l)" d="M523.51 130.31l-16.37-9.45v.65l16.37 9.44v-.64z" /><path fill="#e6e6e6" d="M513.55 117.16l-6.41 3.7 16.37 9.46 6.45-3.69-16.41-9.47z" /><path fill="#858585" d="M518.84 125.75l-4.78-2.76-.69.4 4.78 2.76.69-.4" /><path fill="url(#m)" d="M529.35 113.42l-7.56 4.34 8.15 4.74 7.57-4.37-8.16-4.71z" /><path fill="url(#n)" d="M529.94 122.5l-8.15-4.74v1.2l8.15 4.73v-1.19z" /><path fill="url(#o)" d="M529.94 123.69v-1.19l7.57-4.37v1.21l-7.57 4.35z" /><path fill="url(#p)" d="M519.75 90.67l-3.63 16.78 24.51 14.15 3.63-16.77-24.51-14.16z" /><path fill="#ccc" d="M515.66 109.54l24.51 14.15.46-2.09-24.51-14.15-.46 2.09z" /><path fill="url(#q)" d="M541.25 123.31l-1.08.38 4.09-18.86 1.07-.39-4.08 18.87z" /><path fill="#ccc" d="M544.26 104.83l-24.51-14.16 1.07-.38 24.51 14.15-1.07.39z" /><g style="isolation:isolate"><path d="M525.67 99.89l-4.27 1.26 2.67 5.29 1.02-.45-1.96-3.85 3.12-.88-.58-1.37m7.42 2.3l-1.23-.71-5.89 7.32 1.22.71 5.9-7.32m1.98 3.12l-1.02.45 1.97 3.85-3.12.88.57 1.37 4.27-1.27-2.67-5.28" fill="#fff" /></g><path fill="#858585" d="M508.82 120.77l4.19 2.42.99-.58 5.46 3.15-.96.59 5.22 3.02 4.6-2.69-14.88-8.59-4.62 2.68z" /></g><g><path d="M563.5 152.56v.36a1.82 1.82 0 0 1-1.61 0v-.16a1.79 1.79 0 0 0 1.61-.2z" fill="url(#ag)" /><path d="M560.94 152.21a.66.66 0 0 1-.33-.55v.24a.59.59 0 0 0 .34.47l.95.55v-.16z" fill="url(#ah)" /><path d="M565.35 151.15l-1.85 1.41v.36l1.85-1.08a.89.89 0 0 0 .52-.73v-.5c.01.16-.17.33-.52.54z" fill="url(#ai)" /><path d="M565.34 150.07c.71.4.72.67 0 1.08l-1.85 1.41a1.79 1.79 0 0 1-1.61.2l-.95-.55a.65.65 0 0 1 0-1.13l1.85-1.42a2.93 2.93 0 0 1 2.56.41z" fill="#e6e6e6" /><path fill="url(#aj)" d="M558.02 150.25v.64l6.46-3.72v-.61l-6.46 3.69z" /><path fill="url(#ak)" d="M558.02 150.24l-16.37-9.45v.65l16.37 9.44v-.64z" /><path fill="#e6e6e6" d="M548.07 137.08l-6.42 3.71 16.37 9.46 6.46-3.69-16.41-9.48z" /><path fill="#858585" d="M553.35 145.68l-4.78-2.76-.69.4 4.78 2.76.69-.4" /><path fill="url(#al)" d="M563.87 133.35l-7.56 4.34 8.15 4.74 7.56-4.37-8.15-4.71z" /><path fill="url(#am)" d="M564.46 142.43l-8.15-4.74v1.2l8.15 4.73v-1.19z" /><path fill="url(#an)" d="M564.46 143.62v-1.19l7.56-4.37v1.2l-7.56 4.36z" /><path fill="url(#ao)" d="M554.26 110.6l-3.63 16.77 24.51 14.15 3.63-16.77-24.51-14.15z" /><path fill="#ccc" d="M550.18 129.47l24.51 14.15.45-2.1-24.51-14.15-.45 2.1z" /><path fill="url(#ap)" d="M575.76 143.24l-1.07.38 4.08-18.87 1.08-.38-4.09 18.87z" /><path fill="#ccc" d="M578.77 124.75l-24.51-14.15 1.08-.38 24.51 14.15-1.08.38z" /><g style="isolation:isolate"><path d="M560.19 119.81l-4.27 1.27 2.67 5.29 1.03-.45-1.98-3.85 3.13-.88-.58-1.38m7.41 2.3l-1.22-.7-5.89 7.32 1.22.7 5.89-7.32m1.99 3.13l-1.02.45 1.96 3.85-3.12.88.58 1.38 4.26-1.29-2.66-5.27" fill="#fff" /></g><path fill="#858585" d="M543.34 140.69l4.19 2.42.98-.57 5.46 3.15-.96.59 5.23 3.02 4.59-2.7-14.88-8.59-4.61 2.68z" /></g><g><path d="M504.47 161.08v2a.35.35 0 0 1-.2.29 1.15 1.15 0 0 1-1 0 .37.37 0 0 1-.2-.29v-17.36a8.65 8.65 0 0 0 1.4-.84z" fill="#002d42" /><path d="M516.11 165.83a24.08 24.08 0 0 0 3.93.46c1.2 0 2.52 1.17 1.33 1.81-1.54.84-6.72 1.93-6.72 1.93s-1.62.44-2.38-.65a1 1 0 0 1-.18-.69l.13-2zm-12.3-2.56l3.62-.68a34.3 34.3 0 0 0 3.71.28c1.17 0 2.11 1.34 1 1.78l-6 1.88s-1.89.53-2.67-.58a.74.74 0 0 1-.11-.58z" fill="#333" /><path d="M513.1 154.13l6.1-3-2.82 14.87c0 .6-.31 1.18-1.45 1.48a2.77 2.77 0 0 1-2.74-.46zm.99-5.13l-6.63 13.7c0 .79-.88 1.31-1.66 1.42-1.71.23-2.13-.7-2.13-.7l5.48-13.8c.18-.01 3.49-.51 4.94-.62z" fill="#09425e" /><path d="M493.48 167.18v2a.32.32 0 0 1-.2.28 1.06 1.06 0 0 1-1 0 .33.33 0 0 1-.21-.28v-17.32a8.85 8.85 0 0 0 1.39-.84z" fill="#002d42" /><path d="M492.13 149.6l10.05-5.81a7.07 7.07 0 0 1 6.37 0l10 5.81c1.75 1 1.74 2.67 0 3.68l-10.05 5.81a7 7 0 0 1-6.36 0l-10-5.81c-1.78-1.01-1.77-2.66-.01-3.68z" fill="#0071bc" /><path d="M510.48 141.68c1.81.75 2.1 1.21 2 2 0 .53.23-.35 3.55.34 2.89.61 4.12 2.1 4 3.38l-.58 3c-1.19-1.08-2.57-1.42-3.53-.83-2.54 1.57-7.63 4.21-8.75 4.91a3.17 3.17 0 0 1-3.38.22c-2.67-1-4.95-3-7.39-4.48-.87-.53-1.71-1.1-2.6-1.59l8.31-4.81c1.17-.66 3.89-4.04 8.37-2.14z" fill="#09425e" /><path d="M530.24 133.39h-1l.28-.06c.22 0 .82-.21.35-.57l-1.39.17a1.74 1.74 0 0 0 .28-.15c.1-.1.3-.4-.1-.5l-1.87.38-.79.34a3.12 3.12 0 0 0 .35-.46c0-.12.1-.47-.35-.42a4.87 4.87 0 0 1-.63.53 4.08 4.08 0 0 0-1.68 1.93l-.52.49-1 .55.17.15 1.25.85c.31 0 1.17-.82 1.2-.81.91.21 2.81-.69 3.1-.83l.57-.22 1.21-.16s.55-.05.27-.42a2.93 2.93 0 0 0-1.06-.08l.9-.18s.78-.08.46-.53z" fill="#ffac84" /><path d="M498.24 121.6s5.17-1 7.6.72c2.12 1.51 6.46 4.24 5.22 6.36 0 0-1.22 5.45-1.66 8.63-.94 6.82-.83 6.62-.24 11.38a3.35 3.35 0 0 1-3.55 2.47c-3.57 0-9.06-2.27-9.06-2.27a61.85 61.85 0 0 0-.93-6.47c-1-4.14-.62-15.52-.19-17.89a3.56 3.56 0 0 1 2.81-2.93z" fill="#523554" /><path d="M505.94 118.44l-.07 3.84c0 1.39-4.75.87-4.75-.52l.48-3.21z" fill="#ffac84" /><path d="M507.18 118.75c-.38 2.31-.76 2-2.79 2.07 0 0-4.33-.08-4.46-2.18l-.66-3.88 8.29-1.61z" fill="#ffac84" /><path d="M505 110.44c.86.31 3.25.82 3.25.82a1.76 1.76 0 0 1-.67 2.12s-2.11 1.71-2 3.36-1 2.83-2.28 3.93a2 2 0 0 1-2.17 0 8.38 8.38 0 0 1-2.05-7.63c.53-2.93 4.67-3.04 5.92-2.6z" fill="#333" /><path d="M506.07 116.8l-.47 1.55c-.86.39-.77-.73-.69-1.66.09-1.26 1.16.11 1.16.11z" fill="#ffac84" /><path d="M509.34 125.9c1.59-.75 3.56 4.55 3.56 4.55l3.35 6.27 7.47-2.2a1.41 1.41 0 0 1 1.6 1.31c.18.86-8.06 5.06-9.4 5.39a1.72 1.72 0 0 1-.68.12c-.16 0-.9 0-2.45-1.47a7.16 7.16 0 0 1-1.47-1.56l-4-7.36s-.7-3.77 2.02-5.05z" fill="#523554" /><path d="M495.38 129.86l6.74 4a5.11 5.11 0 0 1 2.5 4.07l2 21.9-15.86-8.3.23-19.3a2.9 2.9 0 0 1 4.39-2.37z" fill="#0071bc" /><path d="M503.28 157.83a3.9 3.9 0 0 0 3.61.06l13-6.47a2.24 2.24 0 0 1-1.33 1.86l-10.05 5.81a7 7 0 0 1-6.36 0l-10-5.81c-1-.6-1.45-1.41-1.26-2.19-.03.03 8.57 4.68 12.39 6.74z" fill="#002d42" /><path d="M517.91 169.28v2a.33.33 0 0 1-.2.28 1.06 1.06 0 0 1-1 0 .35.35 0 0 1-.21-.29v-17.32a8.16 8.16 0 0 0 1.39-.84zm-11.28 5.47v2a.35.35 0 0 1-.2.29 1.15 1.15 0 0 1-1 0 .37.37 0 0 1-.2-.29v-17.32a9 9 0 0 0 1.39-.84z" fill="#002d42" /></g><g><path fill="#c56b6a" d="M554.91 72.43v24.25l35.02 20.21.26-24.13-35.28-20.33z" /><g fill="#fff" clip-path="url(#aq)"><path d="M559.56 90.38a.8.8 0 0 0-.7-.13.54.54 0 0 0-.28.55 1.66 1.66 0 0 0 .27.87 2 2 0 0 0 .68.69.83.83 0 0 0 .73.13c.18-.08.27-.27.27-.56a1.74 1.74 0 0 0-.26-.87 2 2 0 0 0-.71-.68m9.13-1.57l-1.6-.93v4.8a11 11 0 0 0 0 1.21c-.12-.3-.24-.61-.38-.93l-3-7-1.83-1v8.67l1.61.93v-6.27c.07.2.19.52.38.94l3.13 7.26 1.72 1v-8.67m6.05 3.5l-4.35-2.52-.03 8.67 4.53 2.62V99.5l-2.82-1.63v-1.98l2.47 1.43.01-1.59-2.47-1.42v-1.93l2.66 1.53v-1.59m6.78 3.91l-6-3.46v1.59l2.14 1.23-.02 7.08 1.7.99.02-7.08 2.16 1.24v-1.59" /></g></g><g><path fill="#c56b6a" d="M511.79 27.96v24.26l35.01 20.21.26-24.13-35.27-20.34z" /><g fill="#fff" clip-path="url(#ar)"><path d="M519.81 40.49l-1.7-1v5.16c0 1.32-.39 1.76-1.17 1.31a3 3 0 0 1-1-.95v1.84a5.08 5.08 0 0 0 1.1.87c.89.51 1.56.59 2 .25s.71-1.1.71-2.27v-5.23m3.3 7.15l.83-2.47a2.82 2.82 0 0 0 .14-.68 6 6 0 0 0 .13.86l.8 3.38-1.93-1.11m2-4.08l-2-1.16-2.77 7.08 1.83 1.07.55-1.62 2.68 1.54.53 2.24 1.85 1.07-2.66-10.22m9.38 5.4l-1.78-1-1.58 5.08a3.86 3.86 0 0 0-.17.79 7.54 7.54 0 0 0-.15-1l-1.55-6.95-1.83-1.06L529.86 55l1.93 1.11 2.62-7.17m2.26 6.54l.83-2.48a2.83 2.83 0 0 0 .13-.68 6.11 6.11 0 0 0 .13.85l.8 3.38-1.93-1.11m2-4.08l-2-1.16-2.77 7.09 1.84 1.06.54-1.63 2.76 1.6.53 2.24 1.85 1.06-2.67-10.22" /></g></g><g><path d="M536.75 180.81v2a.37.37 0 0 1-.21.28 1.06 1.06 0 0 1-1 0 .35.35 0 0 1-.21-.28v-17.36a9 9 0 0 0 1.39-.84z" fill="#002d42" /><path d="M548.39 185.57a23.23 23.23 0 0 0 3.93.45c1.2 0 2.52 1.17 1.32 1.82-1.53.83-6.72 1.93-6.72 1.93a2.37 2.37 0 0 1-2.38-.65 1.13 1.13 0 0 1-.18-.7l.14-2z" fill="maroon" /><path d="M547 189.15a15.38 15.38 0 0 0 4.63-1c2.33-.69 2.4-1.2 2.44-1.23.15.31.07.64-.4.9-1.53.83-6.72 1.93-6.72 1.93a2.37 2.37 0 0 1-2.38-.65 1.13 1.13 0 0 1-.18-.7 3.25 3.25 0 0 0 2.61.75z" fill="#ffd22e" /><path d="M536.08 183l3.63-.68a32.55 32.55 0 0 0 3.71.27c1.17 0 2.11 1.35 1 1.79l-6 1.88s-1.9.53-2.67-.58a.81.81 0 0 1-.12-.59z" fill="maroon" /><path d="M535.7 185.19a1.7 1.7 0 0 0 .3.23 4.79 4.79 0 0 0 2.92.24c.41-.06 4.32-1 5.75-1.55l.21-.08a.61.61 0 0 1-.44.54l-6.18 1.74s-1.75.49-2.47-.53a.81.81 0 0 1-.1-.55z" fill="#ffd22e" /><path d="M545.37 173.86l6.11-3-2.83 14.85c0 .6-.31 1.18-1.44 1.49a2.78 2.78 0 0 1-2.74-.47zm1-5.18l-6.64 13.71c0 .79-.87 1.31-1.66 1.42-1.7.23-2.12-.71-2.12-.71l5.48-13.79c.18.04 3.48-.47 4.94-.63z" fill="#09425e" /><path d="M525.76 186.92v2a.35.35 0 0 1-.2.28 1.08 1.08 0 0 1-1 0 .35.35 0 0 1-.2-.29v-17.32a9 9 0 0 0 1.39-.84z" fill="#002d42" /><path d="M524.41 169.33l10.05-5.8a7 7 0 0 1 6.36 0l10 5.8c1.75 1 1.74 2.67 0 3.69l-10 5.8a7 7 0 0 1-6.37 0l-10-5.8c-1.82-1.02-1.81-2.67-.04-3.69z" fill="#0071bc" /><path d="M542.76 161.41c1.8.76 2.1 1.22 2 2 0 .53.23-.35 3.54.35 2.9.61 4.13 2.1 4 3.37l-.57 3c-1.19-1.08-2.57-1.42-3.53-.82-2.54 1.56-7.63 4.2-8.75 4.91a3.21 3.21 0 0 1-3.39.22c-2.67-1-5-3-7.38-4.49-.87-.53-1.72-1.1-2.61-1.59l8.32-4.8c1.17-.67 3.84-4.05 8.37-2.15z" fill="#09425e" /><path d="M529.48 136.65s4.32-1.72 7.27-.73c1.21.41.65.6 2.92 1.74h.06a4.71 4.71 0 0 1 2.54 4.68c-.29 3-.75 7.49-1 9.6a50.78 50.78 0 0 0-.25 11.9 3.5 3.5 0 0 1-3.71 2.58c-3.74 0-9.47-2.38-9.47-2.38a65.26 65.26 0 0 0-1-6.76c-1.08-4.33-.74-15.12-.28-17.6a3.72 3.72 0 0 1 2.92-3.03z" fill="#f40" /><path d="M537.7 132.33l-.16 3.94c0 1.45-5 .91-5-.55l.25-3.39z" fill="#8f644d" /><path d="M532.62 134.82c.44 1.48 3.31 1.56 4.94 1l.75.79c-1 1.43-4 1.36-5.59.36-.43-.27-1-.69-.76-1.16z" fill="#fff" /><path d="M538.85 131.74c-.4 2.41-1.1 3-3.23 3.1 0 0-4.15-.18-4.29-2.38l-.69-4.05 8.67-1.69z" fill="#8f644d" /><path d="M536.59 123.89c1.8.66 4.67 2.26 2.12 4.28 0 0-.53.54-.43 2.26s-1.62 3.3-2.9 4.44c-.93.83-3.2-.31-3.2-.31s-2.78-2.79-1.79-7.9c.61-3.11 4.94-3.23 6.2-2.77z" fill="#002d42" /><path d="M538.45 130.54l-.34 1.62c-.64.4-.56-.76-.51-1.73.07-1.33.85.11.85.11z" fill="#8f644d" /><path d="M527.66 149.59l6.74 4a5.15 5.15 0 0 1 2.5 4.08l2 21.89-15.86-8.29.23-19.3a2.9 2.9 0 0 1 4.39-2.38z" fill="#0071bc" /><path d="M535.55 177.57a3.9 3.9 0 0 0 3.61.05l13-6.46a2.22 2.22 0 0 1-1.32 1.86l-10 5.8a7 7 0 0 1-6.37 0l-10-5.8a2.06 2.06 0 0 1-1.27-2.2s8.53 4.68 12.35 6.75z" fill="#002d42" /><path d="M563.2 151l.29.06c.23.08.9.16.59-.41l-1.42-.43a1.44 1.44 0 0 0 .34 0c.14 0 .46-.26.12-.53l-2-.44-.93-.12a3.31 3.31 0 0 0 .55-.3c.07-.1.3-.41-.16-.56a5.59 5.59 0 0 1-.86.23 4.55 4.55 0 0 0-2.49 1.15l-1.94-.3-.71 2.15c.3.13 3.19.09 3.21.11.8.61 3 .29 3.37.28h.66l1.26.36s.56.2.45-.28a3 3 0 0 0-1-.55l1 .22s.78.32.66-.26z" fill="#8f644d" /><path d="M543.35 142.07c1.36 1.83 5.38 6.36 5.38 6.36-1 1.1-1.7 3.84-2.92 3.14-3.4-2-8.83-7.71-8.83-7.71s-1-3.82 1.43-5.3c1.91-1.17 4.04 2.3 4.94 3.51z" fill="#f40" /><path d="M548.27 148s4.26.54 7.45 1.07c2 .35.5 2.87.5 2.87s-6.93.06-9.14 0c-2 0-2.53-2.19-2.53-2.19.31-1.38 3.19-.41 3.72-1.75z" fill="#f40" /><path d="M550.19 189v2a.34.34 0 0 1-.2.28 1.08 1.08 0 0 1-1 0 .35.35 0 0 1-.2-.28v-17.32a9.88 9.88 0 0 0 1.39-.84zm-11.29 5.48v2a.33.33 0 0 1-.2.28 1.06 1.06 0 0 1-1 0 .35.35 0 0 1-.21-.29v-17.32a8.65 8.65 0 0 0 1.4-.84z" fill="#002d42" /></g></g><g><path fill="url(#as)" d="M456.58 312.32l-7.01 4.04 133.04 76.81 7-4.04-133.03-76.81z" /><path fill="url(#at)" d="M449.57 316.36l7.01-4.04v8.09l-7.01-4.05z" /><path fill="url(#au)" d="M449.57 316.36l133.04 76.81 7-4.04v-44.17l-140.04-80.85v52.25z" /><path d="M585.47 259.4l-127.79-73.78a2.81 2.81 0 0 0-2.82-.28l-3.13 1.83L584.85 368.9l3.14-1.82a2.77 2.77 0 0 0 1.15-2.54l.28-98.3a8.69 8.69 0 0 0-3.95-6.84z" fill="url(#av)" /><path d="M582.33 261.22l-127.79-73.78c-2.18-1.26-4-.25-4 2.27l-.25 98.29a8.68 8.68 0 0 0 3.95 6.84L582 368.62c2.19 1.27 4 .25 4-2.26l.28-98.3a8.75 8.75 0 0 0-3.95-6.84z" fill="#002d42" /><path fill="url(#aw)" d="M461.59 293.7l113.12 65.31.27-96.64-113.11-65.31-.28 96.64z" /><path d="M455.79 239.27c-1.19-.69-2.15-.14-2.16 1.23v5.5a4.71 4.71 0 0 0 2.14 3.71c1.19.69 2.16.14 2.16-1.23v-5.49a4.74 4.74 0 0 0-2.14-3.72z" fill="#09425e" /><path fill="url(#ax)" d="M563.2 268.89l7.58 4.37.04-9.67-7.62-4.38v9.68z" /><g style="isolation:isolate"><path fill="#2078fd" d="M548.85 258.27l-72.77-42.01-.01 4.43 72.77 42.02.01-4.44m20.04 18.96L468.4 219.21l-.01 4.43 100.49 58.02.01-4.43m-45.71-19.02l-54.8-31.63V231l53 30.63 1.76-3.43m26.65 15.39L529.74 262l-1.74 3.42L549.82 278v-4.4" /><path d="M470.47 213c-1.13-.66-2.05-.19-2.05 1a4.4 4.4 0 0 0 2 3.41c1.12.64 2 .17 2-1.05a4.37 4.37 0 0 0-2-3.39" fill="#43caaa" /><path d="M507.62 288.44l-13.42-7.75-.83.44-1-1.49-16.44-9.5v4.44l29.95 17.29 1.76-3.43m41.08 23.72l-4-2.33-1 .34-.83-1.39-28.68-16.57-1.77 3.43 36.3 21v-4.44M484 250.34l-1.78-1v1.62l1.78-.6m33.34 19.25l-24-13.84-5 1.56L515.56 273l1.76-3.43m26.49 15.3l-19.94-11.52-1.77 3.43 26.62 15.37-4.91-7.28m11.19 6.46l-1.77-1L555 293v-1.63m-62.94-43.74l-17.83-10.29v4.43l13 7.49 4.87-1.63m28.19 16.28l-25.62-14.8 3.12 5.25-1.12.35 21.86 12.62 1.76-3.42m22.35 12.9l-15.8-9.12-1.84 3.42 15.53 9-1.09-1.63 3.12-1.64m4.4 2.54l-1.84-1.06L547 281v-1.68m-32.61-4.03l-29.34-16.94-1 .31 3.92 5.81 24.66 14.24 1.76-3.42M552 297l-31-17.91-1.77 3.42 30.08 17.36 3.83-1.21L552 297m16.74 33.76l-100.49-58.02-.01 4.44 100.49 58.02.01-4.44m-19.06-3.96l-81.45-47.03-.01 4.43 81.45 47.03.01-4.43" fill="#2078fd" /><path d="M470.32 266.9c-1.13-.65-2.05-.18-2.05 1a4.35 4.35 0 0 0 2 3.4c1.13.65 2 .18 2.05-1a4.4 4.4 0 0 0-2-3.39" fill="#ed1e79" /><path fill="#fff" d="M493.46 247.16l-1.4.47-4.87 1.63-3.21 1.08-1.78.6-7.35 2.47 17.52 26.23 1 1.49.83-.44 3.48-1.81-9.71-14.41-3.92-5.81 1-.31 3.3-1.04 4.99-1.56 3.29-1.04 1.12-.35-3.12-5.25-1.17-1.95m37.44 12.58l-6.56-3.78-1.16 2.25-1.76 3.43-1.17 2.27-1.76 3.42-1.17 2.26-1.76 3.43-1.17 2.27-1.76 3.42-5.01 9.73-1.76 3.43-.89 1.72 6.53 3.77.89-1.72 1.77-3.43 5.01-9.72 1.77-3.42 1.16-2.27 1.77-3.43 1.17-2.26 1.76-3.42 1.17-2.27 1.77-3.42 1.16-2.26m12.86 16.45l-1.16.62-3.12 1.64 1.09 1.63 3.25 4.81 4.9 7.28 3.24 4.81 1.12 1.66-3.83 1.21-9.84 3.12 3.43 5.81.83 1.39 1-.34 17.6-5.95-7.3-10.92-1.77-2.65-6.2-9.28-1.84-2.74-1.4-2.1" /></g><path d="M482.57 282.42c-.12 0-2.37.4-2.37.4s-.11-.07.05-.12l2.16-.73c.33-.11.36-.23.28-.36s-.42-.1-.55-.05-2.11.6-2.11.6-.14 0 .18-.17c.56-.22 1.83-.84 2.05-.94s.12-.41 0-.45a10.07 10.07 0 0 0-1.87.56 13.15 13.15 0 0 1-1.71.57c-.19 0 .24-.6.71-1.22s0-.73 0-.73c-.14.19-2.18 1.73-2.54 2a7.76 7.76 0 0 0-.9 1.93l-.61.19.29 1.91a6.51 6.51 0 0 1 1.24-.36c.91.16 3-1.11 3.48-1.28.24-.09 1.83-.42 1.83-.42.5-.23.12-.43 0-.43a15.92 15.92 0 0 0-1.85.2v-.12s1.6-.43 2.1-.55.26-.39.14-.43z" fill="#ffac84" /><path fill="#fff" d="M475.09 283.54l.21 2.56 1.2-.27-.71-2.44-.7.15z" /><path d="M463.28 340.88l-2.82-2.82h-3.07l-.32 2.15a1.31 1.31 0 0 0 .66 1.12l1.26.38a7.7 7.7 0 0 1 2.26 1.12 4 4 0 0 0 2.95.58c.67-.23 1-.36.75-1.05a3.26 3.26 0 0 0-1.67-1.48zm-9.03 2.28l-2.22-3h-3l-.23 2.06a1.25 1.25 0 0 0 .65 1.1l3 2.46a2.85 2.85 0 0 0 2.2.67 1.57 1.57 0 0 0 1.45-1.16v-.11c-.16-.72-1.32-1.49-1.85-2.02z" fill="#002d42" /><path d="M466.51 285.66s-12.55-3.64-15-2c-1.24.84-1.88 4.53-1.88 4.53l17.48 1.41 8.77-3.46a21.87 21.87 0 0 1-.46-2.79z" fill="#ffd22e" /><path d="M461.06 309.75c-.43-4.91-.51-7.51-.51-7.51l-11.55 1.7s-.56 1.51-.3 7.93l.52 12.31-.35 16.38s2.15 1.58 3.63-.06l2.11-16.3 1.23-10.76.79 9.56.47 15.51a3.65 3.65 0 0 0 4-.15l.41-16.62s-.2-9.03-.45-11.99z" fill="#ceab8b" /><path d="M459 283.69c-3.54-.84-4.71-1.47-6.79-.71a24.4 24.4 0 0 0-5.1 2.8l1.42 5.13.88 7.63-.61 6.46c4.52 3.65 11.92.14 11.92.14s-.05-5.67-.21-7.8a32 32 0 0 1 .13-3.25c.85-3.36-.33-6.64 1.36-7.5 3-1.59 0-2.19-3-2.9z" fill="#ffd22e" /><path d="M445.14 308.85l-.72 3.46.4 1.22.9.7.56.87a.35.35 0 0 0 .63-.23l-.05-.37v-1.14l.38-1.21v-.13l-.09 1.05c0 .92.64.89.64.89l.28-3-.69-2.3zm7.05-25.85a2.22 2.22 0 1 0 4.44 0v-3.62h-4.11z" fill="#ffac84" /><path d="M456.72 274.76l-6.08 2.39 1 3.3c.36 1.82 2.72 2.24 3.82 2.18a2.51 2.51 0 0 0 2.15-3.2z" fill="#ffac84" /><path d="M455.55 273.05c-2.82-1.07-4.79.27-5.9 2.44-.55 1.07.32 2.81.71 3.63a6.82 6.82 0 0 0 2.23 2.71l-.56-3.17.59.87.54-.33s-.56-1.73-.59-1.95c-.11-.75 4.29-1.75 4.29-1.75s1.76-1.29-1.31-2.45z" fill="#915151" /><path d="M452 278.62c-.38-.16-.89-.24-.84.44s.76 1.59 1.35 1.17l-.08-1s-.23-.5-.43-.61z" fill="#ffac84" /><path d="M452.3 281.79l-1 1.51a5.25 5.25 0 0 0 3.69 3.29l.55-1.72a3.49 3.49 0 0 1-3.24-3.08zm3.27 3.08a7.09 7.09 0 0 1 1.35 1.21s.57-2.71-.29-3.58a2.45 2.45 0 0 1-1.06 2.37z" fill="#fff" /><path d="M448.71 285.22c-2.69-.26-3.09 4.22-3.09 4.22l-1.17 8.74.67 10.83s.31.58 2.31-.36l.63-9.86 2.18-8.45s.05-4.97-1.53-5.12z" fill="#ffd22e" /><path d="M445 307.82l.06 1.26a2.72 2.72 0 0 0 2.41-.27l.06-1.08s-.48.47-2.53.09z" fill="#fff" /><path d="M457.38 278a8.15 8.15 0 0 1-.26 2.7.87.87 0 0 1-.55.54 3.29 3.29 0 0 1-1 0 8.57 8.57 0 0 1-1.64-.84c-.4-.2-.78-1.32-1.22-2.36l-.44.43s.64 3.61 2 4.38a2.73 2.73 0 0 0 2.72.33c.55-.32 1-1.65.67-3.46-.07-.49-.28-1.72-.28-1.72z" fill="#915151" /><path d="M454.51 281.28a8.5 8.5 0 0 0 1.8-.83c.12-.22.22-.56.09-.62-1.22-.6-1.89 1.45-1.89 1.45z" fill="#915151" /><path d="M456.15 279.93c-.06.13.07.37.3.47a4.66 4.66 0 0 0 1.4-.38s-1.16-1.28-1.7-.09z" fill="#915151" /><g><path d="M499.08 315.51s.34.16.06.69l-1.26 1.09a3 3 0 0 1 .64 1.53l-.53 1.11a.49.49 0 0 1-.37-.26s-1.17.85-1.59.71l-1.42.93-.44-1.89 1.73-1.49z" fill="#f7b7a9" /><path d="M495.58 321l-8.68 7.67-2-4.44 9.64-5.34a1.66 1.66 0 0 1 1.04 2.11z" fill="#f40" /><path d="M489.84 371.17s2.16-.42 2.41-.43 2.22.08 1.48 1.35a3.06 3.06 0 0 1-1.15.81s-3.51 1.16-3.84 1.19-1.71.19-2-.82l.23-1.51zm-8.84-2.66l1.28-.42c.2-.06 2.6-.69 2.18.72a1.94 1.94 0 0 1-1.36 1.31s-2.17 1.38-2.49 1.48-2.06.82-2.33-.44l.08-1.4z" fill="#8c6239" /><path d="M489.26 336.52l-9.18-1.14a13.67 13.67 0 0 0-.55 6.89l.11 13.41-1.29 14.08c2.54 1.7 3.35-1.22 3.35-1.22l2.75-12.77.76-3.55a23 23 0 0 1 .68 4.08c-.19.8.71 16 1 16.17a2.07 2.07 0 0 0 2.86-1.26l.85-15.94c-.03-4.27-1.34-18.75-1.34-18.75z" fill="#57547f" /><path d="M478.54 321.49c.11-.58-.32-4.08 2.09-4.82a34.6 34.6 0 0 1 5.72 1.12c1.93.56 2.33 2.82 2.82 3.46 1.12 1.49 1.53 2.25 1.37 2.9a7.6 7.6 0 0 1-1.77 2.82l.34 5.64.38 5.06s-2.23 1.33-6.49.33-3.47-.85-3.47-.85l.84-4.16s-1.94-10.92-1.83-11.5z" fill="#f40" /><path d="M490.06 338.49c.73-.55 1.35-1 2-1.62.72 1.63 1.37 3.13 1.58 3.65a18.94 18.94 0 0 1 .87 2.27c0 .16-.44 1.57-.5 1.73a1.78 1.78 0 0 1-1 .61c-.4.06-1.28.07-1.28.07a.56.56 0 0 1 0-.35l-.28-.11s-.61-.14-.07-.53l-.14-.17a.51.51 0 0 1 .38-.41v-1.27a3 3 0 0 1 .07-1.3l-1.61-2.56z" fill="#f7b7a9" /><path d="M488.48 319.83c.56.9 1.21 11.69 1.21 11.69s2.07 4.61 3.25 7.3a4 4 0 0 1-2.37 1.23l-4.14-7.29s-1-7-1.29-9.3c-.32-2.57.93-7.54 3.34-3.63z" fill="#f40" /><path d="M485.87 312.54l-.89 4.69c0 1.26-3.61.78-3.62-.49l.25-4.14z" fill="#f7b7a9" /><path d="M487.42 313.05c0 2-1.32 2.83-3.18 2.85 0 0-3.44-1-3.47-2.95l-.43-3.55 7-1.28z" fill="#f7b7a9" /><path d="M485.71 305.72c1.53.65 4 2.17 1.66 3.81 0 0-.94.25-.92 1.75a5.84 5.84 0 0 1-2.26 4.15c-1.63 1.23-2.73.17-3.54-.17-1-.43-3.77-1.28-.59-7.9 1.2-2.49 4.57-2.09 5.65-1.64z" fill="#81524f" /><path d="M486.66 311.35v1.63c-.68.32-1.25-.6-1.15-1.45.15-1.14 1.15-.18 1.15-.18z" fill="#f7b7a9" /></g><g><path opacity=".2" d="M586.11 358.28l-17.02-9.65v-34.7l17.02 9.39v34.96z" /><path fill="url(#ay)" d="M561.72 288.95l46.94 27.1-.12 42.08-46.94-27.11.12-42.07z" /><path fill="url(#az)" d="M561.74 282.83l46.94 27.1-.02 6.12-46.94-27.1.02-6.12z" /><path fill="url(#aA)" d="M604.14 312.19l2.87 1.66.01-3.3-2.87-1.66-.01 3.3z" /><path fill="#92b3cb" d="M564.75 311.07l12.22 7.06.06-15.61-12.28-7.06v15.61z" /><path fill="#fbc531" d="M578.75 319.45l12.23 7.06.05-15.61-12.28-7.05v15.6z" /><path fill="#4cd137" d="M564.75 329l12.22 7.06.06-15.61-12.28-7.06V329z" /><path fill="#92b3cb" d="M578.75 337.38l12.23 7.06.05-15.61-12.28-7.05v15.6zm14.01-9.55l12.22 7.06.06-15.6-12.28-7.06v15.6zm0 17.94l12.22 7.05.06-15.6-12.28-7.06v15.61z" /></g><g><path d="M552.24 399.15H549l-5.24.94-.17 2.48c.69 1.66 2.78 1.09 2.78 1.09l7-2.07a1.41 1.41 0 0 0-1.13-2.44z" fill="#482716" /><path d="M531.22 339.9a55.88 55.88 0 0 0-2.57 15.75c0 2.05 5.81 2.29 5.81 2.29l-1.33-4.5z" fill="#002d42" /><path d="M541.46 395l-3.13.41-4 .38-.3 3.41c.76 1.51 3.14.7 3.14.7l5.47-2.71c.95-.54-.12-2.28-1.18-2.19z" fill="#482716" /><path d="M533.2 358.89s-.62 4.55-.74 6.25c-.15 2.06.88 6.25 1.15 9.71.33 4.16.52 7.51.52 7.51l.26 14.07a3.52 3.52 0 0 0 3.1.7c.78-.12 1.61-.56 1.65-1.35l.16-12.57.24-8.51 3.41 9.45.77 16.45a5 5 0 0 0 3.41.31 1.72 1.72 0 0 0 1.42-1.68l.09-15.48-3.19-21.87z" fill="#736357" /><path d="M546 351.93c.2-2.54 2.27-8.91.53-10.15-1.5-1.08-1.41-1.88-7.12-3.82-2.68-.92-6.14.17-6.14.17a3 3 0 0 0-2.31 2.71c-.41 2.27 1.33 14.37 1.43 16.35s-.49 9.87-.49 9.87a19.28 19.28 0 0 0 11.1 2.13 6.44 6.44 0 0 0 4.34-2.2s-1.66-11.29-1.34-15.06z" fill="#002d42" /><path fill="#ffac84" d="M535.84 338.35l4.48.38.24-4.3-4.79-.04.07 3.96z" /><path d="M535.67 337.13l-.23.69a1.19 1.19 0 0 0 .31 1.25c1.51 1.31 4.87 1 5.65-.4l-1-1c-1.4.69-4.18.76-4.73-.54z" fill="#09425e" /><path d="M540.48 328.58l-7.07 2.42 1 3.61c.34 2 4.08 2.5 4.08 2.5 1.92-.33 3.17-1.44 2.83-3.47z" fill="#ffac84" /><path d="M538.39 326.36c-1.2-.3-5.12.23-5.37 3.11a8.2 8.2 0 0 0 2.39 7s1.71.9 2.47.06c1.06-1.16 2.43-3 2.17-4.54s.68-2 .68-2c2.11-1.99-.65-3.21-2.34-3.63z" fill="#81524f" /><path d="M539.14 332.41c0 .89.77 1.76 1.42 1.31l-.28-1.68s-1.19-.84-1.14.37zm28.78 6.59l-4.78 2.17-2.64 1.4v2.55l2.1-.78c.49.31 2.23-.45 2.23-.45.15.39.4.45.4.45l1-1.28a4 4 0 0 0-.37-2.13l1.92-1c.53-.65.14-.93.14-.93z" fill="#ffac84" /><path d="M560.73 342.26l-6.79 2.87a2.44 2.44 0 0 1-2.14 0c-4.11-2.37-5.81-3.77-6.51-4.16a3.45 3.45 0 0 0-3.1-.3c-2.68 1.16-2.43 6.35.42 7.2 1.9.56 7.36 2.3 9.83 2.83a2.82 2.82 0 0 0 2.15-.4l7.58-5s.2-.21 0-1.34a2.5 2.5 0 0 0-1.44-1.7z" fill="#002d42" /></g></g></svg>