<?xml version="1.0" encoding="utf-8"?>
<!-- Generator: Adobe Illustrator 17.0.0, SVG Export Plug-In . SVG Version: 6.00 Build 0)  -->
<!DOCTYPE svg PUBLIC "-//W3C//DTD SVG 1.1//EN" "http://www.w3.org/Graphics/SVG/1.1/DTD/svg11.dtd">
<svg version="1.1" id="Layer_1" xmlns="http://www.w3.org/2000/svg" xmlns:xlink="http://www.w3.org/1999/xlink" x="0px" y="0px"
	 width="799.9px" height="479.94px" viewBox="0 0 799.9 479.94" enable-background="new 0 0 799.9 479.94" xml:space="preserve">
<g>
	<g>
		<g>
			<g>
				<path fill="#596273" d="M-47.536,245.91c-0.812,0-1.471-0.656-1.471-1.471c0-0.812,0.659-1.464,1.471-1.464
					c0.812,0,1.469,0.652,1.469,1.464C-46.066,245.254-46.724,245.91-47.536,245.91z"/>
			</g>
		</g>
	</g>
</g>
<g>
	<g>
		<path fill="#F3F3F3" d="M237.996,395.271c0,9.114-7.399,16.515-16.524,16.515c-9.129,0-16.528-7.401-16.528-16.515
			c0-9.135,7.399-16.535,16.528-16.535C230.596,378.736,237.996,386.137,237.996,395.271z"/>
	</g>
	<path fill="#FF3D0D" d="M273.99,213.921c0,32.376-26.247,58.618-58.625,58.618c-32.373,0-58.618-26.242-58.618-58.618
		c0-32.377,26.245-58.618,58.618-58.618C247.743,155.303,273.99,181.544,273.99,213.921z"/>
	<path fill="#F3F3F3" d="M595.009,95.103c0,32.373-26.247,58.615-58.621,58.615c-32.376,0-58.621-26.242-58.621-58.615
		c0-32.38,26.245-58.621,58.621-58.621C568.762,36.481,595.009,62.723,595.009,95.103z"/>
	<g>
		<g>
			<path fill="#CDD5D7" d="M245.191,354.698c-20.69,0-37.52-16.831-37.52-37.524c0-20.689,16.831-37.524,37.52-37.524
				s37.522,16.834,37.522,37.524C282.713,337.867,265.88,354.698,245.191,354.698z M245.191,285.906
				c-17.242,0-31.268,14.025-31.268,31.268c0,17.239,14.026,31.268,31.268,31.268c17.243,0,31.268-14.029,31.268-31.268
				C276.459,299.932,262.433,285.906,245.191,285.906z"/>
		</g>
		<g>
			<path fill="#CDD5D7" d="M245.191,351.294l-1.424-0.727c-12.623-6.457-20.463-19.252-20.463-33.393
				c0-14.137,7.84-26.933,20.463-33.393l1.424-0.727l1.426,0.727c12.621,6.46,20.461,19.255,20.461,33.393
				c0,14.141-7.84,26.936-20.461,33.393L245.191,351.294z M245.191,290.123c-9.687,5.592-15.634,15.815-15.634,27.051
				c0,11.239,5.947,21.459,15.634,27.051c9.684-5.592,15.634-15.812,15.634-27.051C260.825,305.938,254.874,295.715,245.191,290.123
				z"/>
		</g>
		<g>
			<path fill="#CDD5D7" d="M245.191,304.668c-9.57,0-18.698-3.635-25.702-10.233l4.289-4.549c5.838,5.496,13.443,8.526,21.413,8.526
				s15.575-3.029,21.413-8.526l4.288,4.549C263.89,301.034,254.761,304.668,245.191,304.668z"/>
		</g>
		<g>
			<path fill="#CDD5D7" d="M266.604,344.462c-5.838-5.496-13.443-8.526-21.413-8.526s-15.575,3.029-21.413,8.526l-4.289-4.549
				c7.004-6.598,16.132-10.233,25.702-10.233c9.57,0,18.7,3.635,25.701,10.233L266.604,344.462z"/>
		</g>
		<g>
			<rect x="242.064" y="282.782" fill="#CDD5D7" width="6.254" height="68.788"/>
		</g>
		<g>
			<rect x="210.795" y="314.049" fill="#CDD5D7" width="68.792" height="6.25"/>
		</g>
	</g>
	<g>
		<path fill="#FF3D0D" d="M326.689,74.255c0,41.007-33.246,74.259-74.259,74.259c-41.009,0-74.257-33.251-74.257-74.259
			C178.174,33.242,211.421,0,252.43,0C293.443,0,326.689,33.242,326.689,74.255z"/>
		<g>
			
				<line fill="none" stroke="#FFFFFF" stroke-width="6.4292" stroke-miterlimit="10" x1="221.618" y1="105.523" x2="284.156" y2="42.987"/>
			<circle fill="none" stroke="#FFFFFF" stroke-width="6.4292" stroke-miterlimit="10" cx="234.127" cy="55.493" r="12.508"/>
			<circle fill="none" stroke="#FFFFFF" stroke-width="6.4292" stroke-miterlimit="10" cx="268.522" cy="93.017" r="12.507"/>
		</g>
	</g>
	<g>
		<g>
			<path fill="#474F59" d="M514.741,452.755c0,14.953-12.233,27.185-27.184,27.185H325.168c-14.949,0-27.176-12.233-27.176-27.185
				V68.029c0-14.946,12.226-27.169,27.176-27.169h162.389c14.951,0,27.184,12.223,27.184,27.169V452.755z"/>
		</g>
		<g>
			<path fill="#30363D" d="M329.355,475.756c-14.96,0-27.191-12.233-27.191-27.186V72.222c0-14.956,12.231-27.189,27.191-27.189
				h154.023c14.956,0,27.178,12.233,27.178,27.189v376.348c0,14.953-12.222,27.186-27.178,27.186H329.355z"/>
		</g>
		<g>
			<path fill="#596273" d="M380.574,67.693c0,2.013-1.644,3.641-3.651,3.641c-2.025,0-3.664-1.628-3.664-3.641
				c0-2.029,1.64-3.664,3.664-3.664C378.929,64.029,380.574,65.664,380.574,67.693z"/>
			<path fill="#596273" d="M408.355,54.97c0,1.29-1.041,2.352-2.336,2.352c-1.308,0-2.355-1.062-2.355-2.352
				c0-1.299,1.048-2.365,2.355-2.365C407.314,52.605,408.355,53.671,408.355,54.97z"/>
			<path fill="#596273" d="M420.476,67.335c0,0.957-0.784,1.74-1.738,1.74h-25.094c-0.959,0-1.75-0.783-1.75-1.74l0,0
				c0-0.97,0.791-1.74,1.75-1.74h25.094C419.691,65.595,420.476,66.364,420.476,67.335L420.476,67.335z"/>
		</g>
		<path fill="#596273" d="M421.341,456.596c0,1.73-1.395,3.131-3.128,3.131h-23.005c-1.725,0-3.14-1.401-3.14-3.131v-6.279
			c0-1.74,1.415-3.138,3.14-3.138h23.005c1.733,0,3.128,1.398,3.128,3.138V456.596z"/>
		<polygon fill="#30363D" points="301.909,109.24 301.909,109.24 296.801,109.24 296.801,109.24 296.801,92.511 296.801,92.511 
			301.909,92.511 301.909,92.511 		"/>
		<polygon fill="#30363D" points="301.909,153.152 301.909,153.152 296.801,153.152 296.801,153.152 296.801,124.92 296.801,124.92 
			301.909,124.92 301.909,124.92 		"/>
		<polygon fill="#30363D" points="301.909,186.607 301.909,186.607 296.801,186.607 296.801,186.607 296.801,159.687 
			296.801,159.687 301.909,159.687 301.909,159.687 		"/>
		<g>
			<rect x="311.055" y="90.682" fill="#FFFFFF" width="190.264" height="337.686"/>
		</g>
	</g>
	<g>
		<g>
			<path fill="#CDD5D7" d="M621.951,183.166c0,15.617-28.26,58.407-28.26,58.407s-28.261-42.79-28.261-58.407
				c0-15.604,12.65-28.258,28.261-28.258C609.298,154.908,621.951,167.562,621.951,183.166z"/>
		</g>
		<g>
			<path fill="#FFFFFF" d="M602.053,184.735c0,4.622-3.748,8.365-8.365,8.365c-4.615,0-8.355-3.743-8.355-8.365
				c0-4.608,3.74-8.358,8.355-8.358C598.305,176.377,602.053,180.127,602.053,184.735z"/>
		</g>
	</g>
	<g>
		<g>
			<path fill="#FFFFFF" d="M215.365,249.879c-19.824,0-35.957-16.134-35.957-35.958c0-19.828,16.132-35.958,35.957-35.958
				c19.831,0,35.96,16.13,35.96,35.958c0,2.7-0.298,5.391-0.891,8.003l-6.098-1.388c0.488-2.158,0.737-4.378,0.737-6.614
				c0-16.378-13.325-29.702-29.707-29.702c-16.377,0-29.704,13.325-29.704,29.702c0,16.38,13.326,29.705,29.704,29.705
				c6.57,0,12.794-2.099,17.994-6.069c1.433-1.089,2.765-2.309,3.962-3.628l4.626,4.207c-1.454,1.599-3.064,3.072-4.794,4.391
				C230.851,247.34,223.317,249.879,215.365,249.879z"/>
		</g>
		<g>
			<path fill="#FFFFFF" d="M215.365,231.12c-9.481,0-17.195-7.723-17.195-17.199c0-9.483,7.714-17.196,17.195-17.196
				c9.486,0,17.2,7.713,17.2,17.196C232.565,223.397,224.852,231.12,215.365,231.12z M215.365,202.977
				c-6.032,0-10.943,4.911-10.943,10.944c0,6.035,4.911,10.947,10.943,10.947c6.038,0,10.944-4.911,10.944-10.947
				C226.309,207.888,221.403,202.977,215.365,202.977z"/>
		</g>
		<g>
			<path fill="#FFFFFF" d="M238.251,231.137c-6.988,0-12.675-5.638-12.675-12.555h6.253c0,3.477,2.882,6.302,6.422,6.302
				c3.542,0,6.422-2.825,6.422-6.302h6.253C250.925,225.499,245.24,231.137,238.251,231.137z"/>
		</g>
	</g>
	<g>
		<circle fill="#FF3D0D" cx="163.458" cy="133.666" r="23.452"/>
		<polygon fill="#FFFFFF" points="173.677,133.666 166.002,138.1 158.325,142.53 158.325,133.666 158.325,124.805 166.002,129.235 
					"/>
	</g>
	<g>
		<path fill="#FF3D0D" d="M345.846,17.976c0,4.94-4.008,8.95-8.955,8.95c-4.947,0-8.955-4.01-8.955-8.95
			c0-4.95,4.008-8.963,8.955-8.963C341.838,9.013,345.846,13.026,345.846,17.976z"/>
	</g>
	<g>
		<path fill="#E0E1E4" d="M570.823,39.906c0,8.654-7.016,15.67-15.672,15.67c-8.659,0-15.675-7.016-15.675-15.67
			c0-8.664,7.016-15.68,15.675-15.68C563.807,24.226,570.823,31.241,570.823,39.906z"/>
	</g>
	<g>
		<g>
			<rect x="314.599" y="194.461" fill="#F3F3F3" width="183.245" height="31.607"/>
			<rect x="314.599" y="194.461" fill="#D9E1E4" width="32.236" height="31.607"/>
			<line fill="none" stroke="#D9E1E4" stroke-width="3.2619" x1="358.868" y1="206.51" x2="455.132" y2="206.51"/>
			<line fill="none" stroke="#D9E1E4" stroke-width="3.2619" x1="358.868" y1="214.921" x2="433.61" y2="214.921"/>
			<line fill="none" stroke="#D9E1E4" stroke-width="3.2619" x1="471.244" y1="210.191" x2="488.531" y2="210.191"/>
		</g>
		<g>
			<rect x="314.599" y="227.594" fill="#FFFFFF" width="183.245" height="31.603"/>
			<rect x="314.599" y="227.594" fill="#F3F3F3" width="32.236" height="31.603"/>
			<line fill="none" stroke="#D9E1E4" stroke-width="3.2619" x1="358.868" y1="239.64" x2="455.132" y2="239.64"/>
			<line fill="none" stroke="#D9E1E4" stroke-width="3.2619" x1="358.868" y1="248.05" x2="433.61" y2="248.05"/>
			<line fill="none" stroke="#D9E1E4" stroke-width="3.2619" x1="471.244" y1="243.32" x2="488.531" y2="243.32"/>
		</g>
		<g>
			<rect x="314.599" y="260.724" fill="#F3F3F3" width="183.245" height="31.603"/>
			<rect x="314.599" y="260.724" fill="#4E99FF" width="32.236" height="31.603"/>
			<line fill="none" stroke="#D9E1E4" stroke-width="3.2619" x1="358.868" y1="272.769" x2="455.132" y2="272.769"/>
			<line fill="none" stroke="#D9E1E4" stroke-width="3.2619" x1="358.868" y1="281.18" x2="433.61" y2="281.18"/>
			<line fill="none" stroke="#D9E1E4" stroke-width="3.2619" x1="471.244" y1="276.453" x2="488.531" y2="276.453"/>
		</g>
		<g>
			<rect x="314.599" y="293.853" fill="#FFFFFF" width="183.245" height="31.603"/>
			<rect x="314.599" y="293.853" fill="#F3F3F3" width="32.236" height="31.603"/>
			<line fill="none" stroke="#D9E1E4" stroke-width="3.2619" x1="358.868" y1="305.899" x2="455.132" y2="305.899"/>
			<line fill="none" stroke="#D9E1E4" stroke-width="3.2619" x1="358.868" y1="314.316" x2="433.61" y2="314.316"/>
			<line fill="none" stroke="#D9E1E4" stroke-width="3.2619" x1="471.244" y1="309.583" x2="488.531" y2="309.583"/>
		</g>
		<g>
			<rect x="341.178" y="326.983" fill="#FDBF14" width="183.243" height="31.606"/>
			<rect x="341.178" y="326.983" fill="#FECE40" width="32.236" height="31.606"/>
			<line fill="none" stroke="#FFFFFF" stroke-width="3.2619" x1="385.445" y1="339.031" x2="481.709" y2="339.031"/>
			<line fill="none" stroke="#FFFFFF" stroke-width="3.2619" x1="385.445" y1="347.445" x2="460.187" y2="347.445"/>
			<line fill="none" stroke="#FFFFFF" stroke-width="3.2619" x1="497.821" y1="342.712" x2="515.11" y2="342.712"/>
		</g>
		<g>
			<rect x="314.599" y="360.119" fill="#FFFFFF" width="183.245" height="31.603"/>
			<rect x="314.599" y="360.119" fill="#F3F3F3" width="32.236" height="31.603"/>
			<line fill="none" stroke="#D9E1E4" stroke-width="3.2619" x1="358.868" y1="372.164" x2="455.132" y2="372.164"/>
			<line fill="none" stroke="#D9E1E4" stroke-width="3.2619" x1="358.868" y1="380.575" x2="433.61" y2="380.575"/>
			<line fill="none" stroke="#D9E1E4" stroke-width="3.2619" x1="471.244" y1="375.845" x2="488.531" y2="375.845"/>
		</g>
		<g>
			<rect x="314.599" y="393.248" fill="#F3F3F3" width="183.245" height="31.603"/>
			<rect x="314.599" y="393.248" fill="#D9E1E4" width="32.236" height="31.603"/>
			<line fill="none" stroke="#D9E1E4" stroke-width="3.2619" x1="358.868" y1="405.293" x2="455.132" y2="405.293"/>
			<line fill="none" stroke="#D9E1E4" stroke-width="3.2619" x1="358.868" y1="413.704" x2="433.61" y2="413.704"/>
			<line fill="none" stroke="#D9E1E4" stroke-width="3.2619" x1="471.244" y1="408.978" x2="488.531" y2="408.978"/>
		</g>
	</g>
	<g>
		<g>
			<g>
				<path fill="#FE3401" d="M552.486,148.82v38.024c0,10.183-8.256,18.436-18.435,18.436c-10.18,0-18.431-8.253-18.431-18.436
					V148.82H552.486z"/>
				<path fill="#E8ECEF" d="M515.62,148.82v38.024c0,10.183-8.251,18.436-18.44,18.436c-10.19,0-18.441-8.253-18.441-18.436V148.82
					H515.62z"/>
				<path fill="#FE3401" d="M478.739,148.82v38.024c0,10.183-8.249,18.436-18.432,18.436c-10.187,0-18.436-8.253-18.436-18.436
					V148.82H478.739z"/>
				<path fill="#E8ECEF" d="M441.871,148.82v38.024c0,10.183-8.253,18.436-18.435,18.436c-10.177,0-18.436-8.253-18.436-18.436
					V148.82H441.871z"/>
				<path fill="#FE3401" d="M405,148.82v38.024c0,10.183-8.254,18.436-18.438,18.436c-10.175,0-18.432-8.253-18.432-18.436V148.82
					H405z"/>
				<path fill="#E8ECEF" d="M368.13,148.82v38.024c0,10.183-8.256,18.436-18.436,18.436c-10.189,0-18.432-8.253-18.432-18.436
					V148.82H368.13z"/>
				<path fill="#FE3401" d="M331.263,148.82v38.024c0,10.183-8.263,18.436-18.431,18.436c-10.19,0-18.441-8.253-18.441-18.436
					V148.82H331.263z"/>
				<path fill="#E8ECEF" d="M294.39,148.82v38.024c0,10.183-8.258,18.436-18.448,18.436c-10.172,0-18.426-8.253-18.426-18.436
					V148.82H294.39z"/>
			</g>
			<g>
				<path fill="#FF3D0D" d="M499.287,88.501c17.739,20.137,35.468,40.257,53.199,60.398c-12.289,0-24.584,0-36.866,0
					c-13.31-20.14-26.604-40.261-39.902-60.398C483.57,88.501,491.437,88.501,499.287,88.501z"/>
				<path fill="#FFFFFF" d="M475.717,88.501c13.289,20.137,26.592,40.257,39.902,60.398c-12.299,0-24.586,0-36.881,0
					c-8.863-20.14-17.723-40.261-26.589-60.398C460.005,88.501,467.858,88.501,475.717,88.501z"/>
				<path fill="#FF3D0D" d="M452.15,88.501c8.866,20.137,17.726,40.257,26.589,60.398c-12.284,0-24.581,0-36.868,0
					c-4.429-20.14-8.868-40.261-13.3-60.398C436.417,88.501,444.295,88.501,452.15,88.501z"/>
				<path fill="#FFFFFF" d="M428.57,88.501c4.433,20.137,8.871,40.257,13.3,60.398c-12.289,0-24.576,0-36.871,0
					c0-20.14,0-40.261,0-60.398C412.85,88.501,420.708,88.501,428.57,88.501z"/>
				<path fill="#FF3D0D" d="M405,88.501c0,20.137,0,40.257,0,60.398c-12.289,0-24.572,0-36.869,0
					c4.429-20.14,8.861-40.261,13.303-60.398C389.284,88.501,397.142,88.501,405,88.501z"/>
				<path fill="#FFFFFF" d="M381.434,88.501c-4.442,20.137-8.874,40.257-13.303,60.398c-12.295,0-24.581,0-36.868,0
					c8.861-20.14,17.729-40.261,26.589-60.398C365.71,88.501,373.566,88.501,381.434,88.501z"/>
				<path fill="#FF3D0D" d="M357.852,88.501c-8.86,20.137-17.728,40.257-26.589,60.398c-12.303,0-24.589,0-36.873,0
					c13.294-20.14,26.594-40.261,39.896-60.398C342.142,88.501,349.989,88.501,357.852,88.501z"/>
				<path fill="#FFFFFF" d="M294.39,148.899c-12.292,0-24.587,0-36.874,0c17.732-20.14,35.463-40.261,53.191-60.398
					c7.855,0,15.718,0,23.579,0C320.984,108.638,307.684,128.759,294.39,148.899z"/>
			</g>
		</g>
	</g>
	<g>
		<path fill="#FF3D0D" d="M558.052,251.777c-4.018,0-7.281,3.26-7.281,7.279v4.855h-16.986l16.986,16.989v24.544
			c0,4.023,3.263,7.279,7.281,7.279h73.178c4.018,0,7.281-3.256,7.281-7.279v-46.389c0-4.019-3.263-7.279-7.281-7.279H558.052z"/>
	</g>
	<g>
		<path fill="#FFFFFF" d="M583.271,291.39h-4.095l-3.505-8.73c-0.788-1.944-1.814-4.878-2.36-6.921h-0.067
			c0.138,2.316,0.307,5.865,0.307,10.499v5.151h-3.924v-22.982h4.093l3.547,9c0.72,1.773,1.811,4.74,2.452,6.72h0.072
			c-0.138-2.421-0.442-6.407-0.442-10.637v-5.082h3.921V291.39z"/>
		<polygon fill="#FFFFFF" points="597.583,291.39 587.217,291.39 587.217,268.407 597.215,268.407 597.215,272.292 591.685,272.292 
			591.685,277.578 596.902,277.578 596.902,281.295 591.685,281.295 591.685,287.502 597.583,287.502 		"/>
		<path fill="#FFFFFF" d="M617.429,291.39h-4.608l-1.362-7.532c-0.368-2.118-0.714-4.747-1.023-7.539h-0.071
			c-0.41,2.76-0.781,5.319-1.257,7.569l-1.536,7.503h-4.439l-3.914-22.982h4.639l1.123,9.171c0.306,2.625,0.513,5.25,0.786,8.049
			h0.097c0.314-2.829,0.817-5.315,1.298-8.082l1.64-9.138h3.608l1.543,9.072c0.41,2.592,0.818,5.151,1.087,8.147h0.067
			c0.302-2.997,0.576-5.454,0.888-8.115l1.123-9.105h4.367L617.429,291.39z"/>
	</g>
	<g>
		<path fill="#FF3D0D" d="M559.835,326.756c-5.177,0-9.378,4.2-9.378,9.381v6.253h-21.89l21.89,21.887v56.286
			c0,5.181,4.201,9.381,9.378,9.381h90.68c5.176,0,9.379-4.201,9.379-9.381v-84.425c0-5.181-4.204-9.381-9.379-9.381H559.835z"/>
	</g>
	<path fill="#FFFFFF" d="M582.73,356.645l-2.645-7.931l-10.776-3.075l-1.617,5.661l7.787,2.223l10.06,30.159l-1.752,6.289
		c-4.61,0.816-8.126,4.835-8.126,9.674c0,5.434,4.419,9.855,9.848,9.855c4.404,0,8.095-2.918,9.356-6.911h15.552
		c1.261,3.993,4.952,6.911,9.35,6.911c5.434,0,9.851-4.421,9.851-9.855c0-5.431-4.417-9.851-9.851-9.851
		c-4.398,0-8.088,2.918-9.35,6.908h-15.552c-0.832-2.632-2.715-4.786-5.185-5.947l1.171-4.204h36.647
		c2.72,0,4.889-1.964,5.135-4.552l7.248-25.354H582.73z M619.769,395.686c2.186,0,3.965,1.779,3.965,3.96
		c0,2.191-1.779,3.963-3.965,3.963c-2.186,0-3.962-1.773-3.962-3.963C615.807,397.465,617.583,395.686,619.769,395.686z
		 M585.511,403.609c-2.183,0-3.959-1.773-3.959-3.963c0-2.181,1.776-3.96,3.959-3.96c2.189,0,3.97,1.779,3.97,3.96
		C589.482,401.837,587.701,403.609,585.511,403.609z M626.894,380.66h-36.115l-5.671-18.124h46.966L626.894,380.66z"/>
</g>
</svg>
