<?xml version="1.0" encoding="utf-8"?>
<!-- Generator: Adobe Illustrator 16.0.0, SVG Export Plug-In . SVG Version: 6.00 Build 0)  -->
<!DOCTYPE svg PUBLIC "-//W3C//DTD SVG 1.1//EN" "http://www.w3.org/Graphics/SVG/1.1/DTD/svg11.dtd">
<svg version="1.1" xmlns="http://www.w3.org/2000/svg" xmlns:xlink="http://www.w3.org/1999/xlink" x="0px" y="0px"
	 width="432.977px" height="432.308px" viewBox="0 0 432.977 432.308" enable-background="new 0 0 432.977 432.308"
	 xml:space="preserve">
<g id="BACKGROUND" display="none">
	<rect x="-37.023" y="-25.027" display="inline" opacity="0.32" fill="#E9E7FD" width="500" height="500"/>
</g>
<g id="OBJECTS">
	<g>
		<g>
			<path fill="#BECBFC" d="M216.447,370.115c-41.024,0-79.592-15.976-108.601-44.983c-29.008-29.009-44.984-67.578-44.984-108.602
				s15.976-79.593,44.984-108.602c29.009-29.008,67.577-44.984,108.601-44.984c41.024,0,79.594,15.976,108.603,44.984
				c29.008,29.009,44.983,67.578,44.983,108.602s-15.976,79.593-44.983,108.602C296.041,354.14,257.471,370.115,216.447,370.115z
				 M216.447,63.374c-40.909,0-79.37,15.932-108.297,44.859C79.222,137.16,63.291,175.62,63.291,216.53
				s15.931,79.371,44.858,108.297c28.928,28.928,67.388,44.858,108.297,44.858c40.91,0,79.371-15.931,108.298-44.858
				c28.928-28.927,44.858-67.388,44.858-108.297s-15.931-79.37-44.858-108.297C295.818,79.305,257.357,63.374,216.447,63.374z"/>
		</g>
		<g>
			<path fill="#BECBFC" d="M216.447,388.399c-23.202,0-45.71-4.544-66.899-13.506c-20.466-8.657-38.847-21.05-54.63-36.833
				c-15.785-15.784-28.177-34.165-36.833-54.631c-8.962-21.189-13.507-43.697-13.507-66.9c0-23.202,4.544-45.71,13.507-66.899
				c8.656-20.466,21.048-38.847,36.833-54.63c15.784-15.785,34.164-28.177,54.63-36.833c21.189-8.962,43.697-13.507,66.899-13.507
				c23.203,0,45.711,4.544,66.9,13.507c20.466,8.656,38.847,21.048,54.63,36.833c15.784,15.784,28.177,34.164,36.834,54.63
				c8.962,21.189,13.506,43.697,13.506,66.899c0,23.203-4.544,45.71-13.506,66.9c-8.657,20.466-21.05,38.847-36.834,54.631
				c-15.783,15.783-34.164,28.176-54.63,36.833C262.158,383.855,239.65,388.399,216.447,388.399z M216.447,45.141
				c-23.137,0-45.582,4.531-66.712,13.468c-20.409,8.632-38.738,20.99-54.478,36.73c-15.74,15.74-28.098,34.069-36.73,54.478
				c-8.937,21.129-13.468,43.575-13.468,66.712s4.531,45.583,13.468,66.712c8.632,20.409,20.99,38.738,36.73,54.479
				c15.74,15.739,34.069,28.098,54.478,36.729c21.13,8.938,43.575,13.469,66.712,13.469c23.138,0,45.583-4.531,66.713-13.469
				c20.409-8.632,38.737-20.99,54.478-36.729c15.74-15.74,28.099-34.069,36.73-54.479c8.938-21.13,13.469-43.575,13.469-66.712
				s-4.531-45.583-13.469-66.712c-8.632-20.409-20.99-38.738-36.73-54.478c-15.74-15.74-34.068-28.098-54.478-36.73
				C262.03,49.672,239.584,45.141,216.447,45.141z"/>
		</g>
		<g>
			<path fill="#BECBFC" d="M216.447,337.965c-16.393,0-32.296-3.211-47.268-9.543c-14.46-6.116-27.447-14.872-38.599-26.024
				s-19.908-24.14-26.024-38.6c-6.333-14.971-9.543-30.874-9.543-47.268c0-16.394,3.211-32.297,9.543-47.268
				c6.116-14.46,14.872-27.447,26.024-38.599s24.139-19.908,38.599-26.024c14.971-6.333,30.875-9.543,47.268-9.543
				c16.395,0,32.298,3.211,47.269,9.543c14.46,6.116,27.447,14.872,38.6,26.024s19.908,24.139,26.024,38.599
				c6.332,14.971,9.543,30.875,9.543,47.268c0,16.394-3.211,32.297-9.543,47.268c-6.116,14.46-14.872,27.447-26.024,38.6
				s-24.14,19.908-38.6,26.024C248.745,334.754,232.841,337.965,216.447,337.965z M216.447,95.435
				c-16.347,0-32.206,3.202-47.135,9.516c-14.42,6.099-27.37,14.831-38.492,25.952c-11.121,11.121-19.853,24.071-25.952,38.491
				c-6.314,14.929-9.516,30.788-9.516,47.136c0,16.348,3.202,32.207,9.516,47.136c6.099,14.42,14.831,27.37,25.952,38.491
				c11.122,11.121,24.072,19.853,38.492,25.952c14.929,6.314,30.788,9.516,47.135,9.516c16.349,0,32.207-3.201,47.137-9.516
				c14.42-6.1,27.37-14.831,38.491-25.952s19.853-24.071,25.951-38.491c6.315-14.93,9.517-30.788,9.517-47.136
				c0-16.348-3.201-32.207-9.517-47.136c-6.099-14.42-14.83-27.37-25.951-38.491c-11.121-11.122-24.071-19.853-38.491-25.952
				C248.654,98.636,232.795,95.435,216.447,95.435z"/>
		</g>
		<g opacity="0.38">
			<path fill="#BECBFC" d="M216.447,410.004c-26.118,0-51.456-5.115-75.309-15.204c-23.039-9.745-43.729-23.695-61.498-41.463
				c-17.768-17.769-31.718-38.46-41.463-61.498c-10.089-23.853-15.204-49.19-15.204-75.309s5.115-51.456,15.204-75.309
				c9.745-23.039,23.695-43.729,41.463-61.497c17.769-17.769,38.459-31.719,61.498-41.463c23.853-10.089,49.19-15.205,75.309-15.205
				c26.119,0,51.457,5.116,75.31,15.205c23.038,9.744,43.729,23.694,61.497,41.463c17.769,17.768,31.719,38.458,41.464,61.497
				c10.089,23.853,15.204,49.19,15.204,75.309s-5.115,51.457-15.204,75.309c-9.745,23.038-23.695,43.729-41.464,61.498
				c-17.768,17.768-38.459,31.718-61.497,41.463C267.904,404.889,242.566,410.004,216.447,410.004z M216.447,23.598
				c-26.045,0-51.312,5.101-75.098,15.161c-22.974,9.717-43.607,23.628-61.326,41.347c-17.719,17.719-31.63,38.352-41.347,61.326
				c-10.061,23.786-15.162,49.052-15.162,75.098c0,26.045,5.101,51.313,15.162,75.098c9.717,22.975,23.628,43.607,41.347,61.326
				c17.718,17.719,38.352,31.63,61.326,41.347c23.786,10.061,49.052,15.161,75.098,15.161c26.046,0,51.313-5.101,75.099-15.161
				c22.975-9.717,43.607-23.628,61.326-41.347s31.63-38.352,41.347-61.326c10.061-23.785,15.161-49.053,15.161-75.098
				c0-26.046-5.101-51.312-15.161-75.098c-9.717-22.974-23.628-43.607-41.347-61.326s-38.352-31.63-61.326-41.347
				C267.759,28.698,242.493,23.598,216.447,23.598z"/>
		</g>
		<g opacity="0.18">
			<path fill="#BECBFC" d="M216.447,433.06c-29.23,0-57.588-5.725-84.283-17.016c-25.784-10.906-48.941-26.519-68.826-46.404
				c-19.886-19.886-35.499-43.043-46.404-68.826C5.643,274.118-0.083,245.761-0.083,216.53s5.725-57.588,17.017-84.283
				c10.905-25.784,26.518-48.94,46.404-68.826c19.885-19.886,43.042-35.498,68.826-46.404C158.859,5.726,187.216,0,216.447,0
				c29.231,0,57.589,5.726,84.284,17.017c25.783,10.906,48.94,26.518,68.826,46.404s35.498,43.042,46.404,68.826
				c11.291,26.695,17.016,55.052,17.016,84.283s-5.725,57.588-17.016,84.284c-10.906,25.783-26.519,48.94-46.404,68.826
				s-43.043,35.498-68.826,46.404C274.036,427.335,245.678,433.06,216.447,433.06z M216.447,0.606
				c-29.149,0-57.427,5.709-84.047,16.968C106.688,28.45,83.596,44.019,63.766,63.849c-19.831,19.83-35.399,42.922-46.275,68.634
				C6.232,159.103,0.523,187.38,0.523,216.53c0,29.15,5.708,57.427,16.968,84.047c10.876,25.712,26.444,48.804,46.275,68.634
				c19.83,19.83,42.922,35.399,68.634,46.274c26.62,11.26,54.897,16.969,84.047,16.969c29.15,0,57.428-5.709,84.048-16.969
				c25.712-10.875,48.804-26.444,68.634-46.274s35.399-42.922,46.274-68.634c11.26-26.62,16.969-54.897,16.969-84.047
				c0-29.149-5.709-57.427-16.969-84.047c-10.875-25.712-26.444-48.804-46.274-68.634s-42.922-35.399-68.634-46.274
				C273.875,6.315,245.597,0.606,216.447,0.606z"/>
		</g>
		<g>
			<path fill="#BECBFC" d="M216.447,416.441c-26.987,0-53.168-5.286-77.814-15.711c-23.805-10.068-45.185-24.482-63.544-42.842
				s-32.773-39.738-42.842-63.544c-10.424-24.646-15.71-50.827-15.71-77.815c0-26.987,5.286-53.168,15.71-77.814
				c10.069-23.805,24.483-45.185,42.842-63.544s39.739-32.774,63.544-42.843c24.646-10.424,50.827-15.71,77.814-15.71
				c26.988,0,53.169,5.286,77.815,15.71c23.805,10.069,45.185,24.483,63.544,42.843s32.773,39.739,42.842,63.544
				c10.425,24.646,15.711,50.827,15.711,77.814c0,26.988-5.286,53.168-15.711,77.815c-10.068,23.806-24.482,45.185-42.842,63.544
				s-39.739,32.773-63.544,42.842C269.616,411.155,243.435,416.441,216.447,416.441z M216.447,17.178
				c-26.912,0-53.02,5.271-77.596,15.666c-23.739,10.041-45.058,24.415-63.367,42.723c-18.308,18.308-32.682,39.627-42.723,63.366
				c-10.395,24.577-15.666,50.685-15.666,77.597c0,26.913,5.271,53.02,15.666,77.597c10.041,23.738,24.415,45.059,42.723,63.366
				c18.309,18.309,39.628,32.683,63.367,42.723c24.577,10.396,50.684,15.666,77.596,15.666c26.913,0,53.021-5.271,77.598-15.666
				c23.738-10.04,45.058-24.414,63.366-42.723c18.308-18.308,32.682-39.628,42.723-63.366
				c10.396-24.577,15.666-50.685,15.666-77.597c0-26.912-5.271-53.02-15.666-77.597c-10.041-23.739-24.415-45.058-42.723-63.366
				c-18.309-18.308-39.628-32.683-63.366-42.723C269.467,22.449,243.36,17.178,216.447,17.178z"/>
		</g>
		<g>
			<defs>
				<circle id="SVGID_1_" cx="203.735" cy="63.04" r="10.829"/>
			</defs>
			<clipPath id="SVGID_2_">
				<use xlink:href="#SVGID_1_"  overflow="visible"/>
			</clipPath>
			<g opacity="0.8" clip-path="url(#SVGID_2_)">
				<circle fill="#BECBFC" cx="203.735" cy="63.04" r="14.632"/>
			</g>
			<g clip-path="url(#SVGID_2_)">
				<g>
					<path fill="#4375FA" d="M203.735,77.543c0,0-0.023-0.004-0.064-0.012c-0.042,0.008-0.064,0.012-0.064,0.012H203.735z"/>
				</g>
				<g>
					<path fill="#819FDE" d="M212.244,73.16c-0.129-2.772-1.805-4.577-2.965-4.448s-3.868-0.258-3.868-0.258
						c-0.198-0.441-0.224-1.007-0.171-1.561c1.254-0.812,2.186-2.61,2.408-4.784c0.283-0.056,0.579-0.395,0.719-0.857
						c0.172-0.569,0.044-1.112-0.287-1.212c-0.12-0.036-0.25-0.008-0.376,0.068c0.018-2.979-0.082-5.255-3.965-5.255
						c-3.67,0-3.942,2.245-3.959,5.194c-0.105-0.085-0.221-0.129-0.338-0.115c-0.343,0.041-0.563,0.553-0.492,1.144
						c0.071,0.59,0.407,1.036,0.75,0.995c0.043-0.005,0.084-0.018,0.123-0.037c0.2,2.122,1.075,3.895,2.269,4.759
						c0.065,0.585,0.05,1.193-0.161,1.661c0,0-2.708,0.387-3.868,0.258s-2.836,1.676-2.965,4.448
						c-0.123,2.633,7.782,4.219,8.573,4.371C204.461,77.378,212.366,75.792,212.244,73.16z"/>
				</g>
			</g>
		</g>
		<g>
			<defs>
				<circle id="SVGID_3_" cx="119.927" cy="359.191" r="16.479"/>
			</defs>
			<clipPath id="SVGID_4_">
				<use xlink:href="#SVGID_3_"  overflow="visible"/>
			</clipPath>
			<g opacity="0.8" clip-path="url(#SVGID_4_)">
				<circle fill="#BECBFC" cx="119.927" cy="359.191" r="22.266"/>
			</g>
			<g clip-path="url(#SVGID_4_)">
				<g>
					<path fill="#4375FA" d="M119.927,381.262c0,0-0.035-0.007-0.098-0.019c-0.063,0.012-0.098,0.019-0.098,0.019H119.927z"/>
				</g>
				<g>
					<path fill="#819FDE" d="M132.875,374.591c-0.196-4.218-2.747-6.964-4.512-6.768s-5.885-0.393-5.885-0.393
						c-0.302-0.672-0.341-1.532-0.261-2.375c1.909-1.235,3.327-3.972,3.665-7.28c0.431-0.085,0.881-0.6,1.094-1.305
						c0.262-0.866,0.066-1.691-0.437-1.844c-0.183-0.055-0.381-0.013-0.572,0.104c0.027-4.533-0.124-7.997-6.034-7.997
						c-5.585,0-6,3.417-6.025,7.904c-0.16-0.13-0.335-0.196-0.514-0.175c-0.521,0.063-0.857,0.842-0.749,1.741
						c0.108,0.898,0.619,1.575,1.14,1.513c0.066-0.008,0.128-0.027,0.188-0.057c0.304,3.229,1.636,5.928,3.453,7.242
						c0.099,0.891,0.076,1.816-0.245,2.528c0,0-4.12,0.589-5.885,0.393s-4.316,2.55-4.512,6.768
						c-0.187,4.008,11.842,6.421,13.046,6.652C121.033,381.012,133.062,378.599,132.875,374.591z"/>
				</g>
			</g>
		</g>
		<g>
			<defs>
				<circle id="SVGID_5_" cx="383.592" cy="176.509" r="12.242"/>
			</defs>
			<clipPath id="SVGID_6_">
				<use xlink:href="#SVGID_5_"  overflow="visible"/>
			</clipPath>
			<g opacity="0.8" clip-path="url(#SVGID_6_)">
				<circle fill="#BECBFC" cx="383.592" cy="176.509" r="16.541"/>
			</g>
			<g clip-path="url(#SVGID_6_)">
				<g>
					<path fill="#4375FA" d="M383.591,192.904c0,0-0.025-0.005-0.072-0.014c-0.047,0.009-0.073,0.014-0.073,0.014H383.591z"/>
				</g>
				<g>
					<path fill="#819FDE" d="M393.21,187.949c-0.146-3.133-2.041-5.173-3.353-5.027c-1.312,0.146-4.372-0.292-4.372-0.292
						c-0.224-0.499-0.253-1.139-0.193-1.765c1.418-0.918,2.471-2.951,2.722-5.408c0.32-0.064,0.655-0.446,0.813-0.969
						c0.194-0.644,0.049-1.257-0.325-1.37c-0.136-0.042-0.282-0.01-0.424,0.077c0.02-3.368-0.093-5.94-4.482-5.94
						c-4.149,0-4.457,2.538-4.477,5.872c-0.118-0.097-0.249-0.146-0.382-0.13c-0.387,0.046-0.636,0.625-0.556,1.293
						s0.459,1.171,0.847,1.124c0.049-0.006,0.096-0.02,0.14-0.042c0.226,2.398,1.215,4.404,2.564,5.38
						c0.074,0.661,0.057,1.349-0.182,1.878c0,0-3.061,0.437-4.372,0.292c-1.312-0.146-3.206,1.894-3.352,5.027
						c-0.139,2.977,8.797,4.77,9.691,4.941C384.413,192.719,393.348,190.926,393.21,187.949z"/>
				</g>
			</g>
		</g>
		<g>
			<circle fill="#819FDE" cx="56.365" cy="278.68" r="5.179"/>
		</g>
		<g>
			<circle fill="#819FDE" cx="388.3" cy="229.242" r="5.179"/>
		</g>
		<g>
			<circle fill="#819FDE" cx="264.001" cy="51.74" r="3.233"/>
		</g>
		<g>
			<circle fill="#819FDE" cx="246.581" cy="366.724" r="3.233"/>
		</g>
		<g>
			<circle fill="#819FDE" cx="189.139" cy="414.278" r="3.233"/>
		</g>
		<g>
			<circle fill="#819FDE" cx="412.783" cy="253.725" r="3.233"/>
		</g>
		<g>
			<circle fill="#819FDE" cx="86.499" cy="63.04" r="3.233"/>
		</g>
	</g>
	<g>
		<defs>
			<circle id="SVGID_7_" cx="17.757" cy="186.868" r="8.004"/>
		</defs>
		<clipPath id="SVGID_8_">
			<use xlink:href="#SVGID_7_"  overflow="visible"/>
		</clipPath>
		<g opacity="0.8" clip-path="url(#SVGID_8_)">
			<circle fill="#BECBFC" cx="17.757" cy="186.868" r="10.815"/>
		</g>
		<g clip-path="url(#SVGID_8_)">
			<g>
				<path fill="#4375FA" d="M17.757,197.587c0,0-0.017-0.003-0.048-0.009c-0.031,0.006-0.047,0.009-0.047,0.009H17.757z"/>
			</g>
			<g>
				<path fill="#819FDE" d="M24.046,194.348c-0.095-2.049-1.334-3.383-2.192-3.288c-0.857,0.096-2.858-0.19-2.858-0.19
					c-0.147-0.326-0.166-0.745-0.127-1.154c0.927-0.6,1.616-1.929,1.78-3.536c0.209-0.042,0.428-0.292,0.532-0.634
					c0.127-0.421,0.032-0.822-0.212-0.896c-0.088-0.027-0.185-0.006-0.278,0.05c0.014-2.202-0.06-3.884-2.931-3.884
					c-2.713,0-2.914,1.66-2.926,3.839c-0.078-0.063-0.163-0.096-0.25-0.085c-0.253,0.03-0.417,0.409-0.364,0.845
					c0.052,0.437,0.3,0.766,0.554,0.735c0.032-0.003,0.063-0.013,0.091-0.027c0.147,1.568,0.794,2.879,1.677,3.518
					c0.048,0.433,0.037,0.882-0.119,1.228c0,0-2.001,0.286-2.859,0.19c-0.857-0.095-2.096,1.239-2.191,3.288
					c-0.09,1.946,5.752,3.118,6.336,3.231C18.294,197.466,24.137,196.294,24.046,194.348z"/>
			</g>
		</g>
	</g>
	<path fill="#BECBFC" d="M358.56,220.738c0-77.3-62.664-139.965-139.965-139.965c-77.3,0-139.965,62.665-139.965,139.965
		c0,33.744,11.942,64.696,31.829,88.867h216.271C346.618,285.434,358.56,254.481,358.56,220.738z"/>
	<g>
		<g>
			<defs>
				<path id="XMLID_12_" d="M321.149,249.831c-8.104-19.794-17.324-23.499-17.324-23.499s0.288-0.387,0.754-1.081
					c3.757,1.624,7.001,4.62,9.051,8.028c0.164,0.272,0.592,0.023,0.428-0.25c-2.086-3.467-5.381-6.528-9.198-8.201
					c0.198-0.302,0.418-0.645,0.654-1.025c2.862,0.578,5.645,1.679,8.233,2.954c0.285,0.14,0.536-0.287,0.25-0.428
					c-2.594-1.277-5.358-2.375-8.209-2.971c5.016-8.245,15.794-30.959-15.769-33.558c1.964-2.144,4.698-3.494,7.407-4.458
					c0.298-0.106,0.17-0.585-0.132-0.478c-2.711,0.965-5.406,2.279-7.422,4.372c0.303-1.394,0.766-2.761,1.293-4.07
					c0.119-0.295-0.359-0.424-0.477-0.132c-0.579,1.436-1.077,2.934-1.378,4.462c-0.492-0.463-1.617-1.487-3.227-2.767
					c-0.861-1.286-1.848-2.484-2.88-3.548c-5.38-5.547-12.932-7.404-20.47-6.672c-0.12,0.012-0.194,0.091-0.223,0.184
					c-4.535-0.038-9.153,1.281-13.43,4.854c-5.283,4.415-6.036,11.184-4.688,17.691c0.081,1.033,0.269,2.035,0.376,2.7
					c0.792,4.874,2.918,9.452,5.518,13.644c-3.228,0.545-9.05,2.491-7.839,9.421c1.658,9.486,9.464,21.443,0.215,22.688
					c-9.249,1.244-13.704,22.423,19.045,42.198c32.748,19.775,63.888,1.051,50.969-14.614
					C312.677,275.276,329.252,269.626,321.149,249.831z M245.606,203.59c1.684,4.844,4.295,9.175,6.709,11.781
					c0,0-0.596,0.008-1.495,0.13C248.515,211.809,246.595,207.833,245.606,203.59z M283.045,183.731
					c0.57,0.603,1.127,1.25,1.655,1.93c-4.562-3.421-11.81-7.877-19.554-8.798C271.829,176.719,278.311,178.731,283.045,183.731z"/>
			</defs>
			<use xlink:href="#XMLID_12_"  overflow="visible" fill="#4375F1"/>
			<clipPath id="XMLID_17_">
				<use xlink:href="#XMLID_12_"  overflow="visible"/>
			</clipPath>
			<path opacity="0.4" clip-path="url(#XMLID_17_)" fill="#507CC7" d="M289.813,216.354c0,0-3.572,1.818-4.371,3.453
				c-0.8,1.635,0.851,11.863,0.851,11.863l20.787,16.498c0,0,5.608,42.894-8.249,54.441c-13.858,11.548-65-40.584-65-40.584
				l14.518-18.477l13.528-4.29l2.31-9.898c0,0-14.514-6.872-2.803-30.492c11.711-23.62,0,0,0,0L289.813,216.354"/>
			<path opacity="0.5" clip-path="url(#XMLID_17_)" fill="#4375F1" d="M263.527,195.036l-7.26-1.311c0,0,2.64,3.959,9.898,2.31
				S263.527,195.036,263.527,195.036"/>
		</g>
		<g>
			<defs>
				<path id="XMLID_11_" d="M262.866,244.537l-2.97-5.279c0,0-8.615,0.852-11.746,4.504c-3.13,3.653-22.989,39.986-22.989,39.986
					s-8.601,4.084-15.68,7.566c1.764,1.102,3.792,3.118,4.947,7.037c6.213-2.245,14.343-5.67,17.28-7.776
					c0,0,19.173-14.677,21.26-24.591S262.866,244.537,262.866,244.537z"/>
			</defs>
			<use xlink:href="#XMLID_11_"  overflow="visible" fill="#E2B187"/>
			<clipPath id="XMLID_18_">
				<use xlink:href="#XMLID_11_"  overflow="visible"/>
			</clipPath>
			<path opacity="0.31" clip-path="url(#XMLID_18_)" fill="#E2B187" d="M244.059,281.162c0,0-7.919-6.27,4.289-22.437
				c11.128-14.738,9.238,4.619,9.238,4.619l-8.127,17.7L244.059,281.162z"/>
		</g>
		<path fill="#E2B187" d="M209.48,291.314c-8.846,4.352-18.923,9.31-19.502,9.6c-1.043,0.521-9.393-2.087-10.436-1.565
			s-6.783,3.652-8.871,4.175c-2.087,0.521,5.218,1.565,8.349,0s4.174,1.565,6.784,2.087c2.609,0.521,4.174,1.043,5.74,0
			c0,0,12.04-3.34,22.884-7.259C213.272,294.433,211.245,292.416,209.48,291.314z"/>
		<g>
			<defs>
				<path id="XMLID_10_" d="M268.248,226.297c0,0,1.565,5.74-5.218,12.523l-3.653,6.783l7.827,8.871l7.827,2.608l16.697-19.307
					l-7.305-4.696l-2.088-21.393L268.248,226.297z"/>
			</defs>
			<use xlink:href="#XMLID_10_"  overflow="visible" fill="#EDBA8F"/>
			<clipPath id="XMLID_19_">
				<use xlink:href="#XMLID_10_"  overflow="visible"/>
			</clipPath>
			<path opacity="0.28" clip-path="url(#XMLID_19_)" fill="#AF703F" d="M267.155,230.02c0,0,14.519-0.66,14.848-9.568
				C282.333,211.542,265.505,226.39,267.155,230.02z"/>
		</g>
		<g>
			<defs>
				<path id="XMLID_9_" d="M265.67,235.683c0,0,3.099,8.878,18.753-2.603c0,0,9.756,5.205,12.428,6.838
					c5.938,3.63,7.201,3.023,8.767,8.763l-13.89,45.972l4.696,18.263L246.313,313l4.446-20.304
					c0.481-5.121-1.512-9.999-5.147-13.516c-7.162-6.928,2.442-18.392,9.995-39.263C256.231,238.193,265.67,235.683,265.67,235.683z
					"/>
			</defs>
			<use xlink:href="#XMLID_9_"  overflow="visible" fill="#DC466F"/>
			<clipPath id="XMLID_20_">
				<use xlink:href="#XMLID_9_"  overflow="visible"/>
			</clipPath>
			<path opacity="0.31" clip-path="url(#XMLID_20_)" fill="#A172AE" d="M291.242,257.075c0,0-8.909,11.549-7.919,33.655
				c0,0-27.48,9.46-39.146,8.854s1.532,7.973,1.532,7.973s32.995,2.51,48.173-7.983C309.059,289.08,291.242,257.075,291.242,257.075
				"/>
		</g>
		<path fill="#EDBA8F" d="M246.728,300.67l-12.919-5.496l-5.389-4.046c-0.341-0.256-0.764-0.376-1.188-0.338l-6.218,0.565
			c-0.251,0.022-0.491,0.116-0.692,0.269c-1.089,0.825-4.618,3.55-3.732,3.55c1.044,0,3.131-0.521,4.696-1.565
			c0,0,4.696,0,5.218-0.521c0,0,2.087,2.087,3.131,2.609c1.044,0.521,0.521,0,0.521,0l-6.985,2.123
			c-0.36,0.109-0.672,0.337-0.886,0.646c-0.879,1.277-3.283,4.732-4.13,5.579c0,0,2.609,1.044,4.696-2.087s7.827-3.131,8.349-2.609
			c0,0-7.305,4.175-9.393,8.349c0,0,0.987,2.565,2.609,0.521c3.145-3.961,7.273-5.196,8.87-5.739l-2.972,3.397
			c-0.375,0.428-0.328,1.079,0.104,1.449l2.868,2.458c0,0,0.522-2.087-0.521-3.131l2.609-2.608c0,0,2.88,5.738,11.354,2.347V300.67z
			"/>
		<path fill="#EDBA8F" d="M269.493,296.565c-11.138,2.325-23.65,4.243-23.65,4.243l0.226,5.57
			c11.426,0.249,20.625-0.458,27.845-1.527C273.667,300.588,271.544,298.042,269.493,296.565z"/>
		<path fill="#EDBA8F" d="M303.45,243.877c-6.743-2.924-12.442,13.152-12.442,13.152c-7.306,15.132-5.541,35.014-5.541,35.014
			c-2.427,1.416-8.925,3.051-15.974,4.522c2.052,1.477,4.175,4.022,4.42,8.286c15.032-2.228,21.468-6.024,21.468-6.024
			C301.642,289.435,310.193,246.802,303.45,243.877z"/>
		<g>
			<defs>
				<path id="XMLID_8_" d="M271.115,186.796c0,0-14.518,10.889-12.605,27.64c0.874,7.654,2.604,10.05,5.677,12.284
					c3.629,2.64,15.725,0.996,18.883-5.097l1.668-4.944c0,0,2.961,2.651,5.945-1.298c2.985-3.949,2.349-10.222-1.953-7.268
					l2.67-7.911l-2.614-6.94L271.115,186.796z"/>
			</defs>
			<use xlink:href="#XMLID_8_"  overflow="visible" fill="#EDBA8F"/>
			<clipPath id="XMLID_21_">
				<use xlink:href="#XMLID_8_"  overflow="visible"/>
			</clipPath>
			<path opacity="0.28" clip-path="url(#XMLID_21_)" fill="#AF703F" d="M260.711,195.782c0,0,5.454,2.232,10.403-7.336
				c0,0,1.319,15.508,11.548,15.178l-2.97-2.64c0,0,1.176,10.888,8.012,6.929c6.837-3.959-13.95-24.747-13.95-24.747l-13.877,4.949
				L260.711,195.782"/>
		</g>
		<path fill="#4375F1" d="M291.242,194.055l-10.559-5.279l-14.848-3.629c0,0-18.147,6.269-9.898,9.898
			c7.238,3.185,13.459-4.046,14.875-5.866c-0.146,2.244,0.055,5.775,2.127,8.792c1.779,2.589,4.588,4.334,8.363,5.212
			c-0.182,5.124,5.979,6.049,5.979,6.049l2.64-1.979l5.279-1.65L291.242,194.055z M273.212,197.787
			c-1.228-1.786-1.78-3.76-1.994-5.526c1.607,6.114,10.125,10.374,10.125,10.374c-0.009,0.074-0.012,0.144-0.018,0.217
			C277.66,201.989,274.935,200.292,273.212,197.787z"/>
		<path fill="#43464A" d="M281.343,183.315c0,0,3.959-1.798,7.919,6.121c0,0,4.949,11.548,0,22.107h-0.99
			C288.272,211.542,290.251,192.042,281.343,183.315z"/>
		<circle fill="#C22373" cx="289.262" cy="212.532" r="4.62"/>
		
			<ellipse transform="matrix(0.9703 0.242 -0.242 0.9703 58.5662 -59.6526)" fill="#43464A" cx="272.104" cy="208.573" rx="0.66" ry="1.98"/>
		
			<ellipse transform="matrix(0.9967 0.0818 -0.0818 0.9967 17.7991 -20.826)" fill="#43464A" cx="263.196" cy="206.923" rx="0.66" ry="1.98"/>
		<path fill="#FFFFFF" d="M262.866,220.398c0,0,6.098,1.742,10.889-3.049c0,0,0,5.662-7.84,6.533
			C265.915,223.882,264.608,223.882,262.866,220.398z"/>
		<path fill="#4375F1" d="M261.988,201.837c0.075-0.303,0.229-0.582,0.434-0.833c0.209-0.246,0.483-0.454,0.8-0.579
			c0.31-0.12,0.659-0.243,0.992-0.16c0.166,0.029,0.318,0.104,0.466,0.174c0.142,0.087,0.273,0.192,0.386,0.325l-0.022,0.063
			c-0.174,0.048-0.326,0.063-0.472,0.07c-0.146,0.025-0.284,0.022-0.416,0.035c-0.132,0.012-0.259,0-0.387-0.003
			c-0.13-0.02-0.258-0.008-0.389,0.008c-0.255,0.048-0.503,0.157-0.73,0.313c-0.233,0.153-0.434,0.37-0.599,0.612L261.988,201.837z"
			/>
		<path fill="#4375F1" d="M275.292,201.837c-0.074-0.303-0.228-0.582-0.433-0.833c-0.209-0.246-0.483-0.454-0.8-0.579
			c-0.31-0.12-0.66-0.243-0.992-0.16c-0.166,0.029-0.318,0.104-0.466,0.174c-0.142,0.087-0.273,0.192-0.386,0.325l0.022,0.063
			c0.174,0.048,0.325,0.063,0.471,0.07c0.146,0.025,0.284,0.022,0.416,0.035c0.132,0.012,0.26,0,0.387-0.003
			c0.131-0.02,0.259-0.008,0.389,0.008c0.256,0.048,0.503,0.157,0.731,0.313c0.232,0.153,0.434,0.37,0.598,0.612L275.292,201.837z"
			/>
		<path fill="#E79D90" d="M265.581,216.354c0,0-4.512-1.735-3.471-2.43c0.825-0.55,2.741-3.499,3.5-5.217
			c0.094-0.212,0.407-0.161,0.426,0.07C266.179,210.556,266.334,214.092,265.581,216.354z"/>
		<g>
			<circle fill="#43464A" cx="289.262" cy="212.532" r="1.98"/>
			<g>
				<path fill="#43464A" d="M285.044,222.101h-14.92v-0.764h14.525c0.597-1.152,3.696-7.138,3.999-7.814l0.613,0.342
					c-0.344,0.766-3.965,7.75-4.119,8.046L285.044,222.101z"/>
			</g>
			<ellipse fill="#43464A" cx="269.465" cy="221.606" rx="1.98" ry="0.825"/>
		</g>
		<path fill="#CBCFD6" d="M332.485,314.156H105.149c-1.64,0-2.969-1.329-2.969-2.969l0,0c0-1.641,1.33-2.97,2.969-2.97h227.335
			c1.641,0,2.97,1.329,2.97,2.97l0,0C335.455,312.827,334.125,314.156,332.485,314.156z"/>
		<g>
			<defs>
				<path id="XMLID_7_" d="M119.898,235.971l1.936,56.514c0.12,3.505,2.997,6.285,6.504,6.285h81.27
					c3.682,0,6.631-3.052,6.505-6.731l-1.936-56.514c-0.12-3.505-2.997-6.285-6.505-6.285h-81.27
					C122.721,229.239,119.772,232.291,119.898,235.971z"/>
			</defs>
			<use xlink:href="#XMLID_7_"  overflow="visible" fill="#838BC0"/>
			<clipPath id="XMLID_22_">
				<use xlink:href="#XMLID_7_"  overflow="visible"/>
			</clipPath>
			<path opacity="0.61" clip-path="url(#XMLID_22_)" fill="#838BC0" d="M174.109,272.913c0,0-6.269,24.416,0,31.345
				c6.269,6.93-34.645-2.639-34.645-2.639s5.609-20.127,21.117-28.706c15.507-8.579,0,0,0,0l7.259,4.619L174.109,272.913"/>
		</g>
		<path fill="#838BC0" d="M160.582,272.913h13.528c0,0-20.457,32.995-2.145,35.305h-28.21
			C143.754,308.218,138.145,295.02,160.582,272.913z"/>
		<path fill="#FFFFFF" d="M165.196,249.935c0-0.628,0.098-1.232,0.278-1.8c-0.092-0.004-0.185-0.007-0.278-0.007
			c-3.848,0-6.968,3.119-6.968,6.968s3.12,6.968,6.968,6.968c3.616,0,6.588-2.754,6.934-6.278c-0.325,0.055-0.658,0.085-0.998,0.085
			C167.854,255.87,165.196,253.213,165.196,249.935z"/>
	</g>
	<g>
		<defs>
			<circle id="SVGID_9_" cx="102.358" cy="140.177" r="68.66"/>
		</defs>
		<use xlink:href="#SVGID_9_"  overflow="visible" fill="#819FDE"/>
		<clipPath id="SVGID_10_">
			<use xlink:href="#SVGID_9_"  overflow="visible"/>
		</clipPath>
		<circle clip-path="url(#SVGID_10_)" fill="#CDBDF9" cx="102.358" cy="140.177" r="83.647"/>
		<g clip-path="url(#SVGID_10_)">
			<path fill="#6DAAA3" d="M95.192,145.999c0,0-17.914,0-24.183,3.135s-9.404,11.196-8.061,16.57
				c1.344,5.374-5.822,18.809,1.792,25.975c6.837,6.435,12.229,5.646,14.555,4.77c0.264-0.1,0.489-0.2,0.671-0.292
				c1.792-0.896,0,23.735,0,23.735s45.232,2.687,47.919,0s3.583-59.115-2.687-65.384c-6.27-6.27-23.735-8.509-23.735-8.509H95.192z"
				/>
			<g>
				<defs>
					<path id="XMLID_3_" d="M93.625,130.1l-0.672,15.898l14.698,9.748c0.573,0.37,1.338,0.042,1.463-0.628l2.424-12.926
						l-14.331-17.466L93.625,130.1z"/>
				</defs>
				<use xlink:href="#XMLID_3_"  overflow="visible" fill="#E7B59D"/>
				<clipPath id="XMLID_23_">
					<use xlink:href="#XMLID_3_"  overflow="visible"/>
				</clipPath>
				<path opacity="0.45" clip-path="url(#XMLID_23_)" fill="#E7B59D" d="M92.505,140.177c0,0,2.239,1.791,4.031,0
					c0,0,10.3,17.465,19.257,14.331s-9.404-17.466-9.404-17.466l-9.382-7.092l-5.397,3.957L92.505,140.177z"/>
			</g>
			<path fill="#2E5271" d="M94.521,124.278c7.165-0.448,8.061-12.092,8.061-13.435s11.196-4.926,13.883-3.583
				c2.557,1.278,3.235,9.485,3.359,10.076c3.936-2.383,7.388-10.886,5.598-15.898c-2.239-6.27-4.926-4.03-6.717-2.687
				c-1.792,1.344-1.792-4.926-11.196-10.3c-9.405-5.374,1.343,6.27-9.853,5.374c-11.196-0.896-12.092,10.3-12.092,10.3
				c-5.822,0-9.853,4.926-5.374,9.852s0.896,5.374,0,9.853c-0.467,2.335,4.061,3.331,8.5,3.749
				C89.975,125.867,91.84,124.446,94.521,124.278z"/>
			<path fill="#E7B59D" d="M106.165,130.996c8.239,3.582,15.899-0.57,18.638-2.376c-1.989-3.155-3.704-6.319-3.859-9.268
				c-0.076-1.443-0.283-2.78-0.571-4.011c0.038-0.022,0.075-0.047,0.112-0.07c-0.124-0.591-1.463-6.732-4.02-8.011
				c-2.687-1.344-13.883,2.239-13.883,3.583c0,1.068-0.57,8.637-4.399,11.925C99.571,125.955,101.981,129.177,106.165,130.996z"/>
			<path fill="#2E5271" d="M124.802,128.62c-2.738,1.806-10.399,5.958-18.638,2.376c-4.184-1.819-6.594-5.042-7.981-8.228
				c-0.989,0.85-2.192,1.418-3.662,1.51c-2.681,0.167-4.546,1.588-5.831,3.301c4.072,0.384,8.07,0.281,8.07,0.281
				c2.239,25.527,29.109,23.735,33.588,17.018C133.274,140.489,128.552,134.57,124.802,128.62z"/>
			
				<rect x="80.425" y="122.068" transform="matrix(-0.9985 -0.0555 0.0555 -0.9985 174.2462 259.5489)" fill="#61002F" width="20.6" height="10.578"/>
			<path fill="#E7B59D" d="M79.294,140.4c0,0,0-13.883,2.239-15.674c2.239-1.791,7.613-8.509,10.3-6.717
				c2.688,1.791,1.344,2.687,3.135,3.583c1.791,0.896,0.896,2.239,2.239,3.135c1.344,0.896,3.135,4.479,2.239,4.479
				c-0.896,0-4.03,0-4.03,0s-6.27,11.644-8.957,11.196l-0.448,1.792h-6.717V140.4z"/>
			<path fill="#E7B59D" d="M85.788,141.968c0,0,0.896,44.336-3.135,47.023c-4.031,2.687-14.779-0.448-12.54-9.405
				c2.239-8.957,10.3-41.648,10.3-41.648L85.788,141.968z"/>
			<path fill="#EFFDFF" d="M106.389,133.907c0,0,7.834,2.351,11.413,1.556c0.284-0.063,0.522,0.209,0.425,0.483
				c-0.389,1.088-1.09,3.137-1.09,3.783C117.137,140.625,109.076,139.281,106.389,133.907z"/>
			<path fill="#E19F9D" d="M115.166,120.472c0,0,10.46,6.29,7.625,8.999c-2.835,2.709-5.031,2.28-5.031,2.28
				S114.101,122.068,115.166,120.472z"/>
			<path fill="#9A6253" d="M106.389,122.711c-0.045-0.557,0.114-1.124,0.45-1.621c0.338-0.494,0.956-0.868,1.598-0.903
				c0.65-0.061,1.212,0.198,1.701,0.471c0.228,0.165,0.456,0.329,0.653,0.52c0.187,0.206,0.371,0.408,0.524,0.638
				c-0.275-0.072-0.52-0.172-0.762-0.268c-0.241-0.097-0.49-0.158-0.717-0.253c-0.469-0.122-0.924-0.262-1.335-0.214
				c-0.409,0.029-0.783,0.182-1.137,0.476C107.013,121.854,106.701,122.256,106.389,122.711z"/>
			<path fill="#9A6253" d="M120.942,118.388c-0.159-0.423-0.471-0.782-0.887-1.03c-0.417-0.245-0.998-0.306-1.479-0.11
				c-0.496,0.18-0.817,0.563-1.081,0.93c-0.11,0.199-0.219,0.398-0.298,0.605c-0.065,0.215-0.131,0.427-0.164,0.647
				c0.177-0.147,0.321-0.305,0.465-0.458c0.143-0.154,0.304-0.284,0.437-0.432c0.301-0.251,0.585-0.51,0.902-0.617
				c0.309-0.12,0.635-0.137,0.996-0.044C120.19,117.976,120.557,118.164,120.942,118.388z"/>
			<g>
				<path fill="#2E5271" d="M104.049,119.241c0.107-0.722,0.429-1.454,0.849-2.044c1.147-1.616,3.015-1.819,4.844-1.45
					c0.848,0.171,1.033-1.16,0.187-1.331c-2.164-0.436-4.409-0.1-5.878,1.677c-0.679,0.821-1.176,1.902-1.333,2.961
					C102.592,119.91,103.922,120.098,104.049,119.241L104.049,119.241z"/>
			</g>
			<g>
				<path fill="#2E5271" d="M115.532,113.665c0.487-0.345,1.102-0.568,1.688-0.654c1.604-0.235,2.779,0.754,3.595,2.044
					c0.378,0.598,1.269-0.045,0.892-0.641c-0.965-1.525-2.433-2.663-4.313-2.527c-0.869,0.063-1.789,0.38-2.504,0.886
					C114.314,113.181,114.955,114.073,115.532,113.665L115.532,113.665z"/>
			</g>
		</g>
	</g>
	<g>
		<g>
			<defs>
				<path id="XMLID_2_" d="M256.849,71.443H379.68c2.146,0,3.886,1.739,3.886,3.885v30.989c0,1.291-0.641,2.497-1.71,3.219
					l-19.644,13.272c-1.021,0.689-2.341-0.285-1.983-1.463l3.929-12.965H256.849c-2.146,0-3.885-1.74-3.885-3.885V75.329
					C252.964,73.183,254.704,71.443,256.849,71.443z"/>
			</defs>
			<use xlink:href="#XMLID_2_"  overflow="visible" fill="#9F71AC"/>
			<clipPath id="XMLID_26_">
				<use xlink:href="#XMLID_2_"  overflow="visible"/>
			</clipPath>
			<polygon opacity="0.22" clip-path="url(#XMLID_26_)" fill="#606060" points="357.808,111.995 362.162,108.367 374.859,108.367 
				358.534,117.436 			"/>
		</g>
		<path fill="#FFFFFF" d="M267.805,81.337h102.679c0.91,0,1.648-0.738,1.648-1.649l0,0c0-0.911-0.738-1.649-1.648-1.649H267.805
			c-0.91,0-1.648,0.738-1.648,1.649l0,0C266.157,80.599,266.895,81.337,267.805,81.337z"/>
		<path fill="#FFFFFF" d="M267.805,89.692h102.679c0.91,0,1.648-0.738,1.648-1.649l0,0c0-0.911-0.738-1.649-1.648-1.649H267.805
			c-0.91,0-1.648,0.738-1.648,1.649l0,0C266.157,88.954,266.895,89.692,267.805,89.692z"/>
		<path fill="#FFFFFF" d="M320.31,98.047h50.656c0.645,0,1.166-0.522,1.166-1.166v-0.966c0-0.644-0.521-1.166-1.166-1.166H320.31
			c-0.644,0-1.166,0.522-1.166,1.166v0.966C319.144,97.525,319.667,98.047,320.31,98.047z"/>
	</g>
	<g>
		<defs>
			<path id="XMLID_14_" d="M206.132,377.935h25.575c0.933,0,1.689,0.757,1.689,1.689v13.479c0,0.561-0.278,1.085-0.743,1.399
				l-8.544,5.773c-0.444,0.3-1.019-0.124-0.863-0.637l1.709-5.639h-18.823c-0.933,0-1.689-0.757-1.689-1.69v-12.687
				C204.443,378.691,205.199,377.935,206.132,377.935z"/>
		</defs>
		<use xlink:href="#XMLID_14_"  overflow="visible" fill="#819FDE"/>
		<clipPath id="XMLID_27_">
			<use xlink:href="#XMLID_14_"  overflow="visible"/>
		</clipPath>
	</g>
	<g>
		<defs>
			<path id="XMLID_15_" d="M388.155,127.595h15.594c0.569,0,1.03,0.461,1.03,1.03v8.219c0,0.342-0.17,0.662-0.453,0.854l-5.21,3.52
				c-0.271,0.183-0.62-0.076-0.525-0.388l1.041-3.438h-11.477c-0.569,0-1.03-0.461-1.03-1.031v-7.735
				C387.125,128.056,387.585,127.595,388.155,127.595z"/>
		</defs>
		<use xlink:href="#XMLID_15_"  overflow="visible" fill="#819FDE"/>
		<clipPath id="XMLID_28_">
			<use xlink:href="#XMLID_15_"  overflow="visible"/>
		</clipPath>
	</g>
	<g>
		<g>
			<defs>
				<path id="XMLID_1_" d="M341.694,114.712H208.055c-2.334,0-4.227,1.893-4.227,4.227v33.715c0,1.404,0.697,2.716,1.86,3.502
					l21.372,14.44c1.11,0.75,2.547-0.31,2.158-1.591l-4.274-14.106h116.75c2.334,0,4.227-1.893,4.227-4.227v-31.733
					C345.92,116.605,344.028,114.712,341.694,114.712z"/>
			</defs>
			<use xlink:href="#XMLID_1_"  overflow="visible" fill="#E6B851"/>
			<clipPath id="XMLID_29_">
				<use xlink:href="#XMLID_1_"  overflow="visible"/>
			</clipPath>
			<polygon opacity="0.22" clip-path="url(#XMLID_29_)" fill="#E6B851" points="231.852,158.831 227.116,154.884 213.301,154.884 
				231.062,164.752 			"/>
		</g>
		<path fill="#FFFFFF" d="M329.774,125.477H218.061c-0.99,0-1.794-0.804-1.794-1.794l0,0c0-0.991,0.804-1.794,1.794-1.794h111.713
			c0.99,0,1.794,0.803,1.794,1.794l0,0C331.568,124.673,330.764,125.477,329.774,125.477z"/>
		<path fill="#FFFFFF" d="M329.774,134.567H218.061c-0.99,0-1.794-0.803-1.794-1.794l0,0c0-0.991,0.804-1.794,1.794-1.794h111.713
			c0.99,0,1.794,0.803,1.794,1.794l0,0C331.568,133.764,330.764,134.567,329.774,134.567z"/>
		<path fill="#FFFFFF" d="M272.649,143.657h-55.113c-0.7,0-1.269-0.568-1.269-1.269v-1.051c0-0.701,0.568-1.269,1.269-1.269h55.113
			c0.7,0,1.269,0.568,1.269,1.269v1.051C273.917,143.089,273.349,143.657,272.649,143.657z"/>
	</g>
	<g>
		<defs>
			<circle id="SVGID_11_" cx="340.746" cy="350.717" r="56.97"/>
		</defs>
		<clipPath id="SVGID_12_">
			<use xlink:href="#SVGID_11_"  overflow="visible"/>
		</clipPath>
		<circle clip-path="url(#SVGID_12_)" fill="#7CBFB9" cx="340.746" cy="350.717" r="70.45"/>
		<g clip-path="url(#SVGID_12_)">
			<g>
				<defs>
					<path id="XMLID_5_" d="M345.579,356.82c-4.323,9.919-11.954,18.058-17.804,10.173c-4.36-5.877-0.948-13.875,1.071-17.566
						c6.1-1.984,12.301-2.78,12.301-2.78h5.802c0,0,3.438,0.001,7.731,0.274C351.587,348.638,347.827,351.663,345.579,356.82z"/>
				</defs>
				<use xlink:href="#XMLID_5_"  overflow="visible" fill="#E7B59D"/>
				<clipPath id="XMLID_30_">
					<use xlink:href="#XMLID_5_"  overflow="visible"/>
				</clipPath>
				<path opacity="0.45" clip-path="url(#XMLID_30_)" fill="#E7B59D" d="M334.133,346.646c0,0.509-0.254,8.394-0.254,8.394
					l-4.832-8.139L334.133,346.646z"/>
			</g>
			<path fill="#F9CA45" d="M319.182,354.521c2.208-2.209,5.917-3.876,9.664-5.095c-2.02,3.691-5.432,11.689-1.071,17.566
				c5.85,7.885,13.48-0.254,17.804-10.173c2.248-5.157,6.009-8.183,9.102-9.899c5.133,0.328,11.488,1.047,14.647,2.627
				c5.803,2.901,8.703,10.361,7.46,15.334c-1.243,4.974,5.388,17.406-1.657,24.037c-6.327,5.954-11.317,5.225-13.47,4.414
				c-0.244-0.092-0.452-0.186-0.621-0.27c-1.658-0.829,0,21.965,0,21.965s-41.857,2.486-44.344,0
				C314.208,412.541,313.38,360.323,319.182,354.521z"/>
			<g>
				<defs>
					<path id="XMLID_13_" d="M344.561,304.428c0,0-4.069-5.85-13.988-1.271s-22.381,26.959-6.867,46.797
						c0,0,3.307-4.832,15.261-6.104C350.919,342.578,344.561,304.428,344.561,304.428z"/>
				</defs>
				<use xlink:href="#XMLID_13_"  overflow="visible" fill="#A072AE"/>
				<clipPath id="XMLID_31_">
					<use xlink:href="#XMLID_13_"  overflow="visible"/>
				</clipPath>
				<polygon opacity="0.52" clip-path="url(#XMLID_31_)" fill="#A072AE" points="346.596,302.394 335.66,306.717 343.29,301.376 
									"/>
				<path opacity="0.52" clip-path="url(#XMLID_31_)" fill="#A072AE" d="M322.34,321.328c0,0-10.079,25.573,7.724,26.082
					C347.868,347.919,322.34,321.328,322.34,321.328"/>
			</g>
			<g>
				<defs>
					<path id="XMLID_4_" d="M348.145,331.938l0.622,14.713l-13.603,9.021c-0.529,0.343-1.237,0.038-1.354-0.582l-2.243-11.962
						l13.262-16.162L348.145,331.938z"/>
				</defs>
				<use xlink:href="#XMLID_4_"  overflow="visible" fill="#E7B59D"/>
				<clipPath id="XMLID_33_">
					<use xlink:href="#XMLID_4_"  overflow="visible"/>
				</clipPath>
				<path opacity="0.45" clip-path="url(#XMLID_33_)" fill="#E7B59D" d="M349.181,341.264c0,0-2.454-2.115-4.111-3.772
					c0,0-4.323,12.462-17.295,10.937c-8.721-1.026,8.559-10.065,8.559-10.065l8.682-6.563l4.995,3.661L349.181,341.264z"/>
			</g>
			<g>
				<defs>
					<path id="XMLID_6_" d="M320.4,330.879c0.319-4.479,2.876-12.943,2.889-12.663c0.114-0.546,1.354-6.229,3.721-7.413
						c2.486-1.243,12.847,2.072,12.847,3.315c0,0.988,0.527,7.992,4.071,11.036c0.915,0.785,2.028,1.312,3.389,1.396
						c2.48,0.155,4.207,1.47,5.396,3.056c-3.769,0.354-7.469,0.26-7.469,0.26c-3.226,18.307-15.233,16.265-18.74,15.764
						C322.943,345.121,319.888,338.054,320.4,330.879z"/>
				</defs>
				<use xlink:href="#XMLID_6_"  overflow="visible" fill="#E7B59D"/>
				<clipPath id="XMLID_34_">
					<use xlink:href="#XMLID_6_"  overflow="visible"/>
				</clipPath>
				<path opacity="0.45" clip-path="url(#XMLID_34_)" fill="#E7B59D" d="M331.59,309.515c0.763,0,0.887,16.09,15.831,18.727
					c14.943,2.638-5.403-15.42-5.403-15.42L331.59,309.515z"/>
			</g>
			<path fill="#EFFDFF" d="M336.058,337.565c0,0-6.319,1.896-9.207,1.255c-0.229-0.051-0.421,0.169-0.342,0.39
				c0.313,0.878,0.879,2.53,0.879,3.052C327.388,342.984,333.89,341.9,336.058,337.565z"/>
			<path fill="#9A6253" d="M336.058,328.535c0.036-0.449-0.093-0.906-0.363-1.308c-0.272-0.398-0.771-0.7-1.289-0.729
				c-0.524-0.049-0.978,0.16-1.371,0.38c-0.185,0.133-0.368,0.266-0.527,0.419c-0.15,0.166-0.299,0.329-0.423,0.515
				c0.222-0.059,0.419-0.139,0.614-0.216c0.194-0.079,0.395-0.128,0.578-0.204c0.379-0.099,0.745-0.212,1.077-0.173
				c0.33,0.022,0.632,0.146,0.917,0.384C335.554,327.844,335.805,328.168,336.058,328.535z"/>
			<path fill="#9A6253" d="M324.319,325.048c0.128-0.341,0.379-0.631,0.716-0.83c0.336-0.197,0.805-0.247,1.192-0.089
				c0.4,0.146,0.66,0.454,0.873,0.75c0.088,0.16,0.177,0.321,0.24,0.488c0.053,0.173,0.105,0.344,0.132,0.521
				c-0.142-0.119-0.259-0.245-0.375-0.369c-0.114-0.124-0.244-0.229-0.352-0.349c-0.243-0.202-0.473-0.411-0.729-0.497
				c-0.249-0.098-0.512-0.111-0.803-0.035C324.925,324.716,324.629,324.867,324.319,325.048z"/>
			<path fill="#A072AE" d="M331.59,310.532c0,0,4.323,15.005,16.659,16.276c12.335,1.272-10.047-18.312-10.047-18.312h-12.462
				l-3.815,9.41C321.925,317.907,329.301,315.618,331.59,310.532z"/>
			<path fill="#A072AE" d="M331.568,308.497c0.276,0,12.23-6.612,17.317-5.087c5.086,1.526,16.531,17.549,15.005,33.572
				c-1.525,16.022-23.144,13.734-23.144,13.734s11.19-14.497,1.017-31.029l-7.63-7.121L331.568,308.497z"/>
			
				<rect x="341.806" y="326.286" transform="matrix(0.5767 -0.817 0.817 0.5767 -121.8387 427.2142)" fill="#61002F" width="19.064" height="9.789"/>
			<path fill="#E7B59D" d="M360.906,341.192c0,0,0-11.126-1.795-12.563c-1.794-1.436-6.102-6.819-8.255-5.384
				c-2.153,1.437-1.076,2.154-2.513,2.872c-1.436,0.718-0.718,1.794-1.794,2.512c-1.077,0.718-2.513,3.59-1.795,3.59s3.23,0,3.23,0
				s5.024,9.332,7.178,8.973l0.359,1.436h5.384V341.192z"/>
			<path fill="#E7B59D" d="M354.735,339.017c0,0-0.166,44.933,3.563,47.42c3.73,2.486,13.677-0.415,11.604-8.703
				c-2.072-8.289-9.532-38.542-9.532-38.542L354.735,339.017z"/>
			<path fill="#E2A29D" d="M328.792,334.439l-2.289-1.272c0,0,1.664-2.163,2.435-3.662c0.102-0.196,0.397-0.127,0.401,0.094
				C329.358,330.823,329.301,332.914,328.792,334.439z"/>
			<g>
				<path fill="#A072AE" d="M337.646,326.308c-0.532-1.714-1.968-3.142-3.698-3.595c-0.237-0.063-0.137-0.431,0.102-0.368
					c1.861,0.488,3.393,2.021,3.964,3.861C338.086,326.441,337.718,326.542,337.646,326.308L337.646,326.308z"/>
			</g>
			<g>
				<path fill="#A072AE" d="M328.099,320.633c-1.53-0.166-3.145,0.475-4.093,1.682c-0.13,0.166-0.386-0.039-0.255-0.205
					c1.021-1.299,2.75-1.979,4.394-1.801C328.355,320.332,328.308,320.656,328.099,320.633L328.099,320.633z"/>
			</g>
			<path fill="#A072AE" d="M330.955,308.497l-0.007,0.544c-0.001,0.196,0.002,0.393,0.008,0.589c0.012,0.392,0.04,0.781,0.076,1.17
				c0.077,0.776,0.199,1.546,0.369,2.304c0.339,1.516,0.872,2.981,1.569,4.354c0.702,1.373,1.582,2.644,2.592,3.788
				c1.021,1.136,2.169,2.146,3.404,3.02c-1.172-0.959-2.236-2.04-3.159-3.223c-0.912-1.192-1.679-2.486-2.261-3.854
				c-0.579-1.369-0.988-2.804-1.208-4.262c-0.11-0.729-0.175-1.464-0.196-2.197c-0.008-0.366-0.01-0.732,0.006-1.097
				c0.008-0.183,0.018-0.364,0.03-0.546l0.048-0.59H330.955z"/>
		</g>
	</g>
</g>
<g id="DESIGNED_BY_FREEPIK" display="none">
	<g display="inline">
		<g id="XMLID_24_">
			<g id="XMLID_210_">
				<path id="XMLID_278_" fill="#141414" d="M223.082,445.893c-0.433,0.443-0.804,0.932-1.108,1.453l-0.466-0.241
					c-0.066-0.297-0.349-0.502-0.658-0.466c-0.331,0.039-0.568,0.339-0.529,0.67s0.339,0.567,0.67,0.528
					c0.065-0.007,0.127-0.025,0.184-0.052l0.451,0.234c-0.251,0.554-0.433,1.139-0.539,1.743l0.746,0.132
					c0.23-1.306,0.85-2.507,1.792-3.473L223.082,445.893z"/>
				<path id="XMLID_277_" fill="#141414" d="M228.569,443.591c-0.171,0-0.341,0.006-0.51,0.017l-0.073-0.626
					c0.188-0.149,0.296-0.389,0.266-0.645c-0.046-0.393-0.402-0.674-0.796-0.628c-0.393,0.046-0.674,0.402-0.628,0.796
					c0.03,0.254,0.189,0.461,0.405,0.563l0.073,0.624c-0.714,0.116-1.403,0.332-2.06,0.646l0.327,0.685
					c0.934-0.447,1.941-0.674,2.995-0.674c0.496,0,0.993,0.054,1.475,0.158l0.161-0.741
					C229.669,443.649,229.12,443.591,228.569,443.591z"/>
				<path id="XMLID_265_" fill="#141414" d="M235.171,446.138c0.331-0.04,0.566-0.341,0.525-0.672
					c-0.04-0.331-0.342-0.566-0.672-0.525c-0.31,0.038-0.535,0.304-0.53,0.608l-0.416,0.363c-0.418-0.43-0.89-0.813-1.408-1.14
					l-0.403,0.642c1.134,0.715,2.021,1.727,2.563,2.926l0.69-0.313c-0.251-0.554-0.567-1.071-0.942-1.545l0.402-0.351
					C235.042,446.143,235.106,446.146,235.171,446.138z"/>
				<path id="XMLID_264_" fill="#141414" d="M228.021,453.799c-0.386,0.023-0.774,0.035-1.157,0.035c-0.88,0-1.732-0.061-2.478-0.18
					c-0.391-0.062-0.847-0.154-1.271-0.292c1.046,1.861,3.069,3.125,5.389,3.125c2.855,0,5.262-1.916,5.949-4.503
					c-0.682,0.449-1.506,0.825-2.459,1.122C230.816,453.475,229.441,453.714,228.021,453.799z"/>
				<path id="XMLID_233_" fill="#141414" d="M228.569,445.107c-3.353,0-6.079,2.666-6.079,5.943c0,0.425,0.046,0.849,0.137,1.261
					c0.674,0.483,2.706,0.891,5.348,0.731c2.879-0.174,5.297-0.958,6.672-2.159c-0.005-0.194-0.021-0.39-0.045-0.581
					C234.221,447.341,231.627,445.107,228.569,445.107z M226.41,451.622c-1.021,0-1.85-0.83-1.85-1.85
					c0-1.021,0.829-1.851,1.85-1.851c1.02,0,1.85,0.83,1.85,1.851C228.259,450.792,227.429,451.622,226.41,451.622z
					 M231.147,450.714c-0.75,0-1.36-0.61-1.36-1.36s0.61-1.36,1.36-1.36s1.36,0.61,1.36,1.36S231.897,450.714,231.147,450.714z"/>
			</g>
			<path id="XMLID_209_" fill="#141414" d="M244.573,446.975c-0.295-0.116-0.806-0.31-1.383-0.237
				c-0.551,0.068-0.844,0.34-0.844,1.006v0.866h2.228v1.717h-2.228v5.455h-1.932v-5.455h-1.34v-1.717h1.34v-0.889
				c0-1.68,0.896-2.782,2.568-2.782c0.643,0,1.157,0.121,1.59,0.308V446.975z"/>
			<path id="XMLID_180_" fill="#141414" d="M249.275,450.307c-0.177-0.03-0.357-0.047-0.526-0.047c-0.896,0-1.51,0.548-1.51,1.613
				v3.908h-1.932v-7.172h1.873v0.784c0.451-0.673,1.14-0.977,2.021-0.977c0.414,0,0.848,0.128,1.094,0.337L249.275,450.307z"/>
			<path id="XMLID_141_" fill="#141414" d="M256.942,452.185c0,0.222-0.015,0.488-0.037,0.651h-5.084
				c0.207,1.036,0.933,1.487,1.843,1.487c0.621,0,1.295-0.252,1.813-0.688l1.132,1.243c-0.813,0.748-1.851,1.089-3.057,1.089
				c-2.198,0-3.723-1.495-3.723-3.753s1.48-3.797,3.626-3.797C255.521,448.417,256.935,449.949,256.942,452.185z M251.828,451.519
				h3.175c-0.177-0.918-0.732-1.437-1.562-1.437C252.531,450.082,251.999,450.63,251.828,451.519z"/>
			<path id="XMLID_69_" fill="#141414" d="M264.595,452.185c0,0.222-0.015,0.488-0.037,0.651h-5.084
				c0.207,1.036,0.933,1.487,1.843,1.487c0.621,0,1.295-0.252,1.813-0.688l1.132,1.243c-0.814,0.748-1.851,1.089-3.057,1.089
				c-2.198,0-3.723-1.495-3.723-3.753s1.48-3.797,3.626-3.797C263.174,448.417,264.588,449.949,264.595,452.185z M259.481,451.519
				h3.176c-0.178-0.918-0.733-1.437-1.563-1.437C260.184,450.082,259.651,450.63,259.481,451.519z"/>
			<path id="XMLID_325_" fill="#141414" d="M272.941,452.191c0,2.154-1.495,3.775-3.471,3.775c-0.963,0-1.644-0.378-2.109-0.933
				v3.708h-1.925v-10.133h1.888v0.792c0.466-0.585,1.154-0.984,2.139-0.984C271.446,448.417,272.941,450.038,272.941,452.191z
				 M267.264,452.191c0,1.133,0.748,1.977,1.843,1.977c1.14,0,1.851-0.881,1.851-1.977c0-1.095-0.711-1.976-1.851-1.976
				C268.012,450.216,267.264,451.06,267.264,452.191z"/>
			<path id="XMLID_35_" fill="#141414" d="M276.044,446.263c0,0.696-0.54,1.229-1.235,1.229c-0.696,0-1.229-0.533-1.229-1.229
				c0-0.695,0.533-1.243,1.229-1.243C275.504,445.02,276.044,445.567,276.044,446.263z M275.786,455.781h-1.932v-7.172h1.932
				V455.781z"/>
			<path id="XMLID_25_" fill="#141414" d="M279.009,451.163l2.701-2.554h2.369l-3.479,3.375l3.501,3.797h-2.376l-2.716-2.901v2.901
				h-1.932v-10.658h1.932V451.163z"/>
		</g>
		<g>
			<path fill="#141414" d="M147.39,455.717v-1.055c-0.527,0.718-1.392,1.23-2.388,1.23c-1.846,0-3.149-1.406-3.149-3.706
				c0-2.256,1.289-3.721,3.149-3.721c0.952,0,1.816,0.469,2.388,1.245v-3.765h1.099v9.771H147.39z M147.39,453.798v-3.208
				c-0.396-0.615-1.245-1.143-2.124-1.143c-1.421,0-2.271,1.172-2.271,2.739s0.85,2.725,2.271,2.725
				C146.145,454.911,146.994,454.413,147.39,453.798z"/>
			<path fill="#141414" d="M149.909,452.172c0-2.051,1.464-3.706,3.486-3.706c2.139,0,3.398,1.67,3.398,3.794v0.278h-5.728
				c0.088,1.333,1.025,2.446,2.549,2.446c0.806,0,1.626-0.322,2.183-0.894l0.527,0.718c-0.703,0.703-1.655,1.084-2.813,1.084
				C151.417,455.893,149.909,454.384,149.909,452.172z M153.38,449.374c-1.509,0-2.256,1.274-2.314,2.358h4.644
				C155.695,450.678,154.992,449.374,153.38,449.374z"/>
			<path fill="#141414" d="M157.584,454.779l0.571-0.791c0.469,0.542,1.362,1.011,2.329,1.011c1.084,0,1.67-0.513,1.67-1.216
				c0-1.714-4.38-0.659-4.38-3.281c0-1.099,0.952-2.036,2.637-2.036c1.201,0,2.051,0.454,2.622,1.025l-0.513,0.762
				c-0.424-0.513-1.201-0.894-2.109-0.894c-0.967,0-1.567,0.483-1.567,1.113c0,1.553,4.379,0.527,4.379,3.281
				c0,1.187-0.952,2.139-2.783,2.139C159.283,455.893,158.302,455.541,157.584,454.779z"/>
			<path fill="#141414" d="M164.454,446.898c0-0.41,0.337-0.747,0.732-0.747c0.41,0,0.747,0.337,0.747,0.747
				s-0.336,0.732-0.747,0.732C164.791,447.631,164.454,447.309,164.454,446.898z M164.644,455.717v-7.075h1.099v7.075H164.644z"/>
			<path fill="#141414" d="M167.559,457.533l0.557-0.82c0.586,0.703,1.289,0.967,2.3,0.967c1.172,0,2.27-0.571,2.27-2.124v-1.011
				c-0.512,0.718-1.376,1.26-2.373,1.26c-1.845,0-3.149-1.377-3.149-3.662c0-2.271,1.289-3.677,3.149-3.677
				c0.952,0,1.802,0.469,2.373,1.245v-1.069h1.099v6.87c0,2.344-1.641,3.076-3.369,3.076
				C169.214,458.588,168.394,458.353,167.559,457.533z M172.686,453.681v-3.091c-0.381-0.615-1.23-1.143-2.109-1.143
				c-1.421,0-2.271,1.128-2.271,2.695c0,1.553,0.849,2.695,2.271,2.695C171.455,454.838,172.305,454.296,172.686,453.681z"/>
			<path fill="#141414" d="M180.39,455.717v-4.629c0-1.245-0.629-1.641-1.582-1.641c-0.865,0-1.685,0.527-2.095,1.099v5.171h-1.099
				v-7.075h1.099v1.025c0.498-0.586,1.464-1.201,2.519-1.201c1.479,0,2.256,0.747,2.256,2.285v4.966H180.39z"/>
			<path fill="#141414" d="M182.91,452.172c0-2.051,1.465-3.706,3.486-3.706c2.138,0,3.398,1.67,3.398,3.794v0.278h-5.728
				c0.088,1.333,1.025,2.446,2.549,2.446c0.806,0,1.625-0.322,2.183-0.894l0.527,0.718c-0.703,0.703-1.655,1.084-2.813,1.084
				C184.418,455.893,182.91,454.384,182.91,452.172z M186.381,449.374c-1.509,0-2.256,1.274-2.314,2.358h4.643
				C188.695,450.678,187.992,449.374,186.381,449.374z"/>
			<path fill="#141414" d="M196.327,455.717v-1.055c-0.527,0.718-1.392,1.23-2.388,1.23c-1.845,0-3.149-1.406-3.149-3.706
				c0-2.256,1.289-3.721,3.149-3.721c0.952,0,1.817,0.469,2.388,1.245v-3.765h1.099v9.771H196.327z M196.327,453.798v-3.208
				c-0.396-0.615-1.245-1.143-2.124-1.143c-1.421,0-2.271,1.172-2.271,2.739s0.85,2.725,2.271,2.725
				C195.082,454.911,195.931,454.413,196.327,453.798z"/>
			<path fill="#141414" d="M202.669,455.717v-9.771h1.099v3.765c0.572-0.776,1.421-1.245,2.388-1.245
				c1.846,0,3.149,1.465,3.149,3.721c0,2.3-1.304,3.706-3.149,3.706c-0.996,0-1.86-0.513-2.388-1.23v1.055H202.669z
				 M205.877,454.911c1.436,0,2.285-1.157,2.285-2.725s-0.85-2.739-2.285-2.739c-0.864,0-1.729,0.527-2.109,1.143v3.208
				C204.148,454.413,205.013,454.911,205.877,454.911z"/>
			<path fill="#141414" d="M210.505,457.489c0.161,0.073,0.425,0.117,0.601,0.117c0.483,0,0.805-0.161,1.055-0.747l0.468-1.069
				l-2.959-7.148h1.187l2.358,5.801l2.344-5.801h1.201l-3.545,8.511c-0.425,1.025-1.143,1.421-2.08,1.436
				c-0.234,0-0.601-0.044-0.805-0.104L210.505,457.489z"/>
		</g>
	</g>
</g>
</svg>
