<svg xmlns="http://www.w3.org/2000/svg" xmlns:xlink="http://www.w3.org/1999/xlink" width="531.198" height="390.466" viewBox="0 0 531.198 390.466">
  <defs>
    <linearGradient id="linear-gradient" x1="0.501" y1="1" x2="0.501" gradientUnits="objectBoundingBox">
      <stop offset="0" stop-color="gray" stop-opacity="0.251"/>
      <stop offset="0.54" stop-color="gray" stop-opacity="0.122"/>
      <stop offset="1" stop-color="gray" stop-opacity="0.102"/>
    </linearGradient>
  </defs>
  <g id="Group_83" data-name="Group 83" transform="translate(0 0.002)">
    <path id="Path_133" data-name="Path 133" d="M391.2,100.988C359.847,99.9,329.984,89.778,301.469,78.7s-56.76-23.346-87.383-29.213c-19.664-3.774-42.178-4.307-58.039,6.24C140.786,65.9,135.854,83.417,133.2,99.68c-2,12.242-3.168,25.12,2.3,36.577,3.8,7.955,10.532,14.641,15.193,22.285,16.215,26.51,4.753,59.2-12.814,85.087-8.236,12.141-17.8,23.739-24.165,36.655s-9.3,27.736-3.735,40.918c5.513,13.081,18.657,22.886,32.9,29.795,28.918,14.02,62.981,18.037,96.22,20.309,73.557,5.034,147.5,2.854,221.251.673,27.295-.809,54.706-1.628,81.555-5.848,14.912-2.345,30.3-6.066,41.126-15.018,13.744-11.4,17.15-30.705,7.94-45-15.445-23.976-58.136-29.935-68.944-55.665-5.94-14.161.16-29.94,8.8-43.074,18.526-28.181,49.575-52.9,51.208-85.111,1.124-22.121-13.8-44.275-36.882-54.745-24.189-10.973-57.739-9.592-75.577,8.57C451.183,94.753,418.889,101.947,391.2,100.988Z" transform="translate(-80.261 -47.02)" fill="#009fe3" opacity="0.1"/>
    <g id="Group_80" data-name="Group 80" transform="translate(200.429 54.327)" opacity="0.9">
      <rect id="Rectangle_61" data-name="Rectangle 61" width="4.292" height="35.376" rx="2.146" transform="translate(142.733 66.197)" fill="#3a3768"/>
      <rect id="Rectangle_62" data-name="Rectangle 62" width="2.408" height="11.647" rx="1.204" transform="translate(0.087 38.486)" fill="#3a3768"/>
      <rect id="Rectangle_63" data-name="Rectangle 63" width="2.713" height="20.27" rx="1.357" transform="translate(0 59.807)" fill="#3a3768"/>
      <rect id="Rectangle_64" data-name="Rectangle 64" width="2.582" height="20.444" rx="1.291" transform="translate(0.044 87.17)" fill="#3a3768"/>
      <rect id="Rectangle_65" data-name="Rectangle 65" width="143.596" height="291.838" rx="15" transform="translate(1.453)" fill="#3a4958"/>
      <rect id="Rectangle_66" data-name="Rectangle 66" width="20.052" height="4.07" rx="2.035" transform="translate(59.396 8.711)" fill="#e6e8ec"/>
      <circle id="Ellipse_19" data-name="Ellipse 19" cx="2.311" cy="2.311" r="2.311" transform="translate(82.48 8.439)" fill="#e6e8ec"/>
    </g>
    <ellipse id="Ellipse_20" data-name="Ellipse 20" cx="96.879" cy="9.873" rx="96.879" ry="9.873" transform="translate(18.444 343.006)" fill="#003580" opacity="0.1"/>
    <ellipse id="Ellipse_21" data-name="Ellipse 21" cx="45.385" cy="4.627" rx="45.385" ry="4.627" transform="translate(285.351 381.211)" fill="#003580" opacity="0.1"/>
    <ellipse id="Ellipse_22" data-name="Ellipse 22" cx="45.385" cy="4.627" rx="45.385" ry="4.627" transform="translate(440.428 357.898)" fill="#003580" opacity="0.1"/>
    <path id="Path_134" data-name="Path 134" d="M601.226,174.84H584.8v1.981a9.389,9.389,0,0,1-9.389,9.389H523a9.389,9.389,0,0,1-9.389-9.389V174.84H498.19a11.4,11.4,0,0,0-11.4,11.4V440.071a11.4,11.4,0,0,0,11.4,11.4H601.226a11.4,11.4,0,0,0,11.4-11.4V186.244a11.4,11.4,0,0,0-11.4-11.4Z" transform="translate(-276.038 -112.917)" fill="#009fe3"/>
    <path id="Union_4" data-name="Union 4" d="M-2229.8-4867.139c0-1.591,6.667-2.918,15.532-3.227a7.224,7.224,0,0,0-2.007-1.763,12.663,12.663,0,0,1-3.275-2.625,3.119,3.119,0,0,1-.126-3.876,4.053,4.053,0,0,1,3.168-.9,3.868,3.868,0,0,1,1.938.46,3.493,3.493,0,0,1,1.279,3.013,15.236,15.236,0,0,0,.049,3.392c.01-3.082.712-6.5,3.231-8.275.8-.558,2-.863,2.655-.154a1.94,1.94,0,0,1,.436.968,5.075,5.075,0,0,1-1.555,4.753c1.264.179,2.373-.775,3.337-1.608s2.238-1.663,3.43-1.2a2.512,2.512,0,0,1,1.3,2.854,5.636,5.636,0,0,1-1.861,2.8,19.8,19.8,0,0,1-2.929,2.213c8.273.38,14.357,1.66,14.357,3.179,0,1.819-8.722,3.294-19.48,3.294S-2229.8-4865.319-2229.8-4867.139Z" transform="translate(2229.802 5195.882)" fill="#feba02"/>
    <path id="Union_3" data-name="Union 3" d="M-2209.327-4847.333l0,0-.009-.022c-.4-.658-9.4-15.349-16.753-15.563-7.523-.217-2.583-9.35,5.692-18.593,0,0-4.19,5.483,1.938,13.759,4.188,5.654,7.871,10.707,9.133,14.986,1.261-4.279,4.944-9.332,9.132-14.986,6.128-8.275,1.937-13.759,1.937-13.759,8.275,9.243,13.221,18.376,5.7,18.593-7.356.214-16.357,14.908-16.754,15.563l-.009.022Z" transform="translate(2600.642 5164.203)" fill="#feba02"/>
    <path id="Path_139" data-name="Path 139" d="M870.323,630.54a6.9,6.9,0,0,1,.858,1.72c7.34,8.623,11.249,16.675,4.191,16.874-6.569.189-14.456,11.942-16.341,14.907a5.55,5.55,0,0,0,.223.678s9.244-15.367,16.767-15.585S878.6,639.784,870.323,630.54Z" transform="translate(-467.94 -347.846)" opacity="0.1"/>
    <path id="Path_140" data-name="Path 140" d="M897.389,643.685c0,1.938-.218,3.493-.484,3.493s-.484-1.565-.484-3.493.271-1.017.538-1.017S897.389,641.747,897.389,643.685Z" transform="translate(-487.215 -353.985)" fill="#ffd037"/>
    <path id="Path_141" data-name="Path 141" d="M900.419,648.311c-1.7.92-3.168,1.482-3.3,1.245s1.143-1.172,2.839-2.1,1.022-.247,1.153,0S902.115,647.385,900.419,648.311Z" transform="translate(-487.572 -356.324)" fill="#ffd037"/>
    <path id="Path_143" data-name="Path 143" d="M826.63,630.54a6.705,6.705,0,0,0-.858,1.72c-7.34,8.623-11.249,16.675-4.2,16.874,6.574.189,14.456,11.942,16.346,14.907a6.54,6.54,0,0,1-.223.678s-9.244-15.367-16.767-15.585S818.355,639.784,826.63,630.54Z" transform="translate(-446.387 -347.846)" opacity="0.1"/>
    <path id="Path_144" data-name="Path 144" d="M820.55,643.685c0,1.938.218,3.493.484,3.493s.484-1.565.484-3.493-.271-1.017-.538-1.017S820.55,641.747,820.55,643.685Z" transform="translate(-448.102 -353.985)" fill="#ffd037"/>
    <path id="Path_145" data-name="Path 145" d="M813.911,648.311c1.691.92,3.168,1.482,3.294,1.245s-1.138-1.172-2.834-2.1-1.027-.247-1.153,0S812.234,647.385,813.911,648.311Z" transform="translate(-444.152 -356.324)" fill="#ffd037"/>
    <path id="Path_146" data-name="Path 146" d="M823.31,692.87s11.719-.363,15.251-2.878,18.027-5.518,18.894-1.482,17.61,20.062,4.36,20.168-30.744-2.064-34.266-4.21S823.31,692.87,823.31,692.87Z" transform="translate(-449.525 -376.714)" fill="#dedede"/>
    <path id="Path_147" data-name="Path 147" d="M862.082,714c-13.231.107-30.744-2.064-34.266-4.21-2.689-1.633-3.755-7.5-4.113-10.208h-.392s.741,9.452,4.268,11.6,21.036,4.317,34.266,4.21c3.818-.034,5.14-1.39,5.068-3.391C866.379,713.213,864.926,713.973,862.082,714Z" transform="translate(-449.525 -383.438)" opacity="0.2"/>
    <rect id="Rectangle_67" data-name="Rectangle 67" width="37.803" height="37.803" transform="translate(283.185 236.355)" fill="#3a3768" opacity="0.3"/>
    <rect id="Rectangle_68" data-name="Rectangle 68" width="37.803" height="37.803" transform="translate(227.471 186.455)" fill="#3a3768" opacity="0.3"/>
    <rect id="Rectangle_69" data-name="Rectangle 69" width="37.803" height="37.803" transform="translate(231.105 285.403)" fill="#3a3768" opacity="0.3"/>
    <rect id="Rectangle_70" data-name="Rectangle 70" width="37.803" height="37.803" transform="translate(222.67 93.636)" fill="#fff"/>
    <path id="Union_5" data-name="Union 5" d="M-2223.271-4861.036l-4.671-7.445-1.86-.93v-6.516l1.86-.931h7.442l5.58-4.65h1.866v6.056h.019a2.379,2.379,0,0,1,1.856,2.32,2.377,2.377,0,0,1-1.856,2.32v6.056h-1.865l-5.582-3.724h-1.743l1.743,7.445Zm15.193-6.146a8.421,8.421,0,0,0,0-11.9l1.322-1.322v.01a10.278,10.278,0,0,1,0,14.533Zm-2.7-2.6a4.735,4.735,0,0,0,1.389-3.351,4.735,4.735,0,0,0-1.389-3.351l1.342-1.337a6.636,6.636,0,0,1,0,9.384Z" transform="translate(2458.349 4983.807)" fill="#feba02"/>
    <rect id="Rectangle_71" data-name="Rectangle 71" width="37.803" height="37.803" transform="matrix(0.742, -0.671, 0.671, 0.742, 285.38, 248.092)" fill="#fff"/>
    <path id="Path_150" data-name="Path 150" d="M673.34,545.675l2.742-2.49L691.1,559.739l-2.761,2.5Zm6.477,15.5,2.761-2.495,4.36,4.845-2.761,2.495Zm5.784-10.251,2.762-2.5,6.865,7.592-2.757,2.495Zm.392-7.887,2.761-2.5,10.615,11.729-2.761,2.5Z" transform="translate(-372.21 -301.448)" fill="#feba02"/>
    <rect id="Rectangle_72" data-name="Rectangle 72" width="37.803" height="37.803" transform="translate(282.56 139.191)" fill="#fff"/>
    <path id="Union_6" data-name="Union 6" d="M-2227.317-4857.294a2.489,2.489,0,0,1-2.485-2.486v-3.327l3.565-3.338a2.807,2.807,0,0,0,3.309-.417l3.352,1.938a3.171,3.171,0,0,0-.048.519,2.8,2.8,0,0,0,2.793,2.678,2.8,2.8,0,0,0,2.793-2.678,2.765,2.765,0,0,0-.631-1.764l5.073-7.751.02,0a2.8,2.8,0,0,0,.736.1,2.764,2.764,0,0,0,1.71-.59l3.391,2.263v12.362a2.494,2.494,0,0,1-2.486,2.486Zm-2.485-21.733a2.485,2.485,0,0,1,2.485-2.481h21.108a2.491,2.491,0,0,1,2.486,2.481v4.66l-2.422-1.6a2.978,2.978,0,0,0,.077-.658,2.791,2.791,0,0,0-1.921-2.647,2.792,2.792,0,0,0-3.115,1,2.789,2.789,0,0,0-.032,3.27l-5.087,7.877a2.672,2.672,0,0,0-.6-.067,2.747,2.747,0,0,0-1.769.63l-3.5-1.938a1.785,1.785,0,0,0,.024-.362,2.791,2.791,0,0,0-.82-1.975,2.787,2.787,0,0,0-1.976-.816,2.791,2.791,0,0,0-2.791,2.781,2.815,2.815,0,0,0,.175.969l-2.325,2.229Z" transform="translate(2518.234 5027.486)" fill="#feba02"/>
    <rect id="Rectangle_73" data-name="Rectangle 73" width="37.803" height="37.803" transform="translate(234.772 181.339)" fill="#fff"/>
    <path id="Path_153" data-name="Path 153" d="M573.916,435.428l-23.254,12.6a.484.484,0,0,0,.034.867l3.968,1.5a.969.969,0,0,1,.523.484l3.081,6.346c.058.281.577.359.581.073l-.484-5.247a1.865,1.865,0,0,1,.426-1.061l12.054-11.811a.3.3,0,0,1,.266-.077.276.276,0,0,1,.15.441l-10.392,12.7a2.32,2.32,0,0,0-.407,1.046l-.62,4.53c.048.4.359.547.61.194l2.238-2.631a.484.484,0,0,1,.659-.107l5.77,4.205a.484.484,0,0,0,.732-.286l4.733-23.254a.484.484,0,0,0-.678-.523Z" transform="translate(-308.835 -247.229)" fill="#feba02"/>
    <path id="Path_154" data-name="Path 154" d="M1022.584,774.093a14.735,14.735,0,0,0,6.589-.223c.325-.1.7-.325.654-.659a.774.774,0,0,0-.15-.32,20.556,20.556,0,0,1-2-3.793.31.31,0,0,0-.121-.17.3.3,0,0,0-.213,0c-.969.252-1.812.882-2.781,1.148a3.971,3.971,0,0,1-1.511.116c-.436-.048-1.037-.412-1.429-.368C1021.862,771.264,1022.414,772.625,1022.584,774.093Z" transform="translate(-551.76 -419.179)" fill="#009fe3"/>
    <path id="Path_155" data-name="Path 155" d="M1106.973,763.989a11.26,11.26,0,0,0,3.813-3.58.587.587,0,0,0,.1-.305.629.629,0,0,0-.121-.3,12.409,12.409,0,0,0-3.1-3.343,9.156,9.156,0,0,0-1.729,1.594c-.363.383-1.371,1.013-1.381,1.584,0,.344.383.717.562.969.242.359.485.727.693,1.095A18.164,18.164,0,0,1,1106.973,763.989Z" transform="translate(-594.519 -412.762)" fill="#009fe3"/>
    <path id="Path_156" data-name="Path 156" d="M1017.512,781.019a1.453,1.453,0,0,1-.262.969,1.293,1.293,0,0,1-.557.324c-3.081,1.1-6.628-.276-9.689.814-.635.223-1.231.543-1.865.756a10.1,10.1,0,0,1-2.311.412c-1.09.107-2.18.169-3.27.2a7.911,7.911,0,0,1-2.461-.213,2.98,2.98,0,0,1-1.89-1.5,1.453,1.453,0,0,1-.092-1.066,1.2,1.2,0,0,1,.2-.344,2.947,2.947,0,0,1,.727-.586l1.134-.732a7.579,7.579,0,0,1,1.715-.911c.446-.145.925-.208,1.376-.339a9.5,9.5,0,0,0,3.934-2.941l1.541-1.642a1.508,1.508,0,0,1,.533-.426,1.453,1.453,0,0,1,.659-.068,8.9,8.9,0,0,1,4.2,1.415,6.063,6.063,0,0,0,1.037.61,3.7,3.7,0,0,0,2.907-.363c.4-.208.31-.339.484-.712s.572-.615.921-.271a1.01,1.01,0,0,1,.218.417,11.56,11.56,0,0,1,.208,3.425,1.518,1.518,0,0,0,.068.533,3.236,3.236,0,0,0,.3.484.768.768,0,0,1,.063.126,3.362,3.362,0,0,1,.175,1.628Z" transform="translate(-538.065 -421.657)" fill="#3a4958"/>
    <path id="Path_157" data-name="Path 157" d="M1017.512,787.063a1.453,1.453,0,0,1-.262.969,1.294,1.294,0,0,1-.557.325c-3.081,1.1-6.628-.276-9.689.814-.635.223-1.231.543-1.865.756a10.094,10.094,0,0,1-2.311.412c-1.09.107-2.18.169-3.27.2a7.913,7.913,0,0,1-2.461-.213,2.98,2.98,0,0,1-1.89-1.5,1.453,1.453,0,0,1-.092-1.066,1.205,1.205,0,0,1,.2-.344c.184.378.315.872.426,1.051a2.151,2.151,0,0,0,1.453,1.042,3.689,3.689,0,0,0,1.313-.17c2.791-.693,5.756-.7,8.43-1.749a20.141,20.141,0,0,1,2.761-1.061,21.938,21.938,0,0,1,2.984-.242c1.575-.126,3.1-.6,4.651-.848A3.362,3.362,0,0,1,1017.512,787.063Z" transform="translate(-538.065 -427.702)" fill="#464353"/>
    <path id="Path_158" data-name="Path 158" d="M1105.531,765.909a5.591,5.591,0,0,1-1.7,3.028,19.418,19.418,0,0,0-2.374,2.6c-.8,1.221-1.158,2.728-2.194,3.759a5.943,5.943,0,0,1-1.318.969,9.1,9.1,0,0,1-1.71.785,13.09,13.09,0,0,1-4.844.266,4.306,4.306,0,0,1-1.531-.3,4.458,4.458,0,0,1-.649-.392,3.079,3.079,0,0,1-.969-1,1.008,1.008,0,0,1-.092-.722,1.648,1.648,0,0,1,.485-.707,10.923,10.923,0,0,1,1.167-1.051,6.937,6.937,0,0,0,1.521-1.337,4.361,4.361,0,0,0,.586-1.337,11.976,11.976,0,0,0,.427-2.543,8,8,0,0,1,.179-1.7c.247-.872.9-1.662.819-2.568a.658.658,0,0,1,.034-.388.606.606,0,0,1,.305-.189,5.521,5.521,0,0,1,1.589-.363,1.831,1.831,0,0,1,1.453.577c.228.271.373.649.707.77a1.174,1.174,0,0,0,.484,0,4.122,4.122,0,0,0,2.306-.712,2.907,2.907,0,0,0,.969-2.117c0-.3-.136-.615.325-.678.354-.048.63.32.809.562a7.905,7.905,0,0,1,1.555,2.834.786.786,0,0,1,.3-.058,1.265,1.265,0,0,1,1.056.543,2.094,2.094,0,0,1,.31,1.473Z" transform="translate(-586.043 -414.871)" fill="#3a4958"/>
    <path id="Path_159" data-name="Path 159" d="M1105.661,769.5a5.592,5.592,0,0,1-1.7,3.028,19.409,19.409,0,0,0-2.374,2.6c-.8,1.221-1.158,2.728-2.195,3.76a5.944,5.944,0,0,1-1.318.969,9.1,9.1,0,0,1-1.71.785,13.092,13.092,0,0,1-4.845.266,4.308,4.308,0,0,1-1.531-.3,4.46,4.46,0,0,1-.649-.392,3.083,3.083,0,0,1-.969-1,2.36,2.36,0,0,1,1-.237c.722.039,1.245.717,1.938.925.969.3,1.938-.4,2.95-.635.649-.15,1.337-.107,1.972-.315a4.87,4.87,0,0,0,1.453-.882,7.379,7.379,0,0,0,1.555-1.5,9.585,9.585,0,0,0,.916-1.822,26.022,26.022,0,0,1,1.846-3.532,2.342,2.342,0,0,1,.378-.484c.15-.141.339-.242.484-.368a3.854,3.854,0,0,0,1.172-2.136,3.567,3.567,0,0,1,.262-.712,1.264,1.264,0,0,1,1.056.543A2.093,2.093,0,0,1,1105.661,769.5Z" transform="translate(-586.172 -418.458)" fill="#464353"/>
    <path id="Path_160" data-name="Path 160" d="M979.017,549.246a7.034,7.034,0,0,1,1.977,2.311c.484.911,3.144,7.984,2.989,9,.872-.882,4.331-1.027,5.2-1.9.368-.368,2.359-2.209,2.655-2.635s2.514-1.342,2.757-1.778c.906-1.623-6.424-7.751-5.489-9.379a.4.4,0,0,0,.077-.252.388.388,0,0,0-.121-.194,11.657,11.657,0,0,0-2.122-1.453,3.391,3.391,0,0,1-1.618-1.938,6.963,6.963,0,0,0-1.875,1.269q-2.01,1.72-3.963,3.527c-.514.484-1.492,1.1-1.73,1.773S978.527,548.849,979.017,549.246Z" transform="translate(-529.127 -301.695)" fill="#a1616a"/>
    <path id="Path_161" data-name="Path 161" d="M995.054,552.61a21.243,21.243,0,0,0-3.139,2.568,6.283,6.283,0,0,0-2,3.2c-.092.484-.077,1-.155,1.5-.325,2.17-2.209,3.764-3.038,5.814a9.929,9.929,0,0,0-.533,1.938,22.842,22.842,0,0,0-.378,3.808c0,1.24,1.192,2.093,1.637,3.251a19.711,19.711,0,0,1,.79,3.522,42.921,42.921,0,0,0,1.981,6.54c1.638,4.52,6.943,17.019,8.58,21.544,5.014-1.26,18.366-4.152,22.8-6.782,1.482-.882-10.271-10.842-8.687-11.53a.8.8,0,0,0,.441-.334.765.765,0,0,0,0-.484c-1.579-6.923-6.535-12.6-8.778-19.379-.78-2.34-2.18-4.336-3.246-6.564-.969-2.015-1.478-4.239-2.626-6.153a4.112,4.112,0,0,0-.838-1.051,5.133,5.133,0,0,0-.93-.557C996.3,553.119,995.693,552.93,995.054,552.61Z" transform="translate(-533.299 -307.67)" fill="#514e7f"/>
    <circle id="Ellipse_24" data-name="Ellipse 24" cx="7.848" cy="7.848" r="7.848" transform="translate(442.308 231.065)" fill="#a1616a"/>
    <path id="Path_162" data-name="Path 162" d="M997.43,547.04a2.631,2.631,0,0,1,2.95-.422,1.453,1.453,0,0,1,.877,1.415l3.876.058a8.108,8.108,0,0,1,1.846.169,2.684,2.684,0,0,1,1.541.969c.048.063.1.136.179.15a.31.31,0,0,0,.179-.063,3.416,3.416,0,0,1,1.938-.349,10.475,10.475,0,0,1,5.7,2.5,1.846,1.846,0,0,1,.678.828c.136.441,0,1.008.32,1.308,0,3.658,1.255,7.064,2.093,10.624a4.706,4.706,0,0,0,1.177,1.691,6.782,6.782,0,0,1,1.26,1.88c.707,1.846-.271,4.011.421,5.867a9.446,9.446,0,0,0,1.337,2.107,5.43,5.43,0,0,1,1.139,2.723c.029.446-.029.891,0,1.342a8.174,8.174,0,0,0,.32,1.763c.281,1.071.581,2.141.891,3.207.485,1.725,1.163,3.59,2.708,4.51-3.735.635-7.669,1.25-11.23-.044a5.811,5.811,0,0,1-1.4-.7,8.064,8.064,0,0,1-2.456-3.963,18.624,18.624,0,0,1-1.376-5.116,5.856,5.856,0,0,0-.233-1.671,4.671,4.671,0,0,0-2.2-2.078,10.607,10.607,0,0,1-2.65-2.064,4.118,4.118,0,0,1-1.076-3.1c.068-.547.281-1.076.305-1.628a1.3,1.3,0,0,0-.756-1.342c-2.718-.824-4.016-4.041-4.622-6.817a21.754,21.754,0,0,1-.349-4.36l-.034-2.8a3.721,3.721,0,0,1-1.221-2.684,3.006,3.006,0,0,0,0-.887,2.484,2.484,0,0,0-.62-.969A8.189,8.189,0,0,1,997.43,547.04Z" transform="translate(-539.289 -304.44)" fill="#464353"/>
    <path id="Path_163" data-name="Path 163" d="M979.589,563.809a20.741,20.741,0,0,1-.087,2.636c-.078.329-.208.644-.305.969a5.718,5.718,0,0,0,.363,3.692,20.52,20.52,0,0,0,1.885,3.27,4.979,4.979,0,0,1,.606,1.129,5.844,5.844,0,0,1,.233,1.294,39.373,39.373,0,0,0,.925,5.2,10.225,10.225,0,0,0,1.831,4.181,1.27,1.27,0,0,0,.756.514,1.365,1.365,0,0,0,.644-.136l2.006-.761a1.4,1.4,0,0,0,.484-.252,1.217,1.217,0,0,0,.281-.785,11.534,11.534,0,0,0-.882-4.753c-1.628-4.622-3.788-9.074-4.845-13.856-.3-1.337-.45-3.391-1.424-4.433-.4-.436-.266-.252-.746,0a6.089,6.089,0,0,0-.7.373A2.3,2.3,0,0,0,979.589,563.809Z" transform="translate(-529.81 -312.232)" fill="#464353"/>
    <path id="Path_164" data-name="Path 164" d="M1059.24,625.68" transform="translate(-571.155 -345.34)" fill="#464353"/>
    <path id="Path_165" data-name="Path 165" d="M992.134,569.939q.8,4.229,1.633,8.464l7.79-2.044a5.458,5.458,0,0,0-.673-2.33c-.712-1.783-.727-3.764-1.3-5.6-.436-1.4-1.192-2.679-1.6-4.084-.237-.814-.354-1.667-.586-2.485a18.976,18.976,0,0,0-.916-2.369,15.093,15.093,0,0,0-1.7-3.154,4.968,4.968,0,0,0-2.626,1.7,3.616,3.616,0,0,0-.484,1.676c-.136,1.754.484,3.512.286,5.247A15.5,15.5,0,0,0,992.134,569.939Z" transform="translate(-536.31 -309.593)" fill="#009fe3"/>
    <path id="Path_166" data-name="Path 166" d="M1007.763,644.136c.436,1.667-.2,3.391-.712,5.048a39.2,39.2,0,0,0-1.589,7.6,6.3,6.3,0,0,1-.392,1.938,18.126,18.126,0,0,1-.945,1.55,7.768,7.768,0,0,0-.6,4.665c.111,1.046.281,2.088.484,3.12a7.864,7.864,0,0,1,.2,3.8c.615-.136,1.037.659,1.013,1.294s-.247,1.313.053,1.87c.766.276.775,1.327.751,2.136a18.015,18.015,0,0,0,.528,4.186q1.734,8.328,3.682,16.612c2.805.872,6.08,1.778,8.754.572a1.72,1.72,0,0,0,1.109-1.114,2.008,2.008,0,0,0-.107-.858l-1.269-4.612a8.492,8.492,0,0,1-.455-3.391c.126-.858.484-1.778.078-2.529a7.283,7.283,0,0,0-.533-.707c-.669-.969-.32-2.272-.262-3.454a2.7,2.7,0,0,0-.058-.79,4.149,4.149,0,0,0-.373-.867,13.239,13.239,0,0,1-1.453-6.589,1.619,1.619,0,0,0-.116-.862,1.971,1.971,0,0,1-.213-.349.934.934,0,0,1,.068-.635,5.512,5.512,0,0,1-1.022-.969,1.454,1.454,0,0,0,.242-2.238.746.746,0,0,0,.358-1.284c-.165-.116-.378-.165-.484-.329-.179-.242-.034-.586.111-.848l.775-1.4c.576-1.037.707-2.321,1.327-3.333a25.023,25.023,0,0,0,2.044-4.665l2.209-6.153,1.5,1.3a4.71,4.71,0,0,1,1.235,1.41,5.952,5.952,0,0,1,.4,1.686c.552,3.343,2.66,6.24,3.44,9.539a6.431,6.431,0,0,0,.707,2.132,4.605,4.605,0,0,1,.407.61,3.211,3.211,0,0,1,.17,1.013,4.718,4.718,0,0,0,1.991,3.391c.736.484,1.671.857,2.059,1.662a3.28,3.28,0,0,0,.339.707c.358.431,1.134.484,1.289,1.022.082.305-.078.664.1.93a.848.848,0,0,0,.363.271l2.166,1.085c2.422,1.206,3.643,3.973,5.431,6a12.466,12.466,0,0,1,1.623,2.151c.77,1.376,1.129,3.105,2.422,3.992a3.764,3.764,0,0,1,.94.7c.412.538.262,1.294.3,1.972s.557,1.482,1.2,1.279a4.678,4.678,0,0,0,0,2.5,12.626,12.626,0,0,0,7.655-3.1,3.02,3.02,0,0,0,1.245-2.088.809.809,0,0,0-.092-.417,1.133,1.133,0,0,0-.484-.368c-2.02-1.095-2.631-3.633-3.643-5.7a47.666,47.666,0,0,0-3.333-5.077c-2.422-3.634-4.04-8.028-7.679-10.431a5.2,5.2,0,0,1-2.127-1.87,14.946,14.946,0,0,1-.426-1.55,1.3,1.3,0,0,0-1.139-.969,6.909,6.909,0,0,0,.262-2.422,3.011,3.011,0,0,0-.121-1.042,4.924,4.924,0,0,0-.533-1.027,9.957,9.957,0,0,1-1.371-5.329,8.579,8.579,0,0,0-.092-2.863c-.145-.484-.4-.887-.576-1.337a8.338,8.338,0,0,1-.417-2.495l-.2-3.193a15.294,15.294,0,0,0-.412-3.154c-.674-2.476-1.318-12.848-3.6-14.016s-6.177,6.812-8.72,6.971a11.63,11.63,0,0,0-3.333.64,16.155,16.155,0,0,0-4.52,3l-4.709,3.953a17.16,17.16,0,0,1-2.921,2.107Z" transform="translate(-542.384 -346.201)" fill="#464353"/>
    <path id="Path_167" data-name="Path 167" d="M963.581,519.809a5.92,5.92,0,0,1,4.568-2.229,10.658,10.658,0,0,1,5.048,1.269,6.507,6.507,0,0,0,1.453.606c.833.17,1.754-.058,2.5.339,1,.528,1.187,1.875,1.1,3s-.3,2.354.3,3.319a9.2,9.2,0,0,1,.577.862,2.878,2.878,0,0,1-.053,1.846,14.806,14.806,0,0,1-.969-1.216,1.128,1.128,0,0,0-1.371-.358c-.426.286-.426.814-.446,1.284s-.145,1.037-.591,1.192a.969.969,0,0,1-.969-.388c-.761-.93-.455-2.422-1.206-3.353-.431-.533-1.143-.79-1.541-1.347-.31-.436-.387-1-.659-1.453s-.906-.819-1.332-.484a1.81,1.81,0,0,0-.354.484,2.04,2.04,0,0,1-2.422.727,4.247,4.247,0,0,0-1.051-.451,1.293,1.293,0,0,0-1.2.649,2.577,2.577,0,0,0-.315,1.386,3.221,3.221,0,0,1-.262,1.9,1.965,1.965,0,0,1-.562.484,1.663,1.663,0,0,1-1.841.189,1.386,1.386,0,0,1-.412-1.289,10.607,10.607,0,0,1,.392-1.361c.291-1.027-.087-2.185.233-3.154A9.924,9.924,0,0,1,963.581,519.809Z" transform="translate(-520.794 -289.611)" fill="#464353"/>
    <path id="Path_168" data-name="Path 168" d="M974.393,555.48a1.213,1.213,0,0,0,.073.722,1.172,1.172,0,0,0,.392.378,8.128,8.128,0,0,0,3.7,1.2,1.116,1.116,0,0,1,.484.131.916.916,0,0,1,.218,1.032,2.747,2.747,0,0,0-.233,1.095c.1.693.916,1.008,1.613,1.095a3.74,3.74,0,0,0,2.805-.543,4.328,4.328,0,0,0,1.158-1.739c1.9-4.36,2.573-9.2,4.5-13.565a2.757,2.757,0,0,0,.291-.906.9.9,0,0,0-.358-.838c-.359-.223-.916-.1-1.158-.441-.121-.179-.107-.417-.213-.6-.223-.4-.8-.349-1.206-.562-.31-.169-.528-.484-.872-.576a1.114,1.114,0,0,0-.911.392,11.705,11.705,0,0,0-2.354,3.968,47.125,47.125,0,0,1-3.391,6.254,3.614,3.614,0,0,0-1.056-2.069c-.591-.121-1.357.92-1.676,1.313A8.313,8.313,0,0,0,974.393,555.48Z" transform="translate(-527.401 -301.869)" fill="#009fe3"/>
    <rect id="Rectangle_74" data-name="Rectangle 74" width="37.803" height="37.803" transform="translate(450.956 259.813)" fill="#feba02"/>
    <path id="Path_169" data-name="Path 169" d="M1009.033,604.231V599.27H996.64V621.6h24.2V604.231Zm-7.437,14.888H999.12v-2.48h2.476Zm0-4.961H999.12v-2.48h2.476Zm0-4.961H999.12v-2.485h2.476Zm0-4.966H999.12v-2.485h2.476Zm4.956,14.888h-2.471v-2.48h2.475Zm0-4.961h-2.471v-2.48h2.475Zm0-4.961h-2.471v-2.485h2.475Zm0-4.966h-2.471v-2.485h2.475Zm11.811,14.888h-9.331v-2.48h2.476v-2.48h-2.476v-2.48h2.476v-2.485h-2.476v-2.481h9.331Zm-2.17-9.922h-2.476v2.485h2.476Zm0,4.961h-2.476v2.485h2.476Z" transform="translate(-538.882 -331.725)" fill="#fff"/>
    <path id="Path_170" data-name="Path 170" d="M1057.215,624.258a15.272,15.272,0,0,0-1.792,1.88,3.745,3.745,0,0,0-.824,2.422,1.246,1.246,0,0,0,.233.707.606.606,0,0,0,.673.208.97.97,0,0,0,.329-.3,15.492,15.492,0,0,1,1.114-1.211c.145-.141.329-.291.523-.237a.551.551,0,0,1,.228.15,1.54,1.54,0,0,1,.484.732,1.734,1.734,0,0,1-.513,1.41,3.655,3.655,0,0,0-.867,1.284.548.548,0,0,0,0,.412.673.673,0,0,0,.257.223,3.74,3.74,0,0,0,3.135.2c.673-.266,1.255-.731,1.938-.969a4.659,4.659,0,0,0,.857-.32,1.763,1.763,0,0,0,.76-1.134,4.839,4.839,0,0,0,.053-1.4,15.988,15.988,0,0,0-1.168-5.281.63.63,0,0,0-.189-.281.663.663,0,0,0-.32-.092c-.848-.087-2.243-.523-3.062-.208a2.091,2.091,0,0,0-.722.644C1058.155,623.274,1057.215,624.035,1057.215,624.258Z" transform="translate(-568.762 -343.622)" fill="#a1616a"/>
    <path id="Path_171" data-name="Path 171" d="M1046.737,591.723c0-.814-1.008-2.766.586-2.907,0-.862-1.226-1.4-1-2.316.078-.31.325-.557.363-.867.1-.887-1.5-1.366-1.235-2.219.1-.325.451-.523.528-.853.179-.766-1.192-1.109-1.216-1.894,0-.266.145-.518.136-.78,0-.334-.291-.586-.451-.872-.412-.741-.213-1.889-.969-2.267.485.039.674-.7.46-1.158s-.63-.848-.63-1.352a2.149,2.149,0,0,0,0-.557c-.141-.484-.935-.518-1.066-1a5.184,5.184,0,0,1,0-.547c-.048-.378-.436-.61-.8-.722a3.178,3.178,0,0,1-1.066-.378c-.233-.179-.484-.484-.751-.315-.092.053-.141.16-.213.242-.3.344-.862.194-1.24-.063a5.13,5.13,0,0,1-1.9-3.42c-.242-1.318-.228-2.679-.518-3.987a9.154,9.154,0,0,0-.354-1.192,6.171,6.171,0,0,1-.562-1.192c-.058-.761,1.521-.242,2.122-.165a9.413,9.413,0,0,1,1.725.325,18.214,18.214,0,0,1,1.759.77c2.422,1.061,5.29,1.192,7.219,2.97a6,6,0,0,0,1.986,1.613,10.134,10.134,0,0,1,1.114.291c.916.431,1.056,1.642,1.555,2.519a5.385,5.385,0,0,1,.412.727,2.863,2.863,0,0,1,.131.93l.068,2.3a84.987,84.987,0,0,1-.184,11.55,9.535,9.535,0,0,0,.043,3.779c.1.329.238.644.32.969a6.6,6.6,0,0,1,.126,1.2l.053,1.487a.359.359,0,0,1-.475.441c-2.078-.184-4.171-1.357-6.133-.649" transform="translate(-558.574 -311.838)" fill="#464353"/>
    <path id="Path_172" data-name="Path 172" d="M979.067,611.638a.637.637,0,0,0-.232.194,1.652,1.652,0,0,0,0,1.967.664.664,0,0,1,.116.194.572.572,0,0,1-.058.329,1.09,1.09,0,0,0,.15,1.221c.15.126.354.189.45.354.17.281-.068.639-.029.969.048.431.557.644.969.7a1.032,1.032,0,0,0,.945-.252.785.785,0,0,0,0-.858,2.3,2.3,0,0,0-.64-.639.969.969,0,0,0,.916-.887,1.376,1.376,0,0,0-.552-1.206c-.087-.073-.194-.145-.218-.262s.092-.276.2-.388c.484-.484.858-1.671-.053-1.938a2.244,2.244,0,0,0-.969.044c-.232.073-.232.213-.412.31S979.271,611.537,979.067,611.638Z" transform="translate(-529.536 -337.824)" fill="#a1616a"/>
    <path id="Path_173" data-name="Path 173" d="M995.392,543.14a1.6,1.6,0,0,0-1.23.62,3.541,3.541,0,0,0-.514,1.647,14.441,14.441,0,0,1-1.938,5.261" transform="translate(-536.341 -302.788)" opacity="0.1"/>
    <path id="Path_174" data-name="Path 174" d="M998.949,545.88a1.88,1.88,0,0,0-1.609.969,5.377,5.377,0,0,0-.407,1.642,8.924,8.924,0,0,1-1.613,3.445" transform="translate(-538.202 -304.2)" opacity="0.1"/>
    <path id="Path_175" data-name="Path 175" d="M332.905,604.148c.281,3.062-2.03,6.027-1.357,9.021.145.639.421,1.245.523,1.889.276,1.778-.785,3.464-1.8,4.951l-8.691,12.761a8.271,8.271,0,0,1-1.245,1.536c-1.667,1.453-4.157,1.323-6.342,1.764a10.875,10.875,0,0,0-4.244,1.88.276.276,0,0,0-.058.383,3.658,3.658,0,0,0,3.159,1.482c.228.3,0,.741-.315.969-.484.325-1.109.407-1.2,1.2a1.3,1.3,0,0,0,.16.794,2.457,2.457,0,0,0,1.521,1.056c3.009.92,6.264-.693,8.512-2.907s3.876-4.975,6.085-7.219c1.226-1.235,2.616-2.3,3.876-3.5a44.588,44.588,0,0,0,6.361-8.236,9.143,9.143,0,0,0,1.376-2.8c.233-1,.126-2.049.4-3.038a10.964,10.964,0,0,1,2.083-3.391,11.258,11.258,0,0,0,2.369-7.34,7.027,7.027,0,0,0-4.292-6.09,3.841,3.841,0,0,0-2.422-.15,5.848,5.848,0,0,0-2.451,1.938l-1.647,1.909a4.4,4.4,0,0,0-.969,1.453,1.526,1.526,0,0,0,.339,1.623" transform="translate(-184.712 -331.603)" fill="#fbbebe"/>
    <path id="Path_176" data-name="Path 176" d="M332.905,604.148c.281,3.062-2.03,6.027-1.357,9.021.145.639.421,1.245.523,1.889.276,1.778-.785,3.464-1.8,4.951l-8.691,12.761a8.271,8.271,0,0,1-1.245,1.536c-1.667,1.453-4.157,1.323-6.342,1.764a10.875,10.875,0,0,0-4.244,1.88.276.276,0,0,0-.058.383,3.658,3.658,0,0,0,3.159,1.482c.228.3,0,.741-.315.969-.484.325-1.109.407-1.2,1.2a1.3,1.3,0,0,0,.16.794,2.457,2.457,0,0,0,1.521,1.056c3.009.92,6.264-.693,8.512-2.907s3.876-4.975,6.085-7.219c1.226-1.235,2.616-2.3,3.876-3.5a44.588,44.588,0,0,0,6.361-8.236,9.143,9.143,0,0,0,1.376-2.8c.233-1,.126-2.049.4-3.038a10.964,10.964,0,0,1,2.083-3.391,11.258,11.258,0,0,0,2.369-7.34,7.027,7.027,0,0,0-4.292-6.09,3.841,3.841,0,0,0-2.422-.15,5.848,5.848,0,0,0-2.451,1.938l-1.647,1.909a4.4,4.4,0,0,0-.969,1.453,1.526,1.526,0,0,0,.339,1.623" transform="translate(-184.712 -331.603)" opacity="0.05"/>
    <path id="Path_177" data-name="Path 177" d="M216.136,615.619c.484,1.531.969,3.062,1.555,4.554a38.531,38.531,0,0,0,4.026,7.345,52.912,52.912,0,0,0,3.328,4.36c1.482,1.749,3.139,3.508,3.663,5.741a29.072,29.072,0,0,1,.329,3.958,4.833,4.833,0,0,0,1.623,3.508,6.032,6.032,0,0,0,2.674.882c.669.107,1.507.141,1.855-.441a1.651,1.651,0,0,0,.184-.765l.165-1.938c.034-.417.179-.969.6-.969s.63.538.969.785a1.051,1.051,0,0,0,1.453-.484,2.422,2.422,0,0,0,.039-1.7,8.052,8.052,0,0,0-4.132-5.121,12.423,12.423,0,0,1-2.015-1.051,6.856,6.856,0,0,1-1.584-2c-3.663-6.032-7.345-12.112-9.932-18.657a13.8,13.8,0,0,1-1.022-3.677,23.739,23.739,0,0,1,.16-3.876,22.185,22.185,0,0,0-.64-6.918,5.441,5.441,0,0,0-.664-1.681,3.762,3.762,0,0,0-5.145-.741,5.3,5.3,0,0,0-2.044,3.74c-.116,1.3.639,2.665,1.022,3.876Q214.377,609.984,216.136,615.619Z" transform="translate(-134.15 -330.066)" fill="#a1616a"/>
    <path id="Path_178" data-name="Path 178" d="M216.136,615.619c.484,1.531.969,3.062,1.555,4.554a38.531,38.531,0,0,0,4.026,7.345,52.912,52.912,0,0,0,3.328,4.36c1.482,1.749,3.139,3.508,3.663,5.741a29.072,29.072,0,0,1,.329,3.958,4.833,4.833,0,0,0,1.623,3.508,6.032,6.032,0,0,0,2.674.882c.669.107,1.507.141,1.855-.441a1.651,1.651,0,0,0,.184-.765l.165-1.938c.034-.417.179-.969.6-.969s.63.538.969.785a1.051,1.051,0,0,0,1.453-.484,2.422,2.422,0,0,0,.039-1.7,8.052,8.052,0,0,0-4.132-5.121,12.423,12.423,0,0,1-2.015-1.051,6.856,6.856,0,0,1-1.584-2c-3.663-6.032-7.345-12.112-9.932-18.657a13.8,13.8,0,0,1-1.022-3.677,23.739,23.739,0,0,1,.16-3.876,22.185,22.185,0,0,0-.64-6.918,5.441,5.441,0,0,0-.664-1.681,3.762,3.762,0,0,0-5.145-.741,5.3,5.3,0,0,0-2.044,3.74c-.116,1.3.639,2.665,1.022,3.876Q214.377,609.984,216.136,615.619Z" transform="translate(-134.15 -330.066)" opacity="0.05"/>
    <path id="Path_179" data-name="Path 179" d="M364.663,751.428a10.151,10.151,0,0,1-6.472.969c-.354-.044-.775-.073-1,.2-.329.4.058.969.46,1.308a9.632,9.632,0,0,0,4.447,1.826,30.342,30.342,0,0,0,4.36.291,73.717,73.717,0,0,0,11.884-.441,1.576,1.576,0,0,0,.649-.189,1.23,1.23,0,0,0,.484-.746,2.97,2.97,0,0,0-1.037-2.829,8.721,8.721,0,0,0-2.771-1.487l-3.449-1.342c-.809-.315-2.112-1.153-2.989-1.085C367.6,748.012,366.035,750.624,364.663,751.428Z" transform="translate(-209.159 -408.35)" fill="#3f3d56"/>
    <path id="Path_180" data-name="Path 180" d="M383.1,766.974a8.473,8.473,0,0,1-5.789,2.161c-.543,0-1.3.1-1.3.644a.852.852,0,0,0,.155.451,5.329,5.329,0,0,0,2.994,2.345,10.66,10.66,0,0,0,3.614.228l3.537-.184c.669-.034,1.342-.068,2.006-.15s1.386-.218,2.078-.325a27.727,27.727,0,0,1,5.15-.242,1.5,1.5,0,0,0,1.269-.339c.315-.4.131-.969.029-1.453-.213-1.022,0-2.1-.2-3.13a5.5,5.5,0,0,0-3.609-3.842c-1.589-.606-4.409-1.3-5.915-.291C385.5,763.917,384.527,765.681,383.1,766.974Z" transform="translate(-218.927 -415.791)" fill="#3f3d56"/>
    <path id="Path_181" data-name="Path 181" d="M373.435,656.6c-1.453,1.914-2.907,4.123-2.568,6.487a14.627,14.627,0,0,0,1.429,3.58,25.234,25.234,0,0,1,1.453,5.029c.538,2.5,1.076,5.014,1.41,7.553a47.166,47.166,0,0,1,.315,8.672,2.925,2.925,0,0,1-.606,1.938c-.194.194-.446.354-.528.615a1.042,1.042,0,0,0,.111.727,8.047,8.047,0,0,0,4.312,3.968,16.516,16.516,0,0,0,5.862,1.095,1.648,1.648,0,0,0,.785-.1,1.512,1.512,0,0,0,.606-.693c1.453-2.762.644-6.095.669-9.2,0-2.6.63-5.179.518-7.781-.092-2.083-.649-4.118-.853-6.2a36.675,36.675,0,0,1,.916-10.2c.484-2.577.969-5.16,1.575-7.713a14.708,14.708,0,0,1,1.667-4.477c.678-1.071,1.6-1.967,2.374-2.975a13.5,13.5,0,0,0,2.655-9.869c-.048-.349-4.99,1.25-5.416,1.453a16.79,16.79,0,0,0-4.845,3.105,40.1,40.1,0,0,0-3.042,3.759q-2.122,2.582-4.176,5.193Q375.712,653.563,373.435,656.6Z" transform="translate(-216.25 -351.18)" fill="#464353"/>
    <path id="Path_182" data-name="Path 182" d="M373.435,656.6c-1.453,1.914-2.907,4.123-2.568,6.487a14.627,14.627,0,0,0,1.429,3.58,25.234,25.234,0,0,1,1.453,5.029c.538,2.5,1.076,5.014,1.41,7.553a47.166,47.166,0,0,1,.315,8.672,2.925,2.925,0,0,1-.606,1.938c-.194.194-.446.354-.528.615a1.042,1.042,0,0,0,.111.727,8.047,8.047,0,0,0,4.312,3.968,16.516,16.516,0,0,0,5.862,1.095,1.648,1.648,0,0,0,.785-.1,1.512,1.512,0,0,0,.606-.693c1.453-2.762.644-6.095.669-9.2,0-2.6.63-5.179.518-7.781-.092-2.083-.649-4.118-.853-6.2a36.675,36.675,0,0,1,.916-10.2c.484-2.577.969-5.16,1.575-7.713a14.708,14.708,0,0,1,1.667-4.477c.678-1.071,1.6-1.967,2.374-2.975a13.5,13.5,0,0,0,2.655-9.869c-.048-.349-4.99,1.25-5.416,1.453a16.79,16.79,0,0,0-4.845,3.105,40.1,40.1,0,0,0-3.042,3.759q-2.122,2.582-4.176,5.193Q375.712,653.563,373.435,656.6Z" transform="translate(-216.25 -351.18)" opacity="0.05"/>
    <path id="Path_183" data-name="Path 183" d="M390.326,639.22c.31,1.482,1.749,2.616,1.788,4.133.034,1.211-.828,2.229-1.453,3.27a21.928,21.928,0,0,0-1.482,3.362,51.267,51.267,0,0,1-4.36,8.657c-.828,1.318-1.759,2.747-1.565,4.292a6.336,6.336,0,0,0,.751,2.049l2.49,4.946a14.2,14.2,0,0,1,1.269,3.125c.218.94.237,1.938.363,2.868.392,3.033,1.812,6.085.969,9.026-.073.252-.339.557-.538.383a9.425,9.425,0,0,1,1.419,4.845,6.743,6.743,0,0,0,.029,2.718,2.965,2.965,0,0,1,.378,1.037c0,.247-.116.484-.141.732a1.62,1.62,0,0,0,1.24,1.507c.669.223,1.4.208,2.069.407,1.3.388,2.219,1.5,3.333,2.277a7,7,0,0,0,3.822,1.245.969.969,0,0,0,.562-.111.92.92,0,0,0,.315-.683,3.8,3.8,0,0,0-1.371-3.3,1.526,1.526,0,0,1-.484-.533,1.293,1.293,0,0,1-.048-.6,44.188,44.188,0,0,0-.145-8.163,12.6,12.6,0,0,1-.126-2.6,10.612,10.612,0,0,0,.208-2.166,11.06,11.06,0,0,0-.664-2.069,14.5,14.5,0,0,1-.315-3.876,33.97,33.97,0,0,0-1.095-6.632,5.034,5.034,0,0,0-1.032-2.393c-.518-.543-1.357-1.056-1.158-1.778a2.053,2.053,0,0,1,.484-.707,2.839,2.839,0,0,0,.6-2.165.969.969,0,0,0,1.114-.523,17.44,17.44,0,0,0,8.759-9.961,3.235,3.235,0,0,1,.392-.887,4.043,4.043,0,0,1,1.6-1.042,12.159,12.159,0,0,0,4.21-4.292,9.985,9.985,0,0,0,1.628-3.115,10.263,10.263,0,0,0,.223-2.248l.1-3.876a2.224,2.224,0,0,0-.073-.761,1.938,1.938,0,0,0-.421-.62,7.524,7.524,0,0,0-4.137-2.228c-1.061-.189-2.146-.155-3.222-.242-2.083-.174-4.142-.819-6.23-.669a10.023,10.023,0,0,0-7.751,5.411C392.06,638.314,391.488,639.186,390.326,639.22Z" transform="translate(-222.647 -348.518)" fill="#464353"/>
    <path id="Path_184" data-name="Path 184" d="M172.709,757.5a5.275,5.275,0,0,0,2.229.266c.053-.615.882-.751,1.5-.722a1.72,1.72,0,0,1,.882.194c.155.1.271.242.421.344a1.811,1.811,0,0,0,.872.223l3.207.271a9.6,9.6,0,0,0,4.254-.281,1.39,1.39,0,0,0,.683-.455c.363-.518,0-1.264-.484-1.642s-1.148-.552-1.652-.94c-1.114-.848-1.264-2.422-1.855-3.7a10.683,10.683,0,0,0-1.531-2.224,8.51,8.51,0,0,0-1.516-1.55c-1.284-.93-2.766-.911-4.273-1.042-1.066-.1-2.069-.16-2.834.785-.945,1.172-.567,3.537-.509,4.937A35.337,35.337,0,0,0,172.709,757.5Z" transform="translate(-113.74 -407.468)" fill="#514e7f"/>
    <path id="Path_185" data-name="Path 185" d="M172.709,757.5a5.275,5.275,0,0,0,2.229.266c.053-.615.882-.751,1.5-.722a1.72,1.72,0,0,1,.882.194c.155.1.271.242.421.344a1.811,1.811,0,0,0,.872.223l3.207.271a9.6,9.6,0,0,0,4.254-.281,1.39,1.39,0,0,0,.683-.455c.363-.518,0-1.264-.484-1.642s-1.148-.552-1.652-.94c-1.114-.848-1.264-2.422-1.855-3.7a10.683,10.683,0,0,0-1.531-2.224,8.51,8.51,0,0,0-1.516-1.55c-1.284-.93-2.766-.911-4.273-1.042-1.066-.1-2.069-.16-2.834.785-.945,1.172-.567,3.537-.509,4.937A35.337,35.337,0,0,0,172.709,757.5Z" transform="translate(-113.74 -407.468)" opacity="0.05"/>
    <path id="Path_186" data-name="Path 186" d="M168.172,638.1a2.246,2.246,0,0,0-1.226,2.553,9.168,9.168,0,0,0,1.294,2.786c1.424,2.553,2.044,5.474,3.241,8.139.9,1.991,2.107,3.832,2.994,5.814a9.781,9.781,0,0,1,.9,6.366c-.262,1.032-.765,1.981-1.1,2.989a16.957,16.957,0,0,0-.649,3.391,64.275,64.275,0,0,0-.233,11.7,3.556,3.556,0,0,0,.3,1.386c.2.388.547.794.378,1.2-.068.16-.213.276-.286.436-.2.446.208.911.581,1.226a1,1,0,0,1-.63.484,1.487,1.487,0,0,1,.635,1.657c-.334.048-.354.557-.14.824s.538.436.688.736a1.032,1.032,0,0,1-.567,1.3,2.655,2.655,0,0,1-1.545.116,16.768,16.768,0,0,1-2.587-.567,2.324,2.324,0,0,1-.795-.363,2.359,2.359,0,0,1-.712-1.57,28.36,28.36,0,0,1-.179-4.845c.14-7.829,0-15.668-.339-23.492a26.9,26.9,0,0,0-2.306-9.127,46.854,46.854,0,0,0-2.248-4.36c-1.754-3.226-3.314-6.782-2.907-10.44.044-.392.189-.867.577-.93a.838.838,0,0,1,.446.073,20.609,20.609,0,0,1,2.35,1.3,8.9,8.9,0,0,0,4.079,1.221Z" transform="translate(-107.904 -350.402)" fill="#464353"/>
    <path id="Path_187" data-name="Path 187" d="M168.172,638.1a2.246,2.246,0,0,0-1.226,2.553,9.168,9.168,0,0,0,1.294,2.786c1.424,2.553,2.044,5.474,3.241,8.139.9,1.991,2.107,3.832,2.994,5.814a9.781,9.781,0,0,1,.9,6.366c-.262,1.032-.765,1.981-1.1,2.989a16.957,16.957,0,0,0-.649,3.391,64.275,64.275,0,0,0-.233,11.7,3.556,3.556,0,0,0,.3,1.386c.2.388.547.794.378,1.2-.068.16-.213.276-.286.436-.2.446.208.911.581,1.226a1,1,0,0,1-.63.484,1.487,1.487,0,0,1,.635,1.657c-.334.048-.354.557-.14.824s.538.436.688.736a1.032,1.032,0,0,1-.567,1.3,2.655,2.655,0,0,1-1.545.116,16.768,16.768,0,0,1-2.587-.567,2.324,2.324,0,0,1-.795-.363,2.359,2.359,0,0,1-.712-1.57,28.36,28.36,0,0,1-.179-4.845c.14-7.829,0-15.668-.339-23.492a26.9,26.9,0,0,0-2.306-9.127,46.854,46.854,0,0,0-2.248-4.36c-1.754-3.226-3.314-6.782-2.907-10.44.044-.392.189-.867.577-.93a.838.838,0,0,1,.446.073,20.609,20.609,0,0,1,2.35,1.3,8.9,8.9,0,0,0,4.079,1.221Z" transform="translate(-107.904 -350.402)" opacity="0.05"/>
    <path id="Path_188" data-name="Path 188" d="M140.262,620.638a2.583,2.583,0,0,0-3.561.383,19.456,19.456,0,0,0-1.841,1.618,9.849,9.849,0,0,0-2.2,9.743,19.468,19.468,0,0,0,2.694,4.777l2.132,3.062c3.251,4.67,6.506,9.34,9.912,13.9a.523.523,0,0,0,.368.484c.126.034.276.029.354.131a.378.378,0,0,1,.044.208,3.163,3.163,0,0,1-.189.969.451.451,0,0,0-.039.334c.107.257.577.111.722.354a.385.385,0,0,1-.155.484.56.56,0,0,0-.266.484c.024.2.349.383.334.625,0,.136-.116.237-.2.344a.877.877,0,0,0,.107,1.119c.223,2.229-.969,4.336-1.226,6.564-.383,3.5,1.2,6.923,1.4,10.44a2.8,2.8,0,0,0,.218,1.153c.329.606,1.172.969,1.143,1.662a6.345,6.345,0,0,1-.237.838,6.738,6.738,0,0,0,.126,1.2c0,.4-.339.882-.712.727q.422,1.4.746,2.815l7.461.615a6.7,6.7,0,0,0-.068-2.015c-.155-.717-.484-1.39-.649-2.107a2.485,2.485,0,0,1,.3-2.107.824.824,0,0,1-.824-.678,3.324,3.324,0,0,1,0-1.158c.2-1.938-.62-3.876-.6-5.814a28,28,0,0,1,.838-4.53c.581-3.236-.024-6.749,1.415-9.689.872-1.783,2.078-3.759,1.1-5.484-.484-.853-1.332-1.453-1.885-2.238a9.1,9.1,0,0,1-1.013-2.422,81.824,81.824,0,0,0-4.641-10.232,10.771,10.771,0,0,1-1-2.689,13.666,13.666,0,0,1-.121-2.48,38.02,38.02,0,0,0-.276-4.457,4.171,4.171,0,0,0-.543-1.846,4.129,4.129,0,0,0-1.163-1.061C145.819,622.992,142.9,622.028,140.262,620.638Z" transform="translate(-93.23 -342.463)" fill="#464353"/>
    <path id="Path_189" data-name="Path 189" d="M166.482,763.149a5.276,5.276,0,0,0,2.229.266c.058-.615.882-.751,1.5-.722a1.72,1.72,0,0,1,.857.2c.155.1.271.242.426.344a1.781,1.781,0,0,0,.872.223l3.2.271a9.63,9.63,0,0,0,4.258-.281,1.4,1.4,0,0,0,.678-.455c.363-.518,0-1.264-.484-1.642s-1.148-.552-1.657-.94c-1.109-.848-1.264-2.422-1.855-3.7a10.687,10.687,0,0,0-1.531-2.224,8.485,8.485,0,0,0-1.512-1.55c-1.289-.93-2.766-.911-4.273-1.042-1.071-.1-2.074-.16-2.834.785-.969,1.172-.572,3.537-.514,4.937a35.993,35.993,0,0,0,.639,5.533Z" transform="translate(-110.511 -410.381)" fill="#514e7f"/>
    <rect id="Rectangle_75" data-name="Rectangle 75" width="37.803" height="37.803" transform="translate(96.423 296.574)" fill="#feba02"/>
    <path id="Path_190" data-name="Path 190" d="M289.088,685.088c0,4.312-2.02,7.025-5.213,7.025a2.881,2.881,0,0,1-3.1-2.166h-.233a3.391,3.391,0,0,1-3.357,2.088c-2.839,0-4.733-2.277-4.733-5.663,0-3.251,1.909-5.513,4.694-5.513a3.391,3.391,0,0,1,3.183,1.9h.233v-1.618h2.321v7.534a1.347,1.347,0,0,0,1.453,1.5c1.608,0,2.635-1.938,2.635-4.99,0-4.845-3.634-8.086-9-8.086s-9.084,3.876-9.084,9.341c0,5.6,3.74,9.171,9.563,9.171a17.552,17.552,0,0,0,3.164-.271.92.92,0,0,1,.388,1.8,16.1,16.1,0,0,1-3.643.4c-7.078,0-11.627-4.36-11.627-11.143,0-6.628,4.627-11.177,11.366-11.177C284.6,675.181,289.088,679.226,289.088,685.088Zm-14.122,1.337c0,2.151,1.008,3.454,2.655,3.454,1.734,0,2.829-1.337,2.829-3.454S279.356,683,277.65,683,274.966,684.27,274.966,686.425Z" transform="translate(-162.594 -370.879)" fill="#fff"/>
    <circle id="Ellipse_25" data-name="Ellipse 25" cx="7.388" cy="7.388" r="7.388" transform="translate(81.642 250.482)" fill="#a1616a"/>
    <path id="Path_191" data-name="Path 191" d="M205.986,582.3c-1.061.916-2.577.969-3.968,1.124a24.8,24.8,0,0,0-8.536,2.471,3.047,3.047,0,0,0-.969.678,2.8,2.8,0,0,0-.484,1.056,6.986,6.986,0,0,0-.281,2.568,7.4,7.4,0,0,0,.712,2.422,13,13,0,0,0,4.583,5.223,3.33,3.33,0,0,0,1.114.533c.969.2,1.914-.363,2.868-.615a4.7,4.7,0,0,1,2.65.087c.8.267,1.652.756,2.422.431a2.528,2.528,0,0,0,1.1-1.255,42.578,42.578,0,0,0,2.015-4.413,16.726,16.726,0,0,1,.732-1.715c.857-1.633,2.34-2.907,3.076-4.583a1.008,1.008,0,0,0,.068-.862,1.2,1.2,0,0,0-.543-.417,12.95,12.95,0,0,1-2.95-2.316c-.484-.485-1.381-1.725-2.078-1.836C206.757,580.781,206.519,581.847,205.986,582.3Z" transform="translate(-123.923 -322.242)" fill="#a1616a"/>
    <path id="Path_192" data-name="Path 192" d="M183.292,602.759a4.409,4.409,0,0,1-2.8.034,30.85,30.85,0,0,1-7.025-2.044,3.76,3.76,0,0,1-1.725-1.323,4.229,4.229,0,0,1-.484-1.657l-.407-2.747a16.657,16.657,0,0,1,.126-2.82.824.824,0,0,0-.16-.615.664.664,0,0,0-.484-.15c-1.109,0-1.778,1.177-2.558,1.967a4.723,4.723,0,0,1-1.57,1.056c-.712.291-1.589.484-1.875,1.206-.121.3-.107.635-.228.93-.484,1.182-2.616.79-3.154,1.938-.155.33-.145.746-.4,1.008s-.727.252-1.114.32c-1.541.252-2.292,2.035-3.609,2.873-1.109.707-2.539.693-3.73,1.245a14.28,14.28,0,0,1-1.938.969,9.166,9.166,0,0,1-2.248.111.606.606,0,0,0-.451.145.62.62,0,0,0-.073.484,13.6,13.6,0,0,0,8.406,10.527,2.96,2.96,0,0,1,.717.344c.673.484.79,1.584,1.55,1.938a1.6,1.6,0,0,0,1.618-.349,14.072,14.072,0,0,0,1.168-1.289,4.651,4.651,0,0,1,2.6-1.366c.916-.145,1.938-.039,2.679-.6a8.228,8.228,0,0,0,.843-.9,5.284,5.284,0,0,1,1.938-1.143,19.383,19.383,0,0,1,6.056-1.279c1.938-.111,3.948.068,5.785-.567a3.389,3.389,0,0,0,1.289-.727,3.875,3.875,0,0,0,.862-1.5,11.429,11.429,0,0,0,.392-6.022Z" transform="translate(-101.054 -327.685)" fill="#feba02"/>
    <path id="Path_193" data-name="Path 193" d="M197.464,592.17c.547-.048,1.095,0,1.642,0,.644,0,1.279-.155,1.938-.16a4.777,4.777,0,0,1,4.506,3.43.872.872,0,0,1,.029.484.344.344,0,0,1-.373.252,8.19,8.19,0,0,0-.828-1.662,4.7,4.7,0,0,0-2.48-1.725,6.438,6.438,0,0,0-3.052-.111c-.417.077-.828.189-1.24.305l-2.011.543c-.363.1-.727.2-1.08.329-.271.1-.741.484-1.008.484-.363,0-.068-.315.092-.528a2.587,2.587,0,0,1,1.289-.935,10.845,10.845,0,0,1,2.577-.707Z" transform="translate(-124.75 -327.982)" fill="#feba02"/>
    <path id="Path_194" data-name="Path 194" d="M207.307,617.313c.484,1.531.969,3.062,1.555,4.554a38.533,38.533,0,0,0,4.031,7.344,52.908,52.908,0,0,0,3.328,4.36c1.482,1.749,3.139,3.508,3.663,5.741a29.077,29.077,0,0,1,.329,3.958,4.833,4.833,0,0,0,1.623,3.508,6.031,6.031,0,0,0,2.674.882c.669.107,1.507.14,1.855-.441a1.653,1.653,0,0,0,.184-.766l.16-1.938c.039-.417.184-.969.6-.969s.63.538.969.785a1.051,1.051,0,0,0,1.453-.484,2.456,2.456,0,0,0,.039-1.7,8.052,8.052,0,0,0-4.123-5.126,12.419,12.419,0,0,1-2.015-1.051,6.783,6.783,0,0,1-1.584-2c-3.667-6.032-7.349-12.112-9.932-18.657a13.8,13.8,0,0,1-1.022-3.677,23.736,23.736,0,0,1,.16-3.876,22.184,22.184,0,0,0-.625-6.928,5.442,5.442,0,0,0-.664-1.681,3.762,3.762,0,0,0-5.145-.741,5.3,5.3,0,0,0-2.044,3.74c-.116,1.3.639,2.665,1.022,3.876Q205.553,611.679,207.307,617.313Z" transform="translate(-129.613 -330.932)" fill="#a1616a"/>
    <path id="Path_195" data-name="Path 195" d="M229.937,561.8c.058-.615-.484-1.172-1.119-1.565a15.608,15.608,0,0,1-1.9-1.163c-.562-.484-.867-1.119-1.429-1.6a6.3,6.3,0,0,0-2.132-1.061,16.183,16.183,0,0,0-5.1-.916,8.978,8.978,0,0,0-4.879,1.289,2.906,2.906,0,0,0-.828.77,3.39,3.39,0,0,0-.4,1.226,24.225,24.225,0,0,1-1.274,3.876,8.991,8.991,0,0,1-2.422,3.914c-1.381,1.153-3.5,1.817-4.409,3.207a1.042,1.042,0,0,0-.2.9c.131.349.552.586.935.809a12.7,12.7,0,0,1,5.174,4.951,5.741,5.741,0,0,1-.455,6.177c-.518.678-1.235,1.482-.727,2.166.77,1.037,3.43.446,4.04,1.541a2.19,2.19,0,0,1,.082,1.134c0,1.148,1.109,2.175,2.456,2.7a13.7,13.7,0,0,0,4.418.727,3.818,3.818,0,0,0,.111-2.858,1.143,1.143,0,0,1-.111-.649,1.561,1.561,0,0,1,.484-.625c1.623-1.531,1.279-3.784.305-5.6s-2.485-3.483-3.047-5.4a2.741,2.741,0,0,1,.484-2.81,9.78,9.78,0,0,1,1.39-1.017,5.285,5.285,0,0,0,1.938-2.422c.451-1.26.383-2.776,1.71-3.609s3.047-.562,4.447-1.1A4.766,4.766,0,0,0,229.937,561.8Z" transform="translate(-130.157 -309.156)" fill="#464353"/>
    <circle id="Ellipse_26" data-name="Ellipse 26" cx="8.057" cy="8.057" r="8.057" transform="translate(133.151 247.202)" fill="#fbbebe"/>
    <path id="Path_196" data-name="Path 196" d="M350.02,571.566a10.445,10.445,0,0,0,6.686,4.675l-.606,2.2c-1.046,3.789-2.229,7.8-5.155,10.426a4.874,4.874,0,0,0-.819-3.769,14.278,14.278,0,0,0-2.732-2.858l-4.636-4.036a1.265,1.265,0,0,1-.349-.388,1.182,1.182,0,0,1,0-.882c.591-1.841,2.277-2.989,3.643-4.229a12.852,12.852,0,0,0,1.836-2.137C348.838,569.26,349.434,570.582,350.02,571.566Z" transform="translate(-201.56 -316.646)" fill="#fbbebe"/>
    <path id="Path_197" data-name="Path 197" d="M356.485,585.567a4.36,4.36,0,0,1-.237,1.778,1.25,1.25,0,0,1-1.453.746c.17-.383-.276-.819-.693-.77a1.3,1.3,0,0,0-.921.78,2.907,2.907,0,0,0-.266,1.8,7.374,7.374,0,0,1,.455,2.262c-.092.635-.562,1.269-.31,1.865a3,3,0,0,0,.6.717,2.035,2.035,0,0,1-.218,2.791l6.3.121a4.418,4.418,0,0,0,.78,3.057,19.248,19.248,0,0,0,14.35,9.37,1.25,1.25,0,0,0-.3,1.909,1.767,1.767,0,0,0,2.015.116,15.3,15.3,0,0,0,1.73-1.293,5.285,5.285,0,0,1,3.546-.969c.79.073,1.55.325,2.34.368,2.325.126,4.326-1.55,6.55-2.233,1.633-.484,3.478-.484,4.845-1.521a1.921,1.921,0,0,0,.9-1.87,3.047,3.047,0,0,0-.678-1.095A19.5,19.5,0,0,1,394,600.105a20.246,20.246,0,0,0-4.539-6.075,40.091,40.091,0,0,0-4.5-3.415,7.609,7.609,0,0,0-1.221-.732,12.5,12.5,0,0,1-1.667-.678,9.3,9.3,0,0,1-1.73-1.938c-1.245-1.453-3.159-2.117-4.694-3.26a11.245,11.245,0,0,0-3.164-2.146c-.6-.179-1.235-.194-1.831-.373-1.356-.412-2.345-1.618-3.677-2.1a14.874,14.874,0,0,0-3.328-.426,7.753,7.753,0,0,1-3.42-1.294,4.11,4.11,0,0,0-1.1-.649c-1.681-.484-1.817,2.626-1.977,3.711A31.108,31.108,0,0,0,356.485,585.567Z" transform="translate(-206.998 -320.226)" fill="#3f3d56"/>
    <path id="Path_198" data-name="Path 198" d="M338.94,610.986c.281,3.057-2.03,6.022-1.357,9.021.145.64.417,1.245.518,1.889.281,1.778-.78,3.459-1.793,4.946l-8.72,12.761a7.746,7.746,0,0,1-1.24,1.536c-1.667,1.478-4.157,1.323-6.342,1.768a10.857,10.857,0,0,0-4.249,1.88.276.276,0,0,0-.053.378,3.644,3.644,0,0,0,3.159,1.482c.228.3,0,.746-.315.969-.484.325-1.109.412-1.2,1.2a1.347,1.347,0,0,0,.155.8,2.48,2.48,0,0,0,1.526,1.056c3.009.921,6.259-.7,8.512-2.907s3.876-4.975,6.085-7.219c1.226-1.24,2.616-2.3,3.876-3.5a45.8,45.8,0,0,0,6.361-8.236A9.17,9.17,0,0,0,345.238,626c.233-.993.126-2.049.4-3.033a10.762,10.762,0,0,1,2.083-3.391,11.271,11.271,0,0,0,2.369-7.344,7.035,7.035,0,0,0-4.292-6.09,3.842,3.842,0,0,0-2.422-.145,5.773,5.773,0,0,0-2.451,1.938l-1.652,1.909a4.534,4.534,0,0,0-.969,1.453,1.526,1.526,0,0,0,.339,1.623" transform="translate(-187.811 -335.128)" fill="#fbbebe"/>
    <path id="Path_199" data-name="Path 199" d="M366.816,590.389a4.875,4.875,0,0,0-3.212.969,4.486,4.486,0,0,0-.8,1.269,12.54,12.54,0,0,0-1.6,5.043,22.742,22.742,0,0,0,.581,4.215,16.077,16.077,0,0,1-.363,3.541,24.182,24.182,0,0,0,4.573-1.759,15.3,15.3,0,0,1,2.679-1.39c1.361-.455,3.658.325,4.946.969.073-.911-.61-2.495-.538-3.391a3.716,3.716,0,0,1,.2-1.129,6.73,6.73,0,0,1,.683-1.09,4.462,4.462,0,0,0-.4-5.237,7.222,7.222,0,0,0-4.67-1.981,20.426,20.426,0,0,0-3.265-.111" transform="translate(-211.287 -327.093)" fill="#3f3d56"/>
    <path id="Path_200" data-name="Path 200" d="M319.185,550.3,319,548.788c1.274.325,2.48-.751,3.294-1.87s1.565-2.422,2.8-2.907c1.507-.567,3.1.339,4.539,1.085a14.21,14.21,0,0,0,5.208,1.725,3.687,3.687,0,0,1,.862.141,3,3,0,0,1,1.516,2.573,10.093,10.093,0,0,0,.557,3.149c.354.717.969,1.255,1.318,1.938.969,1.9.034,4.51,1.076,6.38l-2.582-2.364c-.237-.218-.572-.446-.828-.262s-.223.484-.31.712a1.352,1.352,0,0,1-1.836.669,5.033,5.033,0,0,1-1.642-1.5,10.038,10.038,0,0,0-4.1-3.105,5.237,5.237,0,0,0-4.336.257c-1.206.683-2.088,2.267-3.566,2.321-2.025.078-2.868-3.692-3.8-5.179a1.836,1.836,0,0,0,.533-2.287C317.843,550.212,319.156,550.072,319.185,550.3Z" transform="translate(-188.593 -303.145)" fill="#464353"/>
    <path id="Path_201" data-name="Path 201" d="M697.157,688.805c-.392-1.662-.63-3.115-.63-3.115a6.452,6.452,0,0,0-.722-3.164v-.455h0v-3.343a11.046,11.046,0,0,1,.843-1.749c.6-1.046,0-4.893,0-4.893s-2.229-5.421-1.691-8.861-4.573-15.275-4.573-15.275a15.086,15.086,0,0,1,.484-3.391,2.448,2.448,0,0,0,.063-.707.52.52,0,0,0,0-.087v.029c-.077-2.267-1.87-6.521-1.87-6.521l.242-8.1a23.857,23.857,0,0,0-.722-11.2c-.654-2.238-1.071-4.026-1.337-5.411-.029-.155-.058-.305-.082-.451,3.842-.586,6.783-1.076,6.783-1.076s-2.228-9.326-3.735-10.959-2.708-6.758-2.708-6.758-.785-6.589.484-8.512a12.81,12.81,0,0,0,1.453-5.247s2.907-2.1,3.251-3.033a15.361,15.361,0,0,0,.969-4.137c0-1.109-.363-2.1-.242-2.684s-.843-2.8-.358-3.847a2.815,2.815,0,0,0,.189-1.013.064.064,0,0,0,0-.029h0a14.4,14.4,0,0,0-.257-2.737,7.752,7.752,0,0,0-2.858-1.531l-.063-.247-.165-.654a2.23,2.23,0,0,0-.286-.17v-1.211l.451-2.132c.891-3.7-4.05-4.249-4.05-4.249a2.606,2.606,0,0,0-1.4-1.23c-.969-.349-.165,5.571.3,5.949a19.271,19.271,0,0,1,1.938,3.052h0l.087.15a1.973,1.973,0,0,0-.228.237l.189,1.284.029.2a5.278,5.278,0,0,0-.79,1.342,2.863,2.863,0,0,1,.722,2.1,6.588,6.588,0,0,0,.3,2.563c-.053-.063-.688-.751-1.323-.581s-2.422.7-2.422.7-1.327.233-1.206.523-.9,1.575-.9,1.575l-3.561-3.391c-.039-.1-.073-.2-.107-.305a8.127,8.127,0,0,1-.305-1.453,7.914,7.914,0,0,0,1.134-.363,2.456,2.456,0,0,0,.969-.63,3.848,3.848,0,0,0,.572-1.536,21.314,21.314,0,0,1,1.323-2.946,9.582,9.582,0,0,0,.688-5.257,3.5,3.5,0,0,0-.543-1.55c-.581-.8-1.637-1.124-2.422-1.763s-1.26-1.608-2.156-2.088a4.248,4.248,0,0,0-2.7-.233,14.448,14.448,0,0,0-5.043,1.831,2.593,2.593,0,0,1-1.691.557,2.282,2.282,0,0,1-1.216-.891.243.243,0,0,1,0-.053l-.044-.044a6.379,6.379,0,0,0-.552,2.665v.572a1.084,1.084,0,0,1,0,.126h0a.848.848,0,0,1-.029.189,1.37,1.37,0,0,1-.329.484,2.14,2.14,0,0,0-.291.4.427.427,0,0,1,.048-.145,2.1,2.1,0,0,0-.373,1.119,1.114,1.114,0,0,0,.271.8,3.874,3.874,0,0,0,.577.484,6.786,6.786,0,0,0-.1,1.182,6.889,6.889,0,0,0,3.353,5.877l.121.305a8.473,8.473,0,0,1,.644,3.876.654.654,0,0,1-.044.286l-.126.145h0s-5.881.058-7.267-1.2-3.493,3.062-3.493,3.062-2.107.412-2.529,0-2.907-.058-2.907-.058a5.329,5.329,0,0,0-3.672-1.337,10.792,10.792,0,0,0-2.7-1.5h0l-.068-.024h0a3.014,3.014,0,0,0-1.328-.165,26.2,26.2,0,0,1-3.73-3.672c-.824-1.279-4.845-6.041-4.879-6.066v-.228l-.048-.693a2.706,2.706,0,0,1-.359.034.843.843,0,0,0-.082-.242,13.076,13.076,0,0,0-.853-1.938s0-.872.257-1.09-.107-3.425-.107-3.425-2.606-6.09-4.937-1.545c0,0-4.414,2.941-.712,6.371,0,0,1.453.712,1.686,1.279.141.368.64,1.4.969,2.083l.15.305-.044.034.058.572v.223c-.7.392-1.168.785-1.056,1.085a6.377,6.377,0,0,1,.421,1.575s5.121,6.409,5.785,9.152c0,0,13.73,8.158,18.245,8.745l-.78,4.079a32.257,32.257,0,0,0-.179,3.323c.058.872-.543,4.845-.543,4.845s-.785,5.814-1.453,6.642-.543,4.317-.543,4.317a29.115,29.115,0,0,1-.9,4.951,12.581,12.581,0,0,0-.179,4.956s-2.292,5.247,3.193,1.691c0,0,2.689-.165,5.814-.271v1.594c-.039,3-.058,7.146.078,10.28.242,5.537,1.938,16.472,1.938,16.472v5.5a7.7,7.7,0,0,0-.155,1.575,10.2,10.2,0,0,0,1.482,5.513l.422,3.672a15.215,15.215,0,0,1,1.008,3.876,1.911,1.911,0,0,1-.044.349,2.6,2.6,0,0,0-.048.562,31.479,31.479,0,0,0,.969,5.659s.063,4.021.664,4.254c.514.2-.688,2.321-1.046,2.907a1,1,0,0,1-.024-.116c-.044.078-.073.121-.073.121a2.825,2.825,0,0,0-.189,1.017,1.454,1.454,0,0,0,.669,1.415c1.143.7,1.759,1.284.79,1.516a9.612,9.612,0,0,0-1.061.223c0-.044-.039-.092-.053-.136a.649.649,0,0,0-.378.673,2.98,2.98,0,0,0,.363,1.361,14.531,14.531,0,0,0,1.628,2.975l.484-.053a2.291,2.291,0,0,1-.271.484,1.875,1.875,0,0,1-.678.6,2.168,2.168,0,0,1-.824.286,2.3,2.3,0,0,0-1.705.828,1.781,1.781,0,0,0,.208,2.766l4.307,1.482s7.407.969,7.015-.7-.63-3.115-.63-3.115a6.575,6.575,0,0,0-.606-2.95,2.915,2.915,0,0,0-.262-.436l.262-.029s.543-3.672,1.264-4.36c.17-.16.208-.286.165-.383.078-.2-.111-.315-.354-.383l-.053.145a3.638,3.638,0,0,0-.717-.077s-.242-1.938.538-2.626a.741.741,0,0,0,.155-.572,3.293,3.293,0,0,0-.082-.785l-.029.048a27.971,27.971,0,0,0-1.73-4.52,5.589,5.589,0,0,1,.421-2.451c.48-.7-.058-9.5-.058-9.5a28.808,28.808,0,0,0-.363-6.235,7,7,0,0,1,.664-4.317v-.155s-.029-.262-.073-.673v.044c-.121-1.129-.349-3.168-.518-4.108-.242-1.342.058-7.752.058-7.752l1.085-2.737,1.938,4.719,2.044,6.3a5.353,5.353,0,0,1,1.042,2.674v.2a3.155,3.155,0,0,0,0,.422,3.759,3.759,0,0,0,.625,2.243s.543,2.975,1.386,3.73a3.358,3.358,0,0,1,.843,2.214,36.943,36.943,0,0,0,1.507,5.072,7.439,7.439,0,0,1,.422,2.907h0v.16s.141,1.541.136,2.839v.451a4.513,4.513,0,0,1-.126,1.046v-.155a10.784,10.784,0,0,0-.31,2.689,6.879,6.879,0,0,0,1.148,4.462c1.628,1.865,2.65,1.633,2.65,1.633s-.785,2.33-1.749,2.8a.582.582,0,0,0-.1.063.269.269,0,0,0-.024-.136,1.139,1.139,0,0,0-.281.872,6.239,6.239,0,0,0,1.192,3.454,1.91,1.91,0,0,0,.814.484l-.15.092a3.417,3.417,0,0,1-.334.16,1.579,1.579,0,0,1-.484.126,2.3,2.3,0,0,0-1.705.828,1.781,1.781,0,0,0,.208,2.766l4.307,1.483S697.53,690.491,697.157,688.805Z" transform="translate(-349.087 -304.383)" fill="url(#linear-gradient)"/>
    <path id="Path_202" data-name="Path 202" d="M706.594,837.5l-4.171-1.482a1.812,1.812,0,0,1-.2-2.766,2.195,2.195,0,0,1,1.647-.828,2.038,2.038,0,0,0,.8-.286,1.888,1.888,0,0,0,.659-.6,3.066,3.066,0,0,0,.484-1.613s4.578-1.337,5.814,0a3.423,3.423,0,0,1,.557.814,6.784,6.784,0,0,1,.581,2.95s.232,1.453.61,3.115S706.594,837.5,706.594,837.5Z" transform="translate(-386.817 -450.33)" fill="#2d293d"/>
    <path id="Path_203" data-name="Path 203" d="M748.7,833.3l-4.166-1.482a1.8,1.8,0,0,1-.2-2.761,2.19,2.19,0,0,1,1.652-.833,1.505,1.505,0,0,0,.484-.126,2.449,2.449,0,0,0,.32-.16,2.637,2.637,0,0,0,1.138-2.214s4.573-1.342,5.814,0a3.241,3.241,0,0,1,.436.6,6.656,6.656,0,0,1,.7,3.168s.232,1.453.61,3.115S748.7,833.3,748.7,833.3Z" transform="translate(-408.527 -448.163)" fill="#2d293d"/>
    <path id="Path_204" data-name="Path 204" d="M715.523,829.926a3.42,3.42,0,0,1,.557.814h0l-6.86.795a3.067,3.067,0,0,0,.484-1.613S714.273,828.589,715.523,829.926Z" transform="translate(-390.708 -450.329)" opacity="0.1"/>
    <path id="Path_205" data-name="Path 205" d="M757.032,826.271v1.284c-1.066,1.759-6.225,1.376-7.722.484a2.453,2.453,0,0,0,.32-.16,2.637,2.637,0,0,0,1.138-2.214s4.573-1.342,5.814,0A3.241,3.241,0,0,1,757.032,826.271Z" transform="translate(-411.375 -448.132)" opacity="0.1"/>
    <path id="Path_206" data-name="Path 206" d="M729.857,743.636a11.436,11.436,0,0,0-.819,1.749v4.607c-1.163,1.938-7.228,1.284-8.042.233s-1.691-3.789-.761-4.254,1.691-2.8,1.691-2.8-.969.233-2.563-1.633-1.1-6-.814-7a20.743,20.743,0,0,0,0-4.312,8.682,8.682,0,0,0-.407-3.091,38.533,38.533,0,0,1-1.453-5.072,3.443,3.443,0,0,0-.814-2.214c-.814-.761-1.342-3.73-1.342-3.73a3.823,3.823,0,0,1-.581-2.5,5.1,5.1,0,0,0-.993-3.033l-1.982-6.3-1.865-4.724-1.047,2.737s-.3,6.414-.058,7.751.581,4.893.581,4.893a7.179,7.179,0,0,0-.64,4.317,29.475,29.475,0,0,1,.349,6.235s.523,8.8.058,9.505a5.623,5.623,0,0,0-.407,2.422s2.388,5.13,1.628,5.814-.523,2.626-.523,2.626,1.633,0,.935.7-1.226,4.36-1.226,4.36l-7.059.891a14.93,14.93,0,0,1-1.579-2.975c-.93-2.156.174-1.938,1.114-2.156s.344-.814-.766-1.516-.484-2.272-.484-2.272,1.691-2.858,1.109-3.091-.644-4.254-.644-4.254-1.163-4.782-.872-6.061-.935-4.36-.935-4.36l-.407-3.672a10.1,10.1,0,0,1-1.26-6.947v-5.673s-1.633-10.959-1.87-16.472c-.145-3.546-.107-8.386-.058-11.409.029-1.691.058-2.815.058-2.815L720.3,675.52a20.873,20.873,0,0,0,.46,3.74c.257,1.381.659,3.173,1.289,5.412a24.611,24.611,0,0,1,.7,11.191l-.233,8.1s2.214,5.421,1.749,7.267a15.384,15.384,0,0,0-.484,3.391s4.956,11.836,4.433,15.275,1.638,8.837,1.638,8.837S730.439,742.609,729.857,743.636Z" transform="translate(-383.382 -371.034)" fill="#464353"/>
    <path id="Path_207" data-name="Path 207" d="M737.22,752.352l7.645-1.022S740.543,755.758,737.22,752.352Z" transform="translate(-405.143 -410.117)" opacity="0.05"/>
    <path id="Path_208" data-name="Path 208" d="M749.265,735.87s.266,2.708-1.4,3.73C747.87,739.6,750.84,739.135,749.265,735.87Z" transform="translate(-410.633 -402.147)" opacity="0.1"/>
    <path id="Path_209" data-name="Path 209" d="M740.161,718.06s-6.4,5.276-8.72,4.845S740.161,718.06,740.161,718.06Z" transform="translate(-401.998 -392.965)" opacity="0.1"/>
    <path id="Path_210" data-name="Path 210" d="M712.265,758.55s-4.845,1.109-5.009,3.062S712.265,758.55,712.265,758.55Z" transform="translate(-389.693 -413.839)" opacity="0.1"/>
    <path id="Path_211" data-name="Path 211" d="M714.2,808.72s-6.875,1.284-4.922,2.161a33.328,33.328,0,0,0,5.16,1.57S716.652,812.567,714.2,808.72Z" transform="translate(-390.558 -439.703)" opacity="0.05"/>
    <g id="Group_81" data-name="Group 81" transform="translate(311.602 306.889)" opacity="0.05">
      <path id="Path_212" data-name="Path 212" d="M705.843,814.938a1.362,1.362,0,0,1-.63-1l-.068.126s-.644,1.57.484,2.272c.126.078.247.16.359.237.2-.039.426-.068.635-.121C707.543,816.241,706.952,815.655,705.843,814.938Z" transform="translate(-700.115 -749.283)"/>
      <path id="Path_213" data-name="Path 213" d="M724.721,813.8c.189-.174.179-.625.068-1.2a3.25,3.25,0,0,0-.392,1.691,1.294,1.294,0,0,1,.325-.489Z" transform="translate(-710.132 -748.592)"/>
      <path id="Path_214" data-name="Path 214" d="M722.364,755.22a8.023,8.023,0,0,0-.484,2.141,8.466,8.466,0,0,1,.533-1.453A4.325,4.325,0,0,0,722.364,755.22Z" transform="translate(-708.836 -719.011)"/>
      <path id="Path_215" data-name="Path 215" d="M755.256,748.219a2.773,2.773,0,0,0,.063-.64c-.087.436-.145.843-.189,1.2C755.169,748.593,755.207,748.408,755.256,748.219Z" transform="translate(-725.978 -715.072)"/>
      <path id="Path_216" data-name="Path 216" d="M722.37,796.624a3.669,3.669,0,0,0,.174-1.294,4.268,4.268,0,0,0-.334,1.633A1.568,1.568,0,0,1,722.37,796.624Z" transform="translate(-709.006 -739.689)"/>
      <path id="Path_217" data-name="Path 217" d="M714.864,820.68a23.316,23.316,0,0,0-.8,3.58l-7.049.819a14.6,14.6,0,0,1-1.579-2.975,5.177,5.177,0,0,1-.2-.513c-.421.194-.591.63-.034,1.938a14.428,14.428,0,0,0,1.579,2.97l7.044-.819s.528-3.672,1.226-4.36C715.4,820.946,715.179,820.772,714.864,820.68Z" transform="translate(-700.056 -752.758)"/>
      <path id="Path_218" data-name="Path 218" d="M700.452,737.933s.058,4.026.64,4.258h0c.3-.664.484-1.293.228-1.4-.581-.232-.64-4.254-.64-4.254s-1.168-4.782-.872-6.065-.935-4.36-.935-4.36l-.407-3.672a10.115,10.115,0,0,1-1.284-6.938v-5.663s-1.633-10.959-1.865-16.5c-.15-3.546-.107-8.386-.058-11.409V680.48h-.2s-.029,1.119-.058,2.815c-.048,3.018-.092,7.863.058,11.409.233,5.537,1.865,16.5,1.865,16.5v5.654a10.082,10.082,0,0,0,1.313,7l.407,3.672s1.226,3.086.93,4.36S700.452,737.933,700.452,737.933Z" transform="translate(-694.956 -680.48)"/>
      <path id="Path_219" data-name="Path 219" d="M747.649,823.561a6.783,6.783,0,0,1-1.114-2.771c-.722.649.107,3.173.882,4.171s6.879,1.691,8.047-.237v-1.109C753.884,825.179,748.424,824.554,747.649,823.561Z" transform="translate(-721.404 -752.815)"/>
      <path id="Path_220" data-name="Path 220" d="M766.554,812.853a11.653,11.653,0,0,0-.814,1.749v.819c.131-.3.32-.7.581-1.168a3.53,3.53,0,0,0,.257-1.453Z" transform="translate(-731.448 -748.695)"/>
      <path id="Path_221" data-name="Path 221" d="M746.32,805.644a11.216,11.216,0,0,0,.577-1.386s-.969.233-2.568-1.633c-1.143-1.357-1.206-3.919-1.047-5.6-.291.993-.761,5.13.814,7A4.109,4.109,0,0,0,746.32,805.644Z" transform="translate(-719.716 -740.565)"/>
      <path id="Path_222" data-name="Path 222" d="M732.645,754.038a32.047,32.047,0,0,1,.116,3.454c.039-.228.082-.412.116-.543a20.441,20.441,0,0,0,0-4.312,8.672,8.672,0,0,0-.407-3.091,38.308,38.308,0,0,1-1.453-5.072,3.443,3.443,0,0,0-.814-2.214c-.814-.761-1.342-3.73-1.342-3.73a3.822,3.822,0,0,1-.586-2.5,5.11,5.11,0,0,0-.969-3.033l-1.981-6.3L723.435,722l-1.051,2.737s0,.344-.034.887l.853-2.224,1.865,4.719,1.981,6.3a4.986,4.986,0,0,1,.969,3.028,3.832,3.832,0,0,0,.606,2.48s.523,2.97,1.337,3.73a3.459,3.459,0,0,1,.819,2.214,35.727,35.727,0,0,0,1.453,5.072A8.3,8.3,0,0,1,732.645,754.038Z" transform="translate(-709.079 -701.885)"/>
    </g>
    <path id="Path_223" data-name="Path 223" d="M747.6,560.955l-.436,2.132.024.969v.7l-2.422.252-.271-.484h0a20.613,20.613,0,0,0-1.889-3.052c-.451-.378-1.25-6.3-.291-5.944a2.539,2.539,0,0,1,1.357,1.226S748.457,557.253,747.6,560.955Z" transform="translate(-407.534 -309.164)" fill="#ffcdd3"/>
    <path id="Path_224" data-name="Path 224" d="M750.024,573.516l-2.422.252-.271-.484h0a2.141,2.141,0,0,1,2.684-.441Z" transform="translate(-410.355 -317.952)" opacity="0.1"/>
    <path id="Path_225" data-name="Path 225" d="M750.474,574.894l-3.2.746-.068-.484-.184-1.284a2.2,2.2,0,0,1,3.105-.426l.16.654Z" transform="translate(-410.195 -318.176)" fill="#dce6f2"/>
    <path id="Path_226" data-name="Path 226" d="M638.646,556.351l-3.42,1.841-.31-.649c-.329-.683-.814-1.71-.969-2.078-.2-.567-1.633-1.284-1.633-1.284-3.585-3.425.683-6.366.683-6.366,2.262-4.549,4.782,1.541,4.782,1.541s.349,3.212.1,3.425-.247,1.095-.247,1.095a13.311,13.311,0,0,1,.828,1.938C638.593,556.152,638.646,556.351,638.646,556.351Z" transform="translate(-350.321 -304.328)" fill="#ffcdd3"/>
    <path id="Path_227" data-name="Path 227" d="M642.94,566.656l-3.42,1.841-.31-.649c.484-.4,2.195-1.793,2.757-1.73a4.012,4.012,0,0,0,.814,0C642.887,566.457,642.94,566.656,642.94,566.656Z" transform="translate(-354.615 -314.633)" opacity="0.1"/>
    <path id="Path_228" data-name="Path 228" d="M643.4,567.94l-3.847,1.894-.078-.828-.053-.567s2.229-1.914,2.907-1.841a3.573,3.573,0,0,0,1.008,0l.044.693Z" transform="translate(-354.723 -314.88)" fill="#dce6f2"/>
    <path id="Path_229" data-name="Path 229" d="M719.517,582.093s-16.777,1.894-13.643.877a4.209,4.209,0,0,0,3.236-3.638,8.861,8.861,0,0,0-.625-3.876,16.838,16.838,0,0,0-1.5-3.033s12.824-7.054,10.261-.639a10.056,10.056,0,0,0-.727,3.038,8.567,8.567,0,0,0,.324,3.072,9.163,9.163,0,0,0,2.674,4.2Z" transform="translate(-388.782 -316.166)" fill="#ffcdd3"/>
    <path id="Path_230" data-name="Path 230" d="M718.841,571.779a10.055,10.055,0,0,0-.727,3.038c-1.211,1.013-2.534.969-4.234.969-1.308,0-2.757.32-3.8-.31a16.843,16.843,0,0,0-1.5-3.033S721.4,565.365,718.841,571.779Z" transform="translate(-390.378 -316.166)" opacity="0.1"/>
    <circle id="Ellipse_27" data-name="Ellipse 27" cx="6.938" cy="6.938" r="6.938" transform="translate(316.337 246.171)" fill="#ffcdd3"/>
    <path id="Path_231" data-name="Path 231" d="M719.517,590.688s-16.777,1.894-13.643.877a4.209,4.209,0,0,0,3.236-3.638,9.1,9.1,0,0,1,3.59-1.9,5.006,5.006,0,0,1,3.038-.048,4.051,4.051,0,0,1,1.1.484A9.162,9.162,0,0,0,719.517,590.688Z" transform="translate(-388.782 -324.761)" opacity="0.1"/>
    <path id="Path_232" data-name="Path 232" d="M750.67,575.955l-3.2.746-.068-.484a2.83,2.83,0,0,1,3.081-1.056Z" transform="translate(-410.391 -319.237)" opacity="0.1"/>
    <path id="Path_233" data-name="Path 233" d="M643.454,568.679l-3.847,1.894-.078-.828a28.3,28.3,0,0,1,3.876-1.715Z" transform="translate(-354.78 -315.62)" opacity="0.1"/>
    <path id="Path_234" data-name="Path 234" d="M720.8,679.21c-6.5,1.022-15.745,2.359-17.213,1.914-1.216-.373-5.1-.334-8.488-.218.029-1.691.058-2.815.058-2.815l25.192-2.621A20.856,20.856,0,0,0,720.8,679.21Z" transform="translate(-383.428 -371.009)" opacity="0.1"/>
    <path id="Path_235" data-name="Path 235" d="M697.55,622.492s-21.394,3.672-23.69,2.97-14.083.063-14.083.063c-5.3,3.551-3.086-1.691-3.086-1.691a12.643,12.643,0,0,1,.174-4.956,30.366,30.366,0,0,0,.872-4.956s-.116-3.5.523-4.312,1.4-6.647,1.4-6.647.586-3.963.528-4.845.174-3.319.174-3.319l.756-4.084c-4.36-.581-17.664-8.745-17.664-8.745-.639-2.737-5.6-9.152-5.6-9.152a6.745,6.745,0,0,0-.407-1.575c-.349-.93,4.9-2.8,4.9-2.8s3.9,4.782,4.719,6.061a26.679,26.679,0,0,0,3.614,3.672,2.825,2.825,0,0,1,1.284.17h.068a10.339,10.339,0,0,1,2.606,1.5,5.053,5.053,0,0,1,3.556,1.342s2.393-.349,2.8.058,2.422,0,2.422,0,2.044-4.312,3.391-3.062,7.03,1.2,7.03,1.2c.761-1.008,2.6-1.73,3.759-2.1a5,5,0,0,1,3.038-.048,3.757,3.757,0,0,1,1.2.581l3.449,3.391s.969-1.284.877-1.575,1.168-.523,1.168-.523,1.691-.523,2.33-.7,1.231.523,1.279.581a6.826,6.826,0,0,1-.291-2.563,2.906,2.906,0,0,0-.7-2.1c2.059-4.98,6.666-.766,6.666-.766s.523,2.737.058,3.789.484,3.265.349,3.847a26.25,26.25,0,0,0,.233,2.679,15.938,15.938,0,0,1-.93,4.142c-.354.93-3.149,3.028-3.149,3.028a13.145,13.145,0,0,1-1.4,5.247c-1.226,1.923-.484,8.512-.484,8.512s1.163,5.13,2.621,6.783S697.55,622.492,697.55,622.492Z" transform="translate(-353.7 -315.836)" fill="#3f3d56"/>
    <path id="Path_236" data-name="Path 236" d="M694.047,597.065s-.64-1.938-1.226-2.1a13.8,13.8,0,0,1-1.691-.756l.378-.717s2.19.6,2.539,1.24A5.062,5.062,0,0,1,694.047,597.065Z" transform="translate(-381.382 -328.745)" opacity="0.1"/>
    <path id="Path_237" data-name="Path 237" d="M667.36,590.461c-.116.586-5.3,1.109-5.3,1.109l2.621-2.631h0l.068.024h0A10.338,10.338,0,0,1,667.36,590.461Z" transform="translate(-366.395 -326.399)" opacity="0.1"/>
    <circle id="Ellipse_28" data-name="Ellipse 28" cx="0.465" cy="0.465" r="0.465" transform="translate(285.472 255.598)" fill="#575988"/>
    <circle id="Ellipse_29" data-name="Ellipse 29" cx="0.465" cy="0.465" r="0.465" transform="translate(286.068 256.533)" fill="#575988"/>
    <circle id="Ellipse_30" data-name="Ellipse 30" cx="0.465" cy="0.465" r="0.465" transform="translate(286.654 257.391)" fill="#575988"/>
    <circle id="Ellipse_31" data-name="Ellipse 31" cx="0.465" cy="0.465" r="0.465" transform="translate(287.264 258.326)" fill="#575988"/>
    <circle id="Ellipse_32" data-name="Ellipse 32" cx="0.378" cy="0.378" r="0.378" transform="translate(342.3 258.36)" fill="#575988"/>
    <circle id="Ellipse_33" data-name="Ellipse 33" cx="0.378" cy="0.378" r="0.378" transform="translate(342.358 259.222)" fill="#575988"/>
    <circle id="Ellipse_34" data-name="Ellipse 34" cx="0.378" cy="0.378" r="0.378" transform="translate(342.406 260.08)" fill="#575988"/>
    <path id="Path_238" data-name="Path 238" d="M697.21,633.47c-.053-.068,13.081,16.525,23.288,6.938C720.5,640.407,704.375,642.592,697.21,633.47Z" transform="translate(-384.516 -349.356)" opacity="0.1"/>
    <path id="Path_239" data-name="Path 239" d="M681.63,651.28s7.863.213,8.686,2.476v2.354a1.506,1.506,0,0,1-1.453,0c-.795-.426-5.547-2.844-7.223-1.681Z" transform="translate(-376.484 -358.538)" opacity="0.1"/>
    <path id="Path_240" data-name="Path 240" d="M681.93,651.28s7.519.2,8.309,2.359v2.248a1.453,1.453,0,0,1-1.4,0c-.761-.412-5.329-2.713-6.909-1.6Z" transform="translate(-376.639 -358.538)" fill="#3f3d56"/>
    <path id="Path_241" data-name="Path 241" d="M690.49,616a25.328,25.328,0,0,0,3.047,5.227,20.423,20.423,0,0,0,4.777,4.612S690.621,617.1,690.49,616Z" transform="translate(-381.052 -340.35)" opacity="0.1"/>
    <path id="Path_242" data-name="Path 242" d="M685.18,597.18s1.313,5.663,4.69,7.587Z" transform="translate(-378.314 -330.647)" opacity="0.1"/>
    <path id="Path_243" data-name="Path 243" d="M680.875,598.358c-.034-.107-1.168,4.477,4.36,7.015C685.235,605.373,682.9,604.579,680.875,598.358Z" transform="translate(-376.034 -331.254)" opacity="0.1"/>
    <path id="Path_244" data-name="Path 244" d="M751.9,590.516a40.571,40.571,0,0,1,3.488,2.621S753.56,590.4,751.9,590.516Z" transform="translate(-412.709 -327.21)" opacity="0.1"/>
    <path id="Path_245" data-name="Path 245" d="M709.043,565.776a1.476,1.476,0,0,0,.538.94,1.515,1.515,0,0,0,.654.145,14.169,14.169,0,0,0,6.3-.591,2.344,2.344,0,0,0,.969-.635,3.775,3.775,0,0,0,.514-1.526,23.771,23.771,0,0,1,1.284-2.946,9.9,9.9,0,0,0,.683-5.29,3.541,3.541,0,0,0-.528-1.55c-.562-.8-1.584-1.124-2.325-1.763s-1.221-1.613-2.083-2.093a4.049,4.049,0,0,0-2.616-.233,13.822,13.822,0,0,0-4.883,1.836,2.418,2.418,0,0,1-1.633.557,2.243,2.243,0,0,1-1.2-.92,6.453,6.453,0,0,0-.518,3.018.893.893,0,0,1-.325.94,1.763,1.763,0,0,0-.334,2.175c.228.266.572.412.79.683.392.484.257,1.187.247,1.812a.97.97,0,0,0,.155.615.9.9,0,0,0,.858.2,2.344,2.344,0,0,1,.911-.087,1.536,1.536,0,0,1,.795.61A11.079,11.079,0,0,1,709.043,565.776Z" transform="translate(-387.643 -306.385)" fill="#2d293d"/>
    <g id="Group_82" data-name="Group 82" transform="translate(315.584 245.25)" opacity="0.1">
      <path id="Path_246" data-name="Path 246" d="M717.625,571.265a2.292,2.292,0,0,1-.969.63,13.922,13.922,0,0,1-6.269.591,1.425,1.425,0,0,1-.654-.145,1.454,1.454,0,0,1-.543-.935,10.812,10.812,0,0,0-1.768-4.1,1.512,1.512,0,0,0-.795-.61,2.345,2.345,0,0,0-.911.087.9.9,0,0,1-.857-.2.94.94,0,0,1-.15-.615c0-.625.141-1.327-.252-1.812-.218-.271-.562-.417-.79-.683a1.366,1.366,0,0,1-.131-1.4,1.6,1.6,0,0,0-.1,1.86c.228.266.572.412.79.683.392.484.257,1.187.247,1.812a.969.969,0,0,0,.155.615.9.9,0,0,0,.857.2,2.346,2.346,0,0,1,.911-.087,1.536,1.536,0,0,1,.795.61,11,11,0,0,1,1.768,4.1,1.478,1.478,0,0,0,.538.94,1.514,1.514,0,0,0,.654.145,14.17,14.17,0,0,0,6.3-.591,2.377,2.377,0,0,0,.969-.635,1.846,1.846,0,0,0,.3-.562A.349.349,0,0,1,717.625,571.265Z" transform="translate(-703.176 -557.797)"/>
      <path id="Path_247" data-name="Path 247" d="M705.142,556.612a.966.966,0,0,0,.213-.354,1.454,1.454,0,0,0,0-.455,6.4,6.4,0,0,1,.325-2.509l-.039-.044a6.4,6.4,0,0,0-.518,3.018A2.039,2.039,0,0,1,705.142,556.612Z" transform="translate(-704.171 -553.25)"/>
    </g>
    <path id="Path_248" data-name="Path 248" d="M712.62,590.955s8.667,1.148,9.447-.155" transform="translate(-392.46 -327.358)" opacity="0.1"/>
    <path id="Path_249" data-name="Path 249" d="M747.4,583.72s4.811,0,5.872,1.812" transform="translate(-410.391 -323.708)" opacity="0.1"/>
  </g>
</svg>
