<?xml version="1.0" encoding="UTF-8"?>
<svg width="610px" height="410px" viewBox="0 0 610 410" version="1.1" xmlns="http://www.w3.org/2000/svg" xmlns:xlink="http://www.w3.org/1999/xlink">
    <!-- Generator: sketchtool 53.2 (72643) - https://sketchapp.com -->
    <title>B1D47CE1-AB3F-4859-8DF5-177A90535E46</title>
    <desc>Created with sketchtool.</desc>
    <defs>
        <rect id="path-1" x="0" y="0" width="610" height="406"></rect>
        <linearGradient x1="98.0866915%" y1="75.0597705%" x2="-12.6136645%" y2="34.8039697%" id="linearGradient-3">
            <stop stop-color="#ADDBD8" offset="0%"></stop>
            <stop stop-color="#3EB649" offset="100%"></stop>
        </linearGradient>
        <polygon id="path-4" points="93.7277054 0.868145624 90.695652 267.443111 99.7900667 267.443111 121.765036 7.84403292"></polygon>
    </defs>
    <g id="Page-1" stroke="none" stroke-width="1" fill="none" fill-rule="evenodd">
        <g id="Artboard" transform="translate(-935.000000, -2363.000000)">
            <g id="Section-04" transform="translate(375.000000, 2363.000000)">
                <g id="illustration_03-" transform="translate(560.000000, 0.000000)">
                    <g id="illustration_03" transform="translate(0.000000, 2.000000)">
                        <mask id="mask-2" fill="white">
                            <use xlink:href="#path-1"></use>
                        </mask>
                        <g id="Mask"></g>
                        <g id="Group-20" mask="url(#mask-2)">
                            <path d="M376.826003,4.85683921 C349.568466,-5.18283746 318.440965,0.48062651 297.457496,20.5643958 C291.856754,25.9253668 284.253696,29.237334 275.853686,29.237334 C271.186768,29.237334 266.762689,28.2128321 262.788965,26.3802103 C236.094373,14.0552762 204.860906,16.603283 182.042902,35.1480915 C167.819179,46.7112731 155.683868,60.2329314 146.193292,75.231727 C129.556636,101.524331 105.747408,122.548699 77.0129712,134.478405 C74.893652,135.35718 72.8074471,136.280115 70.7543565,137.240585 C53.1088161,145.507256 42.0706949,164.224287 44.514535,183.557343 C44.7264669,185.224367 44.7176364,186.962046 44.4593443,188.73726 C43.3135874,196.626366 37.0527651,203.05379 29.1936228,204.376369 C28.8801402,204.429361 28.5688651,204.47352 28.2620054,204.511056 C12.2876365,206.429789 0.0750592238,220.000023 -1.70530257e-13,236.08956 L-1.70530257e-13,236.526739 C-1.70530257e-13,299.814017 63.2992095,351.11639 141.380671,351.11639 C169.733189,351.11639 196.134167,344.353352 218.2656,332.708476 C242.511937,319.94857 269.537673,313.059678 296.910005,314.267442 C299.985226,314.402129 303.080315,314.470576 306.197481,314.470576 C407.275764,314.470576 489.216152,242.377881 489.216152,153.447145 C489.216152,86.5431991 442.838382,29.1733026 376.826003,4.85683921" id="Fill-1" fill="url(#linearGradient-3)" opacity="0.25" style="mix-blend-mode: multiply;" transform="translate(244.608076, 175.558195) scale(-1, -1) translate(-244.608076, -175.558195) "></path>
                            <g id="Group-26" opacity="0.4" style="mix-blend-mode: multiply;" transform="translate(262.000000, 41.000000)">
                                <path d="M46.4968427,74.7833867 C40.0361653,74.7833867 34.7792767,80.0671349 34.7792767,86.562752 L34.7792767,219.436382 C34.7792767,225.931999 40.0361653,231.216613 46.4968427,231.216613 L222.503157,231.216613 C228.963835,231.216613 234.220723,225.931999 234.220723,219.436382 L234.220723,86.562752 C234.220723,80.0671349 228.963835,74.7833867 222.503157,74.7833867 L46.4968427,74.7833867 Z M222.503157,232 L46.4968427,232 C39.6064868,232 34,226.363944 34,219.436382 L34,86.562752 C34,79.6351902 39.6064868,74 46.4968427,74 L222.503157,74 C229.394374,74 235,79.6351902 235,86.562752 L235,219.436382 C235,226.363944 229.394374,232 222.503157,232 L222.503157,232 Z" id="Fill-1" fill="#14B45C"></path>
                                <polygon id="Fill-45" fill="#14B45C" points="0 92.9995 71 92.9995 71 92.0005 0 92.0005"></polygon>
                                <path d="M248,72.1547216 L248,204.845278 C248,211.558426 242.585482,217 235.905713,217 L60.0942874,217 C53.4145181,217 48,211.558426 48,204.845278 L48,72.1547216 C48,65.441574 53.4145181,60 60.0942874,60 L235.905713,60 C242.585482,60 248,65.441574 248,72.1547216" id="Fill-50" stroke="#AEDCD9" fill="#FFFFFF"></path>
                                <path d="M248,72.6934634 L248,76 L48,76 L48,72.6934634 C48,66.2350724 53.4145181,61 60.0942874,61 L235.905713,61 C242.585482,61 248,66.2350724 248,72.6934634" id="Fill-51" fill="#14B45C"></path>
                                <g id="Group-25" transform="translate(209.000000, 65.000000)" fill="#FFFFFF">
                                    <path d="M6.96481132,3.47094752 C6.96481132,5.38794468 5.40573113,6.94051986 3.48240566,6.94051986 C1.55908019,6.94051986 -1.42108547e-14,5.38794468 -1.42108547e-14,3.47094752 C-1.42108547e-14,1.55395035 1.55908019,4.17443857e-14 3.48240566,4.17443857e-14 C5.40573113,4.17443857e-14 6.96481132,1.55395035 6.96481132,3.47094752" id="Fill-32"></path>
                                    <path d="M18.6629245,3.47094752 C18.6629245,5.38794468 17.1038443,6.94051986 15.1805189,6.94051986 C13.2571934,6.94051986 11.6981132,5.38794468 11.6981132,3.47094752 C11.6981132,1.55395035 13.2571934,4.17443857e-14 15.1805189,4.17443857e-14 C17.1038443,4.17443857e-14 18.6629245,1.55395035 18.6629245,3.47094752" id="Fill-34"></path>
                                    <path d="M30.9459434,3.47094752 C30.9459434,5.38794468 29.3868632,6.94051986 27.4635377,6.94051986 C25.5402123,6.94051986 23.9811321,5.38794468 23.9811321,3.47094752 C23.9811321,1.55395035 25.5402123,4.17443857e-14 27.4635377,4.17443857e-14 C29.3868632,4.17443857e-14 30.9459434,1.55395035 30.9459434,3.47094752" id="Fill-36"></path>
                                </g>
                                <path d="M126.313267,121 L69.6867327,121 C67.0978544,121 65,118.919738 65,116.35448 L65,101.64552 C65,99.0802623 67.0978544,97 69.6867327,97 L126.313267,97 C128.901283,97 131,99.0802623 131,101.64552 L131,116.35448 C131,118.919738 128.901283,121 126.313267,121" id="Fill-52" fill="#AEDCD9"></path>
                                <path d="M71.017484,129.781169 C68.6763326,129.781169 66.771855,131.708628 66.771855,134.078031 L66.771855,148.921969 C66.771855,151.291372 68.6763326,153.218831 71.017484,153.218831 L126.982516,153.218831 C129.323667,153.218831 131.228145,151.291372 131.228145,148.921969 L131.228145,134.078031 C131.228145,131.708628 129.323667,129.781169 126.982516,129.781169 L71.017484,129.781169 Z M126.982516,154 L71.017484,154 C68.2507463,154 66,151.722094 66,148.921969 L66,134.078031 C66,131.277906 68.2507463,129 71.017484,129 L126.982516,129 C129.749254,129 132,131.277906 132,134.078031 L132,148.921969 C132,151.722094 129.749254,154 126.982516,154 L126.982516,154 Z" id="Fill-53" fill="#AEDCD9"></path>
                                <path d="M198.797098,165 L148.202902,165 C147.538499,165 147,164.440566 147,163.750331 L147,162.249669 C147,161.558551 147.538499,161 148.202902,161 L198.797098,161 C199.461501,161 200,161.558551 200,162.249669 L200,163.750331 C200,164.440566 199.461501,165 198.797098,165" id="Fill-54" fill="#AEDCD9"></path>
                                <path d="M198.797098,179 L148.202902,179 C147.538499,179 147,178.441326 147,177.750939 L147,176.250829 C147,175.559558 147.538499,175 148.202902,175 L198.797098,175 C199.461501,175 200,175.559558 200,176.250829 L200,177.750939 C200,178.441326 199.461501,179 198.797098,179" id="Fill-55" fill="#AEDCD9"></path>
                                <path d="M153.016504,97.7789707 C149.575125,97.7789707 146.776754,100.589291 146.776754,104.043445 L146.776754,146.956555 C146.776754,150.410709 149.575125,153.22189 153.016504,153.22189 L222.983496,153.22189 C226.424018,153.22189 229.224104,150.410709 229.224104,146.956555 L229.224104,104.043445 C229.224104,100.589291 226.424018,97.7789707 222.983496,97.7789707 L153.016504,97.7789707 Z M222.983496,154 L153.016504,154 C149.14731,154 146,150.840219 146,146.956555 L146,104.043445 C146,100.159781 149.14731,97 153.016504,97 L222.983496,97 C226.851833,97 230,100.159781 230,104.043445 L230,146.956555 C230,150.840219 226.851833,154 222.983496,154 L222.983496,154 Z" id="Fill-56" fill="#AEDCD9"></path>
                                <path d="M219.922181,166 L215.311558,161.997017 C214.93336,161.669282 214.894113,161.098189 215.223252,160.722493 C215.553283,160.345909 216.126824,160.305941 216.505021,160.634564 L219.765193,163.465162 L224.415063,158.300453 C224.749554,157.929198 225.324878,157.897224 225.698616,158.231176 C226.071462,158.564239 226.102681,159.135333 225.76819,159.507476 L219.922181,166 Z" id="Fill-57" fill="#AEDCD9"></path>
                                <path d="M219.922181,182 L215.311558,177.998128 C214.93336,177.669523 214.894113,177.097573 215.223252,176.721898 C215.553283,176.345335 216.126824,176.306257 216.505021,176.633974 L219.765193,179.465303 L224.415063,174.30088 C224.749554,173.928758 225.324878,173.897674 225.698616,174.230719 C226.071462,174.564652 226.102681,175.135714 225.76819,175.507837 L219.922181,182 Z" id="Fill-58" fill="#AEDCD9"></path>
                                <path d="M198.797098,195 L148.202902,195 C147.538499,195 147,194.440318 147,193.750663 L147,192.249337 C147,191.558798 147.538499,191 148.202902,191 L198.797098,191 C199.461501,191 200,191.558798 200,192.249337 L200,193.750663 C200,194.440318 199.461501,195 198.797098,195" id="Fill-59" fill="#AEDCD9"></path>
                                <path d="M219.922181,197 L215.311558,192.997216 C214.93336,192.669497 214.894113,192.097544 215.223252,191.721867 C215.553283,191.345301 216.126824,191.306224 216.505021,191.633942 L219.765193,194.465288 L224.415063,189.299947 C224.749554,188.92871 225.324878,188.897626 225.698616,189.231561 C226.071462,189.564608 226.102681,190.135673 225.76819,190.507798 L219.922181,197 Z" id="Fill-60" fill="#AEDCD9"></path>
                                <path d="M15.00188,0 C9.47832471,0 5,4.44630481 5,9.93122523 L5,71.0687748 C5,76.5536952 9.47832471,81 15.00188,81 L120.997255,81 C126.521675,81 131,76.5536952 131,71.0687748 L131,9.93122523 C131,4.44630481 126.521675,0 120.997255,0 L15.00188,0 Z" id="Fill-61" fill="#FAFBFD"></path>
                                <g id="Group-30" transform="translate(18.000000, 10.000000)">
                                    <path d="M18.2063492,8.20864461 C12.3696751,8.20864461 7.62148804,12.9574342 7.62148804,18.7939972 C7.62148804,24.6305603 12.3696751,29.378657 18.2063492,29.378657 C24.0430233,29.378657 28.7912104,24.6305603 28.7912104,18.7939972 C28.7912104,12.9574342 24.0430233,8.20864461 18.2063492,8.20864461 M18.2063492,37 C8.16746373,37 0,28.8326917 0,18.7939972 C0,8.75460991 8.16746373,0.587301587 18.2063492,0.587301587 C28.2452347,0.587301587 36.4126984,8.75460991 36.4126984,18.7939972 C36.4126984,28.8326917 28.2452347,37 18.2063492,37" id="Fill-186" fill="#AEDCD9"></path>
                                    <path d="M37,18.7936508 L28.5777044,18.7936508 C28.5777044,13.0751256 23.9250879,8.42198109 18.2063492,8.42198109 L18.2063492,0 C28.5685802,0 37,8.4311049 37,18.7936508" id="Fill-190" fill="#FFFFFF"></path>
                                </g>
                                <path d="M72.7518512,108.932592 C72.7733235,107.256073 73.5798205,105.7728 74.816621,104.82804 C75.7175959,104.139225 76.8470353,103.736413 78.0675169,103.751873 C80.3126534,103.780216 82.2099398,105.215392 82.9339835,107.207976 L82.9357013,107.210552 C83.1074791,107.68465 83.2131225,108.189667 83.2414658,108.716156 L83.240607,108.716156 C83.2474781,108.832104 83.2500547,108.949769 83.248337,109.067435 C83.2414658,109.575887 83.1590125,110.064586 83.0181546,110.528377 C82.8300579,111.145906 82.5354589,111.716197 82.1498176,112.213484 C82.0089597,112.395565 81.8552186,112.566481 81.6920296,112.727949 C80.727497,113.683015 79.3970775,114.267048 77.9326713,114.247294 C77.5453122,114.243 77.1699776,114.193185 76.8075264,114.109016 C76.6409018,114.070366 76.4759951,114.026564 76.3162417,113.972455 C74.219693,113.263026 72.7217901,111.266148 72.7518512,108.932592 M84.9996122,109.090624 C85.00133,108.972959 84.9970355,108.857011 84.9927411,108.741063 C84.9910233,108.700696 84.9927411,108.661188 84.9910233,108.62168 C84.9532322,107.918263 84.8115154,107.24319 84.5813331,106.609342 C83.6159416,103.95199 81.0847949,102.039282 78.0907069,102.000632 C76.476854,101.979161 74.9849633,102.505649 73.7893895,103.407465 C72.1188498,104.667431 71.0289194,106.657439 71.000576,108.910261 C70.9610671,112.021956 72.9579847,114.685319 75.755387,115.631797 L75.755387,115.632655 C76.4321917,115.861115 77.1562354,115.989946 77.9103402,115.999394 C78.7666528,116.010559 79.5886098,115.867128 80.3513035,115.595724 C81.6207418,115.142239 82.7235556,114.33404 83.535206,113.287075 C84.3288197,112.263299 84.845871,111.012781 84.9704099,109.648032 C84.9875877,109.463375 84.9970355,109.277858 84.9996122,109.090624" id="Fill-66" fill="#FFFFFF"></path>
                                <path d="M110.311308,70 L74.6878391,70 C69.8895168,70 66,66.0641865 66,61.2078866 L66,18.7921134 C66,13.936677 69.8895168,10 74.6878391,10 L110.311308,10 C115.10963,10 119,13.936677 119,18.7921134 L119,61.2078866 C119,66.0641865 115.10963,70 110.311308,70" id="Fill-67" fill="#AEDCD9"></path>
                                <g id="Group-45" transform="translate(92.500000, 40.500000) scale(-1, 1) translate(-92.500000, -40.500000) translate(74.000000, 21.000000)" stroke="#FFFFFF" stroke-linecap="round" stroke-linejoin="round" stroke-width="2.6">
                                    <path d="M2.17320877,0 C1.84565045,1.56480359 -0.492377079,4.40318762 1.19053381,4.69441077 C3.57255083,5.10661234 4.86579327,1.51700722 7.18603043,0.867455149 C7.91232846,0.664127492 6.62861767,2.65670459 7.30077678,2.98384384 C8.16496521,3.40444361 9.16253861,2.21142708 10.1327804,2.30163579 C10.5455334,2.34001171 10.4289055,3.0669887 10.755598,3.30505756 C11.094864,3.55228899 11.5619738,3.68453814 11.9916712,3.65625517 C20.2660302,3.11163151 28.1958779,2.21568578 37,1.86286142" id="Path-8"></path>
                                    <path d="M2.53570567,15.7133201 C1.90923716,18.6090795 2.79066042,13.4512489 6.25548212,14.2713926 C7.50325424,14.5667476 5.81153869,17.3851114 7.06028532,17.6771149 C8.7762823,18.078379 10.1162269,15.9516023 11.8397088,15.5771931 C12.2250224,15.4934876 12.0214629,16.5683339 12.4132648,16.5142337 L14.1509224,16.5807406 C19.682036,15.8170011 21.7653669,16.1231608 27.2445481,16.3070716 C28.5467276,16.3507797 29.8328388,16.0329308 31.1269841,15.8958605" id="Path-9"></path>
                                    <path d="M0,23.574332 C8.8866877,24.0622147 9.12582607,21.4993405 16.657,21.9079796 C17.8936989,21.9750825 19.2163239,22.2975037 20.3875756,22.6278418 C20.8312544,22.7529763 21.0222679,21.8411311 21.484552,21.9079796 C21.9945163,21.9817229 21.9051801,22.8523148 22.4161695,22.9211863 C23.7011485,23.0943765 25.0019811,22.4498568 26.2978028,22.5567122 L27.3320129,23.1153647 C28.592267,23.2192872 29.8619937,23.0084108 31.1269841,22.9549339" id="Path-10"></path>
                                    <path d="M0,8.30422617 C8.30140657,11.5318454 10.3410273,7.90272298 17.9309384,8.30422617 C19.1772826,8.37015726 19.7107316,9.80489229 20.8911182,10.1294618 C21.3382574,10.2524112 21.5307606,9.35648908 21.9966502,9.42217026 C22.5105918,9.49462582 22.4205588,10.350015 22.9355336,10.4176838 C24.2305344,10.5878496 25.5415124,9.95458492 26.8474406,10.0595744 L27.8897167,10.6084714 C29.1597997,10.7105791 30.4394294,10.5033852 31.7142857,10.4508421" id="Path-10-Copy" transform="translate(15.857143, 9.454545) scale(-1, 1) translate(-15.857143, -9.454545) "></path>
                                    <path d="M0,30.2679686 C1.47771735,30.3235161 3.20496328,31.1483061 4.43315205,30.434611 C5.48899283,29.8210665 4.05589195,26.8612837 5.26186062,27.2103244 C7.18397436,27.7666372 6.54503627,31.7750191 8.56478457,31.6304197 L9.70629615,32.5 C10.6518301,32.4323066 11.2873867,31.4172239 12.2344215,31.3677 C13.3499562,31.3093647 14.3289958,32.186114 15.4464508,32.1998265 C19.1612982,32.2454123 17.2940041,29.333596 21.0085772,29.2735421 C23.3157429,29.236242 31.2917986,32.5524445 33.4761905,31.908338" id="Path-11"></path>
                                    <path d="M0,37.7850823 C18.1885381,33.7858102 2.94227669,41.8317173 21.7301587,37.8698536" id="Path-12" transform="translate(10.865079, 37.818182) scale(-1, 1) translate(-10.865079, -37.818182) "></path>
                                </g>
                                <path d="M53.0075947,60 L17.9924053,60 C16.892019,60 16,59.1580658 16,58.1194636 L16,57.881349 C16,56.8419342 16.892019,56 17.9924053,56 L53.0075947,56 C54.107981,56 55,56.8419342 55,57.881349 L55,58.1194636 C55,59.1580658 54.107981,60 53.0075947,60" id="Fill-68" fill="#AEDCD9"></path>
                                <path d="M53.0075947,70 L17.9924053,70 C16.892019,70 16,69.1580658 16,68.1194636 L16,67.881349 C16,66.8419342 16.892019,66 17.9924053,66 L53.0075947,66 C54.107981,66 55,66.8419342 55,67.881349 L55,68.1194636 C55,69.1580658 54.107981,70 53.0075947,70" id="Fill-69" fill="#AEDCD9"></path>
                                <path d="M265.31001,151 L194.68999,151 C190.994962,151 188,148.031829 188,144.371772 L188,101.628228 C188,97.9673133 190.994962,95 194.68999,95 L265.31001,95 C269.005038,95 272,97.9673133 272,101.628228 L272,144.371772 C272,148.031829 269.005038,151 265.31001,151" id="Fill-70" fill="#AEDCD9"></path>
                                <path d="M222.495677,125 L199.504323,125 C198.120378,125 197,123.867344 197,122.470169 L197,103.528963 C197,102.131789 198.120378,101 199.504323,101 L222.495677,101 C223.878764,101 225,102.131789 225,103.528963 L225,122.470169 C225,123.867344 223.878764,125 222.495677,125" id="Fill-71" fill="#FFFFFF"></path>
                                <path d="M264.534849,108 L231.466009,108 C230.65623,108 230,107.274489 230,106.379217 L230,102.619835 C230,101.725511 230.65623,101 231.466009,101 L264.534849,101 C265.34377,101 266,101.725511 266,102.619835 L266,106.379217 C266,107.274489 265.34377,108 264.534849,108" id="Fill-72" fill="#FFFFFF"></path>
                                <path d="M264.534849,118 L231.466009,118 C230.65623,118 230,117.274587 230,116.379436 L230,112.620564 C230,111.725413 230.65623,111 231.466009,111 L264.534849,111 C265.34377,111 266,111.725413 266,112.620564 L266,116.379436 C266,117.274587 265.34377,118 264.534849,118" id="Fill-73" fill="#FFFFFF"></path>
                                <path d="M264.703961,143 L252.296039,143 C251.580004,143 251,142.270341 251,141.369554 L251,140.630446 C251,139.730709 251.580004,139 252.296039,139 L264.703961,139 C265.419996,139 266,139.730709 266,140.630446 L266,141.369554 C266,142.270341 265.419996,143 264.703961,143" id="Fill-74" fill="#FFFFFF"></path>
                                <path d="M92.3132673,156 L35.6867327,156 C33.0987173,156 31,153.919812 31,151.354646 L31,136.64621 C31,134.081044 33.0987173,132 35.6867327,132 L92.3132673,132 C94.9021456,132 97,134.081044 97,136.64621 L97,151.354646 C97,153.919812 94.9021456,156 92.3132673,156" id="Fill-93" fill="#14B45C"></path>
                                <polygon id="Fill-118" fill="#AEDCD9" points="61 195 67 195 67 173 61 173"></polygon>
                                <polygon id="Fill-119" fill="#AEDCD9" points="70 195 76 195 76 171 70 171"></polygon>
                                <polygon id="Fill-120" fill="#AEDCD9" points="78 195 84 195 84 175 78 175"></polygon>
                                <polygon id="Fill-121" fill="#AEDCD9" points="87 195 93 195 93 167 87 167"></polygon>
                                <polygon id="Fill-122" fill="#AEDCD9" points="96 195 102 195 102 169 96 169"></polygon>
                                <polygon id="Fill-123" fill="#AEDCD9" points="105 195 111 195 111 173 105 173"></polygon>
                                <polygon id="Fill-124" fill="#AEDCD9" points="113 195 119 195 119 171 113 171"></polygon>
                                <polygon id="Fill-125" fill="#AEDCD9" points="122 195 128 195 128 175 122 175"></polygon>
                                <path d="M39.7518512,143.932227 C39.7733235,142.255796 40.5798205,140.772601 41.816621,139.82875 C42.7175959,139.139112 43.8470353,138.736322 45.0675169,138.751781 C47.3126534,138.780122 49.2099398,140.215223 49.9339835,142.207702 L49.9357013,142.210278 C50.1074791,142.684351 50.2131225,143.1902 50.2414658,143.714944 L50.240607,143.714944 C50.2474781,143.831744 50.2500547,143.949403 50.248337,144.067063 C50.2414658,144.576347 50.1590125,145.06502 50.0181546,145.529645 C49.829199,146.146283 49.5354589,146.715686 49.1498176,147.212088 C49.0089597,147.395018 48.8552186,147.565925 48.6920296,147.727384 C47.727497,148.681541 46.3970775,149.265544 44.9326713,149.24665 C44.5453122,149.242356 44.1682598,149.192544 43.8058086,149.10752 C43.6391841,149.068872 43.4759951,149.025931 43.3162417,148.971825 C41.219693,148.262434 39.7217901,146.266519 39.7518512,143.932227 M51.9927411,143.722673 C51.9910233,143.689179 51.9918822,143.654826 51.9910233,143.621331 C51.9532322,142.917952 51.8115154,142.242914 51.5813331,141.609099 C50.6159416,138.951888 48.0847949,137.03928 45.0907069,137.000632 C43.476854,136.979162 41.9849633,137.505623 40.7893895,138.407391 C39.1188498,139.667291 38.0289194,141.657193 38.000576,143.909897 C37.9610671,147.021428 39.9579847,149.684652 42.755387,150.631938 C43.4321917,150.860386 44.1562354,150.98921 44.9103402,150.999516 C45.795855,151.009822 46.6444376,150.855233 47.4286035,150.564949 C48.665404,150.106336 49.7398745,149.311921 50.535206,148.285622 C51.3236663,147.270488 51.838141,146.030342 51.9678333,144.67683 C51.9867288,144.483594 51.9970355,144.286922 51.9996122,144.090251 C52.00133,143.96658 51.9970355,143.843768 51.9927411,143.722673" id="Fill-126" fill="#FFFFFF"></path>
                            </g>
                            <path d="M134,174.999462 C134,177.76031 131.761387,180 128.999462,180 C126.238613,180 124,177.76031 124,174.999462 C124,172.238613 126.238613,170 128.999462,170 C131.761387,170 134,172.238613 134,174.999462" id="Fill-32" fill="#FFEDE6" transform="translate(129.000000, 175.000000) scale(-1, 1) translate(-129.000000, -175.000000) "></path>
                            <path d="M147,174.999462 C147,177.76031 144.761387,180 141.999462,180 C139.238613,180 137,177.76031 137,174.999462 C137,172.238613 139.238613,170 141.999462,170 C144.761387,170 147,172.238613 147,174.999462" id="Fill-33" fill="#FFEDE6" transform="translate(142.000000, 175.000000) scale(-1, 1) translate(-142.000000, -175.000000) "></path>
                            <polygon id="Fill-34" fill="#F7E0D7" transform="translate(141.500000, 176.000000) scale(-1, 1) translate(-141.500000, -176.000000) " points="138 177 145 177 145 175 138 175"></polygon>
                            <polygon id="Fill-35" fill="#F7E0D7" transform="translate(129.000000, 175.000000) scale(-1, 1) translate(-129.000000, -175.000000) " points="130.716864 178 126 173.283385 127.283136 172 132 176.716615"></polygon>
                            <polygon id="Fill-36" fill="#F7E0D7" transform="translate(129.000000, 175.000000) scale(-1, 1) translate(-129.000000, -175.000000) " points="132 173.283385 127.28222 178 126 176.71778 130.716615 172"></polygon>
                            <path d="M321.811271,247.846233 L308.900643,233.751928 C307.596105,232.32893 307.724068,230.145895 309.184879,228.877331 C310.64569,227.60656 312.885601,227.73121 314.190139,229.154209 L327.100767,243.247411 C328.403041,244.670409 328.276211,246.854547 326.815399,248.123111 C325.354588,249.392779 323.113545,249.269232 321.811271,247.846233" id="Fill-44" fill="#A6B1CF" transform="translate(318.000000, 238.500000) scale(-1, 1) translate(-318.000000, -238.500000) "></path>
                            <path d="M323.744835,246.108391 L310.629634,231.768934 C309.656433,230.7038 309.475827,229.223388 310.033749,228 C309.741559,228.138052 309.458572,228.303041 309.203193,228.525271 C307.719234,229.816002 307.590395,232.037181 308.914454,233.485044 L322.030806,247.825624 C323.353715,249.273487 325.631418,249.400315 327.114226,248.10734 C327.507648,247.766138 327.797537,247.355349 328,246.915378 C326.588514,247.584313 324.842274,247.307087 323.744835,246.108391" id="Fill-45" fill="#C4CFED" transform="translate(318.000000, 238.500000) scale(-1, 1) translate(-318.000000, -238.500000) "></path>
                            <path d="M325.093431,227.018545 L333.669867,227.849125 C335.709053,228.045666 337.191019,229.753461 336.979987,231.663349 L336.735759,233.881929 C336.659882,234.565935 336.006632,235.063395 335.276319,234.993439 L324.329921,233.934118 C322.291921,233.736466 320.809955,232.028671 321.019801,230.119893 C321.230833,228.210005 323.054245,226.822005 325.093431,227.018545" id="Fill-46" fill="#A6B1CF" transform="translate(329.000000, 231.000000) scale(-1, 1) translate(-329.000000, -231.000000) "></path>
                            <path d="M337.978763,231.05348 L336.955821,240.749008 C336.744101,242.75345 335.020255,244.200196 333.10586,243.97735 C331.190351,243.756838 329.809714,241.951907 330.021434,239.946297 L331.044376,230.251936 C331.25721,228.247494 332.981057,226.800749 334.894337,227.022427 C336.809846,227.244106 338.189369,229.049038 337.978763,231.05348" id="Fill-47" fill="#A6B1CF" transform="translate(334.000000, 235.500000) scale(-1, 1) translate(-334.000000, -235.500000) "></path>
                            <path d="M321.811271,236.846072 L308.900643,222.752984 C307.596105,221.329997 307.724068,219.145878 309.184879,217.877323 C310.64569,216.606563 312.885601,216.731212 314.190139,218.154199 L327.100767,232.24839 C328.403041,233.671377 328.276211,235.854393 326.815399,237.124051 C325.354588,238.392605 323.113545,238.269059 321.811271,236.846072" id="Fill-48" fill="#A6B1CF" transform="translate(318.000000, 227.500000) scale(-1, 1) translate(-318.000000, -227.500000) "></path>
                            <path d="M323.082412,234.069806 L310.164114,219.409693 C309.555648,218.718914 309.272376,217.857162 309.275776,217 C309.247449,217.025244 309.214589,217.041309 309.185129,217.067701 C307.72345,218.387295 307.596544,220.658143 308.900725,222.139531 L321.820156,236.799644 C323.123204,238.279884 325.366711,238.408401 326.827257,237.088807 C327.607953,236.383112 327.995468,235.406612 328,234.425523 C326.537188,235.664794 324.361665,235.521359 323.082412,234.069806" id="Fill-49" fill="#C4CFED" transform="translate(318.000000, 227.500000) scale(-1, 1) translate(-318.000000, -227.500000) "></path>
                            <path d="M325.093274,216.019268 L333.669823,216.871937 C335.709036,217.075116 337.191022,218.830678 336.979987,220.793986 C336.771323,222.756151 334.947888,224.182974 332.908675,223.980936 L324.33094,223.128267 C322.292913,222.925087 320.810927,221.169525 321.019591,219.206218 C321.230625,217.242911 323.054061,215.816089 325.093274,216.019268" id="Fill-50" fill="#A6B1CF" transform="translate(329.000000, 220.000000) scale(-1, 1) translate(-329.000000, -220.000000) "></path>
                            <path d="M334.509943,239.906765 L335.598215,230.210103 C335.758255,228.793527 336.727979,227.668668 338,227.201921 C337.747492,227.11674 337.484316,227.052562 337.206913,227.022224 C335.171442,226.801686 333.337502,228.247434 333.111075,230.25211 L332.022803,239.947605 C331.797562,241.953449 333.266373,243.758591 335.304215,243.979129 C335.899327,244.044474 336.470729,243.952291 336.998268,243.759758 C335.388385,243.218332 334.315524,241.639562 334.509943,239.906765" id="Fill-51" fill="#C4CFED" transform="translate(335.000000, 235.500000) scale(-1, 1) translate(-335.000000, -235.500000) "></path>
                            <path d="M337.978763,220.053928 L336.955821,229.749994 C336.744101,231.753381 335.020255,233.200206 333.10586,232.977348 C331.190351,232.756824 329.809714,230.951792 330.021434,228.946072 L331.044376,219.251173 C331.25721,217.246619 332.981057,215.799793 334.894337,216.022651 C336.809846,216.243175 338.189369,218.048207 337.978763,220.053928" id="Fill-52" fill="#A6B1CF" transform="translate(334.000000, 224.500000) scale(-1, 1) translate(-334.000000, -224.500000) "></path>
                            <path d="M334.509943,228.907607 L335.598215,219.210479 C335.758255,217.792668 336.727979,216.667755 338,216.200986 C337.747492,216.1158 337.484316,216.05162 337.206913,216.022446 C335.171442,215.800731 333.337502,217.246548 333.111075,219.251322 L332.022803,228.947282 C331.797562,230.953222 333.266373,232.758451 335.304215,232.979 C335.899327,233.044347 336.470729,232.953327 336.998268,232.759618 C335.388385,232.219333 334.315524,230.63932 334.509943,228.907607" id="Fill-53" fill="#C4CFED" transform="translate(335.000000, 224.500000) scale(-1, 1) translate(-335.000000, -224.500000) "></path>
                            <path d="M311.180055,225.363289 L300.554296,209.281276 C299.480297,207.658047 300.014941,205.525418 301.743703,204.519878 C303.474819,203.513233 305.747646,204.012688 306.820467,205.635917 L317.446226,221.717929 C318.519048,223.341158 317.985581,225.473788 316.25682,226.480433 C314.525703,227.487078 312.252876,226.986518 311.180055,225.363289" id="Fill-54" fill="#A6B1CF" transform="translate(309.000000, 215.500000) scale(-1, 1) translate(-309.000000, -215.500000) "></path>
                            <path d="M317.810958,230.846233 L304.900623,216.751928 C303.596114,215.32893 303.724074,213.145895 305.184852,211.877331 C306.64563,210.60656 308.88549,210.73121 310.189999,212.154209 L323.100334,226.247411 C324.40371,227.670409 324.275751,229.854547 322.814972,231.123111 C321.355327,232.392779 319.113202,232.269232 317.810958,230.846233" id="Fill-55" fill="#A6B1CF" transform="translate(314.000000, 221.500000) scale(-1, 1) translate(-314.000000, -221.500000) "></path>
                            <path d="M322.028369,229.896041 L309.088475,215.794465 C307.828538,214.421501 307.913668,212.352122 309.23263,211.065244 C308.180412,210.866584 307.049874,211.11822 306.187214,211.866507 C304.722963,213.135727 304.595834,215.319887 305.90231,216.74362 L318.843339,230.845196 C320.149814,232.268929 322.396134,232.393643 323.85925,231.122217 C323.912599,231.076966 323.951192,231.021783 324,230.974325 C323.265604,230.834159 322.566396,230.480985 322.028369,229.896041" id="Fill-56" fill="#C4CFED" transform="translate(314.500000, 221.500000) scale(-1, 1) translate(-314.500000, -221.500000) "></path>
                            <path d="M315.789565,199.220199 L325.64259,202.881035 C327.497236,203.57125 328.457087,205.673536 327.785991,207.578951 C327.113753,209.484367 325.065081,210.469887 323.210435,209.779671 L313.35741,206.118836 C311.502764,205.429792 310.542913,203.326335 311.214009,201.42092 C311.885106,199.516676 313.933777,198.529984 315.789565,199.220199" id="Fill-57" fill="#A6B1CF" transform="translate(319.500000, 204.500000) scale(-1, 1) translate(-319.500000, -204.500000) "></path>
                            <path d="M321.093431,210.018451 L329.669867,210.835529 C331.709053,211.030228 333.191019,212.712511 332.979987,214.593868 L332.599418,218 L320.329921,216.830715 C318.291921,216.636016 316.809955,214.953733 317.019801,213.072375 C317.230833,211.192112 319.054245,209.823753 321.093431,210.018451" id="Fill-58" fill="#A6B1CF" transform="translate(325.000000, 214.000000) scale(-1, 1) translate(-325.000000, -214.000000) "></path>
                            <path d="M333.978566,214.05348 L332.95565,223.749008 C332.743935,225.75345 331.020131,227.200196 329.105784,226.97735 C327.190322,226.756838 325.809719,224.951907 326.021434,222.946297 L327.04435,213.251936 C327.257179,211.247494 328.980983,209.800749 330.894216,210.022427 C332.809678,210.244106 334.190281,212.049038 333.978566,214.05348" id="Fill-59" fill="#A6B1CF" transform="translate(330.000000, 218.500000) scale(-1, 1) translate(-330.000000, -218.500000) "></path>
                            <path d="M333.994945,225.674409 C331.823887,225.453887 330.258148,223.648872 330.498253,221.643171 L331.658341,211.947195 C331.748065,211.210955 332.070311,210.552888 332.546731,210.022002 C330.3782,209.802646 328.425765,211.248292 328.184396,213.25166 L327.024308,222.946468 C326.784203,224.95217 328.349942,226.757185 330.522264,226.977707 C331.895919,227.117721 333.178587,226.588001 334,225.675576 C333.998736,225.674409 333.997473,225.675576 333.994945,225.674409" id="Fill-60" fill="#C4CFED" transform="translate(330.500000, 218.500000) scale(-1, 1) translate(-330.500000, -218.500000) "></path>
                            <path d="M325.234639,198.043038 L333.863437,199.392041 C335.875253,199.706075 337.261982,201.655041 336.958268,203.743306 C336.654553,205.832793 334.778113,207.270996 332.765119,206.956962 L324.136322,205.606738 C322.123328,205.293925 320.738953,203.344959 321.041491,201.256694 C321.344029,199.167207 323.221646,197.729004 325.234639,198.043038" id="Fill-61" fill="#A6B1CF" transform="translate(329.000000, 202.500000) scale(-1, 1) translate(-329.000000, -202.500000) "></path>
                            <path d="M333.658113,222.977688 L324.0204,207.004407 L315.832501,203.958514 L307.811972,202.716919 C305.917682,202.424176 304.611964,200.607348 304.897936,198.659526 C304.931189,198.430571 304.988826,198.211868 305.061982,198 C303.548989,198.184531 302.276522,199.371449 302.03932,200.995773 C301.753348,202.942457 303.057958,204.759285 304.953357,205.052028 L312.973885,206.293622 L321.161785,209.338376 L330.798389,225.312797 C331.80816,226.986102 333.947411,227.502104 335.57568,226.464404 C336.269551,226.021303 336.745063,225.364056 337,224.63049 C335.708691,224.780848 334.388562,224.187389 333.658113,222.977688" id="Fill-62" fill="#C4CFED" transform="translate(319.500000, 212.500000) scale(-1, 1) translate(-319.500000, -212.500000) "></path>
                            <polygon id="Fill-63" fill="#A6B1CF" transform="translate(208.500000, 293.500000) scale(-1, 1) translate(-208.500000, -293.500000) " points="208.099581 331 177 314.246704 208.900419 256 240 272.753296"></polygon>
                            <path d="M240,328 C239.74729,327.669551 239.488964,327.34366 239.210421,327.031443 L233.318342,320.436136 C230.753052,317.564648 230.199336,313.385037 231.927874,309.927857 C233.847348,306.084393 233.037552,301.415946 229.939887,298.466973 L227.346518,296 L217,315.32671 L240,328 Z" id="Fill-66" fill="#FFFFFF" transform="translate(228.500000, 312.000000) scale(-1, 1) translate(-228.500000, -312.000000) "></path>
                            <path d="M239.859516,247 L296.430259,299.759888 C299.568653,302.688541 300.389096,307.324821 298.443246,311.141802 C296.693119,314.575161 297.254116,318.725972 299.853134,321.577674 L305.822682,328.127537 C308.433079,330.99395 309.915794,334.6989 310,338.565673 L287.528281,351 L218,257.318183 L239.859516,247 Z" id="Fill-67" fill="#A6B1CF" transform="translate(264.000000, 299.000000) scale(-1, 1) translate(-264.000000, -299.000000) "></path>
                            <path d="M260.434674,313 L237.565326,313 C235.595854,313 234,311.433387 234,309.5 C234,307.567732 235.595854,306 237.565326,306 L260.434674,306 C262.404146,306 264,307.567732 264,309.5 C264,311.433387 262.404146,313 260.434674,313" id="Fill-69" fill="#5C5C8D" transform="translate(249.000000, 309.500000) scale(-1, 1) translate(-249.000000, -309.500000) "></path>
                            <path d="M275.944672,313.152318 L263.152916,325.944626 C261.745812,327.351791 259.463585,327.351791 258.055328,325.944626 C256.648224,324.537461 256.648224,322.253984 258.055328,320.84797 L270.845932,308.05451 C272.254188,306.648497 274.536415,306.648497 275.944672,308.05451 C277.351776,309.462827 277.351776,311.745153 275.944672,313.152318" id="Fill-70" fill="#5C5C8D" transform="translate(267.000000, 317.000000) scale(-1, 1) translate(-267.000000, -317.000000) "></path>
                            <path d="M262.121863,325.951367 C260.757224,324.542571 260.757224,322.259468 262.121863,320.851823 L274.527569,308.055158 C274.689494,307.888129 274.868171,307.73838 275.060247,307.605909 C275.147352,307.546009 275.242274,307.50454 275.333845,307.452704 C275.442168,307.392804 275.546023,307.324841 275.662163,307.275309 C275.778302,307.225776 275.900025,307.196978 276.020632,307.161269 C276.118903,307.130167 276.212708,307.091002 276.31433,307.070267 C276.541026,307.02419 276.769954,307 277,307 L272.901616,307 C272.671571,307 272.442642,307.02419 272.215947,307.070267 C272.114325,307.091002 272.02052,307.130167 271.922248,307.161269 C271.801642,307.196978 271.681035,307.225776 271.563779,307.275309 C271.448756,307.324841 271.343784,307.392804 271.235462,307.452704 C271.14389,307.50454 271.048968,307.546009 270.961864,307.605909 C270.770904,307.73838 270.591111,307.888129 270.428069,308.055158 L258.023479,320.851823 C256.65884,322.259468 256.65884,324.542571 258.023479,325.951367 C259.258578,327.223086 261.177113,327.33367 262.545102,326.30731 C262.398811,326.197878 262.253636,326.086142 262.121863,325.951367" id="Fill-71" fill="#A6B1CF" transform="translate(267.000000, 317.000000) scale(-1, 1) translate(-267.000000, -317.000000) "></path>
                            <path d="M253.494961,316 L238.506159,316 C236.571109,316 235,314.433387 235,312.5 C235,310.567732 236.571109,309 238.506159,309 L253.494961,309 C255.431131,309 257,310.567732 257,312.5 C257,314.433387 255.431131,316 253.494961,316" id="Fill-72" fill="#5C5C8D" transform="translate(246.000000, 312.500000) scale(-1, 1) translate(-246.000000, -312.500000) "></path>
                            <path d="M252.493841,322 L237.506159,322 C235.569989,322 234,320.433637 234,318.499441 C234,316.567481 235.569989,315 237.506159,315 L252.493841,315 C254.430011,315 256,316.567481 256,318.499441 C256,320.433637 254.430011,322 252.493841,322" id="Fill-73" fill="#5C5C8D" transform="translate(245.000000, 318.500000) scale(-1, 1) translate(-245.000000, -318.500000) "></path>
                            <path d="M267.944656,314.153005 L255.153868,326.943793 C253.745592,328.352069 251.463332,328.352069 250.056207,326.943793 C248.647931,325.536668 248.647931,323.253257 250.056207,321.847283 L262.846995,309.055344 C264.25412,307.648219 266.53638,307.648219 267.944656,309.055344 C269.351781,310.462469 269.351781,312.744728 267.944656,314.153005" id="Fill-74" fill="#5C5C8D" transform="translate(259.000000, 318.000000) scale(-1, 1) translate(-259.000000, -318.000000) "></path>
                            <path d="M253.766092,326.95054 C252.369356,325.541805 252.369356,323.258801 253.766092,321.851218 L266.452069,309.056263 C267.153293,308.349016 268.071507,307.997696 268.989721,308.001152 C268.993148,308.001152 268.996574,308 269,308 L265.28146,308 C265.278034,308 265.274608,308.001152 265.271182,308.001152 C264.354109,307.997696 263.434753,308.349016 262.734671,309.056263 L250.047552,321.851218 C248.650816,323.258801 248.650816,325.541805 250.047552,326.95054 C251.238719,328.151939 253.058017,328.317808 254.434196,327.468881 C254.19779,327.323745 253.970521,327.156724 253.766092,326.95054" id="Fill-75" fill="#A6B1CF" transform="translate(259.000000, 318.000000) scale(-1, 1) translate(-259.000000, -318.000000) "></path>
                            <polygon id="Fill-76" fill="#FFFFFF" transform="translate(117.000000, 299.000000) scale(-1, 1) translate(-117.000000, -299.000000) " points="164.33479 333 55 333 55 265 179 265 164.33479 309.567406"></polygon>
                            <path d="M209,251.5 C209,265.583137 197.583391,277 183.500566,277 C169.416609,277 158,265.583137 158,251.5 C158,237.416863 169.416609,226 183.500566,226 C197.583391,226 209,237.416863 209,251.5" id="Fill-78" fill="#C4CFED" transform="translate(183.500000, 251.500000) scale(-1, 1) translate(-183.500000, -251.500000) "></path>
                            <path d="M158.311852,306.428211 L153.348384,307.484592 C126.183456,313.262555 97.9692203,311.89952 71.5000424,303.531902 L71.4989056,303.531902 C63.4579961,300.989598 58,293.581404 58,285.212659 L58,249.207775 C58,231.420668 72.5402562,217 90.4762705,217 L162.303317,217 C178.703453,217 192,230.18503 192,246.450137 L192,265.096328 C192,285.026636 177.96223,302.248912 158.311852,306.428211" id="Fill-83" fill="#FFFFFF" transform="translate(125.000000, 264.000000) scale(-1, 1) translate(-125.000000, -264.000000) "></path>
                            <polygon id="Fill-86" fill="#3EB649" transform="translate(110.500000, 272.000000) scale(-1, 1) translate(-110.500000, -272.000000) " points="99 274 122 274 122 270 99 270"></polygon>
                            <polygon id="Fill-87" fill="#3EB649" transform="translate(110.500000, 281.000000) scale(-1, 1) translate(-110.500000, -281.000000) " points="99 285 122 285 122 277 99 277"></polygon>
                            <path d="M140.901511,226 L114.098489,226 C109.074185,226 105,221.166369 105,215.20387 L105,185 L150,185 L150,215.20387 C150,221.166369 145.925815,226 140.901511,226" id="Fill-90" fill="#C4CFED" transform="translate(127.500000, 205.500000) scale(-1, 1) translate(-127.500000, -205.500000) "></path>
                            <path d="M180,156.500553 C180,166.164988 173.284847,174 164.999427,174 C156.715153,174 150,166.164988 150,156.500553 C150,146.835012 156.715153,139 164.999427,139 C173.284847,139 180,146.835012 180,156.500553" id="Fill-95" fill="#7ECCC7" transform="translate(165.000000, 156.500000) scale(-1, 1) translate(-165.000000, -156.500000) "></path>
                            <path d="M86.0577501,134.938656 C86.0577501,110.120064 106.203893,90 131.058317,90 C155.910475,90 176.05775,110.120064 176.05775,134.938656 L176.05775,153.663757 C176.05775,180.911374 139.342218,203 112.05775,203 C93.8681047,203 85.201438,180.312885 86.0577501,134.938656 Z" id="Fill-97" fill="#FFFFFF" transform="translate(131.028875, 146.500000) scale(-1, 1) translate(-131.028875, -146.500000) "></path>
                            <path d="M158,172 L133,172 L133,173.968666 C133,180.613317 138.596765,186 145.500559,186 C152.403235,186 158,180.613317 158,173.968666 L158,172 Z" id="Fill-98" fill="#323746" transform="translate(145.500000, 179.000000) scale(-1, 1) translate(-145.500000, -179.000000) "></path>
                            <path d="M158,195 L133,195 L133,202.519792 C135.625229,203.473411 138.433665,204 141.359399,204 L155.34796,204 C156.238304,204 157.121945,203.971212 158,203.920832 L158,195 Z" id="Fill-100" fill="#3EB649" transform="translate(145.500000, 199.500000) scale(-1, 1) translate(-145.500000, -199.500000) "></path>
                            <path d="M144.885648,90 L144.885648,90 C140.472039,90 136.211479,90.6496594 132.18499,91.8388283 C123.267746,99.6212534 118,110.937466 118,123 L142.618075,123 C142.618075,110.849796 147.964595,99.4594005 157,91.6724796 C153.145689,90.5912125 149.08544,90 144.885648,90" id="Fill-103" fill="#3EB649" transform="translate(137.500000, 106.500000) scale(-1, 1) translate(-137.500000, -106.500000) "></path>
                            <path d="M109,156.500553 C109,148.435619 104.317833,141.663993 97.9554461,139.636705 L97.9554461,139 L93.9994273,139 C85.7151529,139 79,146.835012 79,156.500553 C79,166.164988 85.7151529,174 93.9994273,174 L97.9554461,174 L97.9554461,173.3644 C104.317833,171.337113 109,164.564381 109,156.500553" id="Fill-106" fill="#7ECCC7" transform="translate(94.000000, 156.500000) scale(-1, 1) translate(-94.000000, -156.500000) "></path>
                            <path d="M105,156.500553 C105,166.164988 98.2848471,174 89.9994273,174 C81.7151529,174 75,166.164988 75,156.500553 C75,146.835012 81.7151529,139 89.9994273,139 C98.2848471,139 105,146.835012 105,156.500553" id="Fill-107" fill="#AEDCD9" transform="translate(90.000000, 156.500000) scale(-1, 1) translate(-90.000000, -156.500000) "></path>
                            <path d="M96,156.500551 C96,162.852029 91.523633,168 86,168 C80.478684,168 76,162.852029 76,156.500551 C76,150.149073 80.478684,145 86,145 C91.523633,145 96,150.149073 96,156.500551" id="Fill-110" fill="#FFFFFF" transform="translate(86.000000, 156.500000) scale(-1, 1) translate(-86.000000, -156.500000) "></path>
                            <path d="M134.530015,185 L127.471057,185 C125.554364,185 124,183.209047 124,181.000618 C124,178.792188 125.554364,177 127.471057,177 L134.530015,177 C136.446708,177 138,178.792188 138,181.000618 C138,183.209047 136.446708,185 134.530015,185" id="Fill-112" fill="#3EB649" transform="translate(131.000000, 181.000000) scale(-1, 1) translate(-131.000000, -181.000000) "></path>
                            <path d="M126,185 L126,185 C123.791229,185 122,183.209047 122,181.000618 C122,178.792188 123.791229,177 126,177 C128.210006,177 130,178.792188 130,181.000618 C130,183.209047 128.210006,185 126,185" id="Fill-113" fill="#27742E" transform="translate(126.000000, 181.000000) scale(-1, 1) translate(-126.000000, -181.000000) "></path>
                            <path d="M104.800431,183 L95.4505868,183 C94.6496836,183 94,182.340481 94,181.52491 C94,180.710478 94.6496836,180.04982 95.4505868,180.04982 L104.800431,180.04982 C106.314866,180.04982 107.796816,179.425612 108.866554,178.337804 L123.522521,163.43313 C124.091554,162.855623 125.007832,162.855623 125.575745,163.43313 C126.141418,164.008358 126.141418,164.942392 125.575745,165.518759 L110.919778,180.423433 C109.307891,182.06141 107.077684,183 104.800431,183" id="Fill-114" fill="#AEDCD9" transform="translate(110.000000, 173.000000) scale(-1, 1) translate(-110.000000, -173.000000) "></path>
                            <polygon id="Fill-116" fill="#5C5C8D" transform="translate(88.000000, 295.000000) scale(-1, 1) translate(-88.000000, -295.000000) " points="87.9691129 332 57 315.16731 88.0308871 258 119 274.83269"></polygon>
                            <path d="M92,251.5 C92,265.583137 80.5833907,277 66.5005661,277 C52.4166093,277 41,265.583137 41,251.5 C41,237.416863 52.4166093,226 66.5005661,226 C80.5833907,226 92,237.416863 92,251.5" id="Fill-121" fill="#5C5C8D" transform="translate(66.500000, 251.500000) scale(-1, 1) translate(-66.500000, -251.500000) "></path>
                            <path d="M100.61671,315.944164 C96.6912013,315.944164 93.1708248,313.503684 91.7684454,309.809228 C90.710024,307.020938 88.498535,304.941062 85.8276658,304 L80,314.813494 L109.571162,331 L112.490189,331 L119,318.923226 C116.262186,316.996898 112.998047,315.944164 109.632336,315.944164 L100.61671,315.944164 Z" id="Fill-123" fill="#FFFFFF" transform="translate(99.500000, 317.500000) scale(-1, 1) translate(-99.500000, -317.500000) "></path>
                            <path d="M70,312.330937 L146.852999,306.032424 C151.116954,305.681367 155.099209,308.209434 156.627626,312.235194 C158.002182,315.856327 161.452716,318.247619 165.300344,318.247619 L174.137104,318.247619 C178.002833,318.247619 181.739591,319.654127 184.658403,322.206131 L197,333 L70,333 L70,312.330937 Z" id="Fill-124" fill="#5C5C8D" transform="translate(133.500000, 319.500000) scale(-1, 1) translate(-133.500000, -319.500000) "></path>
                            <polygon id="Fill-126" fill="#5C5C8D" transform="translate(217.500000, 319.500000) scale(-1, 1) translate(-217.500000, -319.500000) " points="238 312.33142 197 306 197.041312 322.009203 217.520656 333 238 333"></polygon>
                            <path d="M257.850299,319.752517 L254.818167,330.378369 C254.261812,332.327365 252.317909,333.429637 250.477488,332.841994 C248.635955,332.253174 247.593346,330.195835 248.149701,328.24684 L251.181833,317.620987 C251.738188,315.671991 253.680978,314.569719 255.522512,315.15854 C257.364045,315.746183 258.406654,317.803521 257.850299,319.752517" id="Fill-127" fill="#5C5C8D" transform="translate(253.000000, 324.000000) scale(-1, 1) translate(-253.000000, -324.000000) "></path>
                            <path d="M252.306197,328.249781 L255.33818,318.26268 C255.534708,316.566558 256.877257,315.233217 258.585633,315.041225 C258.656667,315.031802 258.728886,315.024735 258.79992,315.020024 C258.868586,315.01649 258.932517,315 259,315 L255.853179,315 C255.784512,315 255.720581,315.01649 255.653099,315.020024 C255.58088,315.024735 255.509846,315.031802 255.438812,315.041225 C253.730436,315.233217 252.386703,316.566558 252.188991,318.26268 L249.159376,328.249781 C248.567423,330.199144 249.675559,332.256871 251.636107,332.845802 C252.548898,333.120244 253.480632,333.014237 254.282136,332.639676 C252.644794,331.872887 251.76752,330.023642 252.306197,328.249781" id="Fill-128" fill="#A6B1CF" transform="translate(254.000000, 324.000000) scale(-1, 1) translate(-254.000000, -324.000000) "></path>
                            <polygon id="Fill-130" fill="#A6B1CF" transform="translate(304.887695, 240.000000) scale(-1, 1) translate(-304.887695, -240.000000) " points="323 249 317.180696 228.936358 308.096218 222 286.775391 238.568093 300.775391 258"></polygon>
                            <path d="M293.859003,231.007918 L292.039108,219.017666 C291.748979,217.103613 293.104441,215.321641 295.065387,215.038451 C297.026333,214.754141 298.851963,216.077188 299.140944,217.991241 L300.96084,229.981493 C301.250968,231.895546 299.897801,233.677518 297.935708,233.961827 C295.974761,234.245018 294.149132,232.921971 293.859003,231.007918" id="Fill-131" fill="#A6B1CF" transform="translate(296.500000, 224.500000) scale(-1, 1) translate(-296.500000, -224.500000) "></path>
                            <path d="M299.140496,212.055597 L311.108277,214.171142 C313.018495,214.507606 314.287482,216.297682 313.943845,218.169125 C313.599085,220.039469 311.769722,221.283066 309.859504,220.944403 L297.891723,218.829958 C295.981505,218.492394 294.712518,216.702318 295.056155,214.830875 C295.402038,212.960531 297.230278,211.716934 299.140496,212.055597" id="Fill-132" fill="#A6B1CF" transform="translate(304.500000, 216.500000) scale(-1, 1) translate(-304.500000, -216.500000) "></path>
                            <path d="M310.561451,229.687357 L309.099131,219.680552 L299.273571,217.884429 C297.343854,217.53164 296.061914,215.659673 296.410193,213.704968 C296.453302,213.459049 296.52137,213.223473 296.609858,213.000538 C294.900226,212.97066 293.370974,214.187611 293.056728,215.946961 C292.709583,217.901666 293.991524,219.772484 295.921241,220.126422 L305.745667,221.921396 L307.209121,231.928201 C307.496139,233.893249 309.3022,235.251546 311.242127,234.96081 C312.532008,234.766604 313.542812,233.887504 314,232.746397 C312.299444,232.711922 310.820108,231.449006 310.561451,229.687357" id="Fill-133" fill="#C4CFED" transform="translate(303.500000, 224.000000) scale(-1, 1) translate(-303.500000, -224.000000) "></path>
                            <polygon id="Fill-181" fill="#AEDCD9" transform="translate(86.500000, 155.000000) scale(-1, 1) translate(-86.500000, -155.000000) " points="80 156 93 156 93 154 80 154"></polygon>
                            <path d="M168,151.5 C168,154.538063 165.538318,157 162.50057,157 C159.462823,157 157,154.538063 157,151.5 C157,148.461937 159.462823,146 162.50057,146 C165.538318,146 168,148.461937 168,151.5" id="Fill-182" fill="#AEDCD9" transform="translate(162.500000, 151.500000) scale(-1, 1) translate(-162.500000, -151.500000) "></path>
                            <path d="M138,151.5 C138,154.538063 135.538318,157 132.50057,157 C129.463963,157 127,154.538063 127,151.5 C127,148.461937 129.463963,146 132.50057,146 C135.538318,146 138,148.461937 138,151.5" id="Fill-183" fill="#AEDCD9" transform="translate(132.500000, 151.500000) scale(-1, 1) translate(-132.500000, -151.500000) "></path>
                            <polygon id="Fill-1" fill="#A6B1CF" points="223.081155 333.188446 298.349381 333.188446 298.349381 325.348006 223.081155 325.348006"></polygon>
                            <polygon id="Fill-2" fill="#A6B1CF" points="322.072506 254 278.748281 333.188446 402.271867 333.188446 441.829436 256.856525 322.121092 254"></polygon>
                            <polygon id="Fill-3" fill="#8890A6" points="283.452545 333.188446 406.975821 333.188446 448 254.853367 326.71446 254"></polygon>
                            <g id="Group-8" transform="translate(243.466300, 326.132050)" fill="#68728F">
                                <path d="M29.7265874,4.42356654 L20.5541409,4.42356654 C19.9379547,4.42356654 19.4377105,3.91550602 19.4377105,3.28969188 L19.4377105,1.56969532 C19.4377105,0.94388119 19.9379547,0.435820667 20.5541409,0.435820667 L29.7265874,0.435820667 C30.3440764,0.435820667 30.8430178,0.94388119 30.8430178,1.56969532 L30.8430178,3.28969188 C30.8430178,3.91550602 30.3440764,4.42356654 29.7265874,4.42356654" id="Fill-4"></path>
                                <path d="M10.2544514,4.42356654 L1.24354206,4.42356654 C0.58176066,4.42356654 0.0450403132,3.87978301 0.0450403132,3.20766128 L0.0450403132,1.65172593 C0.0450403132,0.979604195 0.58176066,0.435820667 1.24354206,0.435820667 L10.2544514,0.435820667 C10.9149301,0.435820667 11.4516504,0.979604195 11.4516504,1.65172593 L11.4516504,3.20766128 C11.4516504,3.87978301 10.9149301,4.42356654 10.2544514,4.42356654" id="Fill-6"></path>
                            </g>
                            <g id="Group-41" transform="translate(97.758814, 332.104344)">
                                <g id="Group-40" transform="translate(321.661518, 134.071527) scale(-1, 1) translate(-321.661518, -134.071527) translate(305.980638, 0.000000)"></g>
                                <polygon id="Mask" fill="#FFC4B0" transform="translate(419.847950, 134.155628) scale(-1, 1) translate(-419.847950, -134.155628) " points="407.345312 0.868145624 404.313259 267.443111 413.407673 267.443111 435.382642 7.84403292"></polygon>
                                <polygon id="Mask" fill="#FFC4B0" transform="translate(329.412742, 134.155628) scale(-1, 1) translate(-329.412742, -134.155628) " points="316.910104 0.868145624 313.87805 267.443111 322.972465 267.443111 344.947434 7.84403292"></polygon>
                                <polygon id="Mask" fill="#FF9A9A" points="3.29249713 0.868145624 0.260443687 267.443111 9.35485846 267.443111 31.3298273 7.84403292"></polygon>
                                <mask id="mask-5" fill="white">
                                    <use xlink:href="#path-4"></use>
                                </mask>
                                <use id="Mask" fill="#FF9A9A" xlink:href="#path-4"></use>
                            </g>
                            <polygon id="Fill-1-Copy-4" fill="#FFC4B0" points="75.3226751 369.950067 554.701837 369.950067 554.701837 344.719585 75.3226751 344.719585"></polygon>
                            <g id="Group-21" transform="translate(74.481659, 341.355521)" fill="#FF9A9A">
                                <path d="M2.8349381,19.6471728 L479.834938,19.6471728 L479.834938,8.71396389 L2.8349381,8.71396389 C1.7303686,8.71396389 0.834938102,9.60939439 0.834938102,10.7139639 L0.834938102,17.6471728 C0.834938102,18.7517423 1.7303686,19.6471728 2.8349381,19.6471728 Z" id="Fill-4-Copy-2"></path>
                                <path d="M2.33714741,28.5945465 L170.763312,28.5945465 L170.763312,0 L2.33714741,0 C1.23257791,2.02906125e-16 0.337147413,0.8954305 0.337147413,2 L0.337147413,26.5945465 C0.337147413,27.699116 1.23257791,28.5945465 2.33714741,28.5945465 Z" id="Fill-4-Copy-2"></path>
                            </g>
                            <path d="M42,350.015106 L587.809627,350.015106 C588.914196,350.015106 589.809627,349.119676 589.809627,348.015106 L589.809627,334.97249 C589.809627,333.86792 588.914196,332.97249 587.809627,332.97249 L42,332.97249 C40.8954305,332.97249 40,333.86792 40,334.97249 L40,348.015106 C40,349.119676 40.8954305,350.015106 42,350.015106 Z" id="Fill-4-Copy-3" fill="#FFFFFF"></path>
                            <g id="Group-23-Copy" transform="translate(366.000000, 316.011095)">
                                <g id="Group-13">
                                    <polygon id="Fill-1" fill="#E4E3FC" points="0 17.6351219 83.0082864 17.6351219 83.0082864 0.00105727735 0 0.00105727735"></polygon>
                                    <polygon id="Fill-2" fill="#FFFFFF" points="73.7629602 17.6020819 145.961996 17.6020819 145.961996 0.00105727735 73.7629602 0.00105727735"></polygon>
                                    <polygon id="Fill-3" fill="#52767F" opacity="0.26" points="0 4.8962514 145.961996 4.8962514 145.961996 3.40416874 0 3.40416874"></polygon>
                                    <polygon id="Fill-6" fill="#52767F" opacity="0.26" points="0 9.5628093 145.961996 9.5628093 145.961996 8.07072664 0 8.07072664"></polygon>
                                    <polygon id="Fill-9" fill="#52767F" opacity="0.26" points="0 14.4395011 145.961996 14.4395011 145.961996 12.9474184 0 12.9474184"></polygon>
                                </g>
                            </g>
                            <path d="M42,349.987977 L249.180247,349.987977 C250.284817,349.987977 251.180247,349.092546 251.180247,347.987977 L251.180247,334.94536 C251.180247,333.840791 250.284817,332.94536 249.180247,332.94536 L42,332.94536 C40.8954305,332.94536 40,333.840791 40,334.94536 L40,347.987977 C40,349.092546 40.8954305,349.987977 42,349.987977 Z" id="Fill-4-Copy-3" fill="#E4E3FC"></path>
                            <g id="Group-59" transform="translate(442.998624, 253.000000)">
                                <g id="Group-43">
                                    <g id="Group-42" transform="translate(0.000000, 0.469341)">
                                        <g id="Group-39-Copy" transform="translate(53.084088, 46.394932) rotate(90.000000) translate(-53.084088, -46.394932) translate(37.795230, -6.528039)">
                                            <polygon id="Fill-1" fill="#81CAC4" points="0 105.223016 29.9539971 105.223016 29.9539971 0 0 0"></polygon>
                                            <path d="M16.4231965,64.4483865 L13.2116452,64.4483865 C11.9772772,64.4483865 10.9766162,63.1242241 10.9766162,61.4922521 L10.9766162,18.6370147 C10.9766162,17.0035908 11.9772772,15.6808803 13.2116452,15.6808803 L16.4231965,15.6808803 C17.6575645,15.6808803 18.6571283,17.0035908 18.6571283,18.6370147 L18.6571283,61.4922521 C18.6571283,63.1242241 17.6575645,64.4483865 16.4231965,64.4483865" id="Fill-2" stroke="#FFFFFF" stroke-width="2" fill-opacity="0.5" fill="#FCFCFC"></path>
                                            <g id="Group-29" transform="translate(10.192572, 87.812930)">
                                                <path d="M8.32522191,4.48390895 C8.32522191,6.67718098 6.57519951,8.45537116 4.41441637,8.45537116 C2.25464247,8.45537116 0.50361083,6.67718098 0.50361083,4.48390895 C0.50361083,2.29063691 2.25464247,0.512446737 4.41441637,0.512446737 C6.57519951,0.512446737 8.32522191,2.29063691 8.32522191,4.48390895" id="Fill-4" fill="#323746"></path>
                                                <path d="M4.41542561,1.02489347 C2.53722971,1.02489347 1.00924014,2.57760709 1.00924014,4.48390895 C1.00924014,6.3912357 2.53722971,7.94292442 4.41542561,7.94292442 C6.29362151,7.94292442 7.82161108,6.3912357 7.82161108,4.48390895 C7.82161108,2.57760709 6.29362151,1.02489347 4.41542561,1.02489347 M4.41542561,8.9678179 C1.98113839,8.9678179 -2.89546165e-13,6.9569769 -2.89546165e-13,4.48390895 C-2.89546165e-13,2.010841 1.98113839,3.55271368e-15 4.41542561,3.55271368e-15 C6.84971283,3.55271368e-15 8.83085122,2.010841 8.83085122,4.48390895 C8.83085122,6.9569769 6.84971283,8.9678179 4.41542561,8.9678179" id="Fill-6" fill="#FFFFFF"></path>
                                            </g>
                                        </g>
                                        <g id="Group-38-Copy" transform="translate(69.213164, 15.672884) rotate(90.000000) translate(-69.213164, -15.672884) translate(53.924305, -37.250087)">
                                            <polygon id="Fill-9" fill="#81CAC4" points="0 105.281072 29.9539971 105.281072 29.9539971 0 0 0"></polygon>
                                            <path d="M16.374919,64.4483865 L13.2588255,64.4483865 C11.9992216,64.4483865 10.9766162,63.0966374 10.9766162,61.4283671 L10.9766162,18.7008998 C10.9766162,17.0326294 11.9992216,15.6808803 13.2588255,15.6808803 L16.374919,15.6808803 C17.634523,15.6808803 18.6571283,17.0326294 18.6571283,18.7008998 L18.6571283,61.4283671 C18.6571283,63.0966374 17.634523,64.4483865 16.374919,64.4483865" id="Fill-11" stroke="#FFFFFF" stroke-width="2" fill-opacity="0.5" fill="#FCFCFC"></path>
                                            <g id="Group-33" transform="translate(10.192572, 87.812930)">
                                                <path d="M8.32623115,4.48390895 C8.32623115,6.67718098 6.57519951,8.45537116 4.41542561,8.45537116 C2.25565171,8.45537116 0.50462007,6.67718098 0.50462007,4.48390895 C0.50462007,2.29063691 2.25565171,0.512446737 4.41542561,0.512446737 C6.57519951,0.512446737 8.32623115,2.29063691 8.32623115,4.48390895" id="Fill-12" fill="#323746"></path>
                                                <path d="M4.41542561,1.02489347 C2.53722971,1.02489347 1.00924014,2.57760709 1.00924014,4.48390895 C1.00924014,6.3912357 2.53722971,7.94292442 4.41542561,7.94292442 C6.29362151,7.94292442 7.82161108,6.3912357 7.82161108,4.48390895 C7.82161108,2.57760709 6.29362151,1.02489347 4.41542561,1.02489347 M4.41542561,8.9678179 C1.98113839,8.9678179 -2.87769808e-13,6.9569769 -2.87769808e-13,4.48390895 C-2.87769808e-13,2.010841 1.98113839,2.30926389e-14 4.41542561,2.30926389e-14 C6.84971283,2.30926389e-14 8.83085122,2.010841 8.83085122,4.48390895 C8.83085122,6.9569769 6.84971283,8.9678179 4.41542561,8.9678179" id="Fill-13" fill="#FFFFFF"></path>
                                            </g>
                                        </g>
                                    </g>
                                </g>
                            </g>
                        </g>
                    </g>
                </g>
            </g>
        </g>
    </g>
</svg>